<svg xmlns="http://www.w3.org/2000/svg" width="24" height="24" viewBox="0 0 24 24"><g fill="none" fill-rule="evenodd"><g stroke="#15C" stroke-linecap="round" stroke-linejoin="round"><path d="M10.368 14.927a.05.05 0 010 .071.05.05 0 01-.071 0 .05.05 0 010-.071.05.05 0 01.071 0m3.335 0a.05.05 0 010 .071.05.05 0 01-.071 0 .05.05 0 010-.071.05.05 0 01.071 0M17 8.988v5.975M7 8.988v5.975M13.667 8.988v3.575M10.333 8.988v3.575"/><path d="M17 21H7a4 4 0 01-4-4V7a4 4 0 014-4h10a4 4 0 014 4v10a4 4 0 01-4 4z"/></g><path d="M0 0h24v24H0z"/></g></svg>