<svg xmlns="http://www.w3.org/2000/svg" width="24" height="24" viewBox="0 0 24 24"><g fill="none" fill-rule="evenodd"><path d="M0 0h24v24H0z"/><path d="M0 0h24v24H0z"/><path stroke="#15C" stroke-linecap="round" stroke-linejoin="round" d="M20.5 9.478V6a2 2 0 00-2-2h-3.478M8.978 4H5.5a2 2 0 00-2 2v3.478m0 5.044V18a2 2 0 002 2h3.478m6.044 0H18.5a2 2 0 002-2v-3.478m-9.965 1.443a.05.05 0 11-.07.07.05.05 0 01.07-.07m3 0a.05.05 0 11-.07.07.05.05 0 01.07-.07M16.5 8v8M7.5 8v8M13.5 8v5M10.5 8v5"/></g></svg>