<svg xmlns="http://www.w3.org/2000/svg" width="24" height="24" viewBox="0 0 24 24"><g fill="none" fill-rule="evenodd"><path stroke="#15C" stroke-linecap="round" stroke-linejoin="round" d="M11.998 16.944h0a2.01 2.01 0 00-1.798-1.11H7.831A.833.833 0 016.998 15V9a.833.833 0 01.833-.833h1.945a2.37 2.37 0 012.222 2.389v6.388z"/><path stroke="#15C" stroke-linecap="round" stroke-linejoin="round" d="M11.998 16.944h0a2.01 2.01 0 011.798-1.11h2.369a.833.833 0 00.833-.834V9a.833.833 0 00-.833-.833H14.22a2.37 2.37 0 00-2.222 2.389v6.388z"/><rect width="18" height="18" x="2.998" y="3" stroke="#15C" stroke-linecap="round" stroke-linejoin="round" rx="4"/><path d="M-.002 0h24v24h-24z"/></g></svg>