<svg xmlns="http://www.w3.org/2000/svg" width="24" height="24" viewBox="0 0 24 24"><g fill="none" fill-rule="evenodd"><path d="M0 0h24v24H0z"/><path stroke="#15C" stroke-linecap="round" stroke-linejoin="round" d="M14 15v4.129A1.871 1.871 0 0112.129 21H4.871A1.871 1.871 0 013 19.129V4.871C3 3.838 3.838 3 4.871 3h7.257C13.162 3 14 3.838 14 4.871V7M6.3 18.5h4.4"/><path stroke="#15C" stroke-linecap="round" stroke-linejoin="round" d="M10.333 7h9.333C20.403 7 21 7.597 21 8.333v5.333c0 .737-.597 1.334-1.333 1.334h-9.333A1.333 1.333 0 019 13.667V8.333C9 7.597 9.597 7 10.333 7zM9 10h12"/></g></svg>