<svg xmlns="http://www.w3.org/2000/svg" width="24" height="24" viewBox="0 0 24 24"><g fill="none" fill-rule="evenodd"><g stroke="#15C" stroke-linecap="round" stroke-linejoin="round"><path d="M8 17l2 2-2 2"/><path d="M3 15v2c0 1.1.9 2 2 2h5M21 9V7c0-1.1-.9-2-2-2h-5"/><path d="M16 7l-2-2 2-2M11 8.9V5.1c0-.4-.2-.8-.6-1L7.1 2.2c-.4-.2-.8-.2-1.2 0L2.6 4.1c-.4.2-.6.6-.6 1v3.8c0 .4.2.8.6 1l3.3 1.9c.4.2.8.2 1.2 0l3.3-1.9c.4-.2.6-.6.6-1z"/><path d="M2.2 4.5L6.5 7l4.3-2.5M6.5 7v5M22 18.9v-3.8c0-.4-.2-.8-.6-1l-3.3-1.9c-.4-.2-.8-.2-1.2 0l-3.3 1.9c-.4.2-.6.6-.6 1v3.8c0 .4.2.8.6 1l3.3 1.9c.4.2.8.2 1.2 0l3.3-1.9c.4-.2.6-.6.6-1z"/><path d="M13.2 14.5l4.3 2.5 4.3-2.5M17.5 17v5"/></g><path d="M0 0h24v24H0z"/></g></svg>