<svg xmlns="http://www.w3.org/2000/svg" width="24" height="24" viewBox="0 0 24 24"><g fill="none" fill-rule="evenodd"><g stroke="#15C" stroke-linecap="round" stroke-linejoin="round"><path d="M11 21a9 9 0 01-9-9 9 9 0 019-9 9 9 0 019 9M2.513 9H19"/><path d="M20 22h-4a2 2 0 01-2-2h0a2 2 0 012-2h4a2 2 0 012 2h0a2 2 0 01-2 2zm-5-10c0-2.764-.723-5.528-2.167-7.94a2.114 2.114 0 00-3.665 0c-2.89 4.825-2.89 11.056 0 15.881a2.125 2.125 0 001.833 1.06"/><path d="M14.007 19.834l.236-2.991A2 2 0 0116.237 15h3.527a2 2 0 011.994 1.843l.236 2.991M2.514 15H12"/></g><path d="M0 0h24v24H0z"/></g></svg>