<svg xmlns="http://www.w3.org/2000/svg" width="24" height="24" viewBox="0 0 24 24"><g fill="none" fill-rule="evenodd"><path stroke="#15C" stroke-linecap="round" stroke-linejoin="round" d="M12 21a9 9 0 119-9M3.513 9H20.42M3.514 15H12"/><path stroke="#15C" stroke-linecap="round" stroke-linejoin="round" d="M16 12a15.477 15.477 0 00-2.167-7.94 2.114 2.114 0 00-3.665 0 15.629 15.629 0 000 15.881A2.125 2.125 0 0012 21m2.787-1.371v-2.756a.978.978 0 01.5-.849l2.489-1.4a.973.973 0 01.955 0l2.489 1.4a.976.976 0 01.5.849v2.756a.977.977 0 01-.5.849l-2.49 1.4a.978.978 0 01-.955 0l-2.489-1.4a.974.974 0 01-.499-.849h0zM18.25 18.251V22"/><path stroke="#15C" stroke-linecap="round" stroke-linejoin="round" d="M14.92 16.381l3.33 1.87 3.33-1.87"/><path d="M0 0h24v24H0z"/></g></svg>