<svg xmlns="http://www.w3.org/2000/svg" width="24" height="24" viewBox="0 0 24 24"><g fill="none" fill-rule="evenodd"><path stroke="#15C" stroke-linecap="round" stroke-linejoin="round" d="M6 11h6M6 8h3M7.5 17h0A1.5 1.5 0 016 15.5h0A1.5 1.5 0 017.5 14h0A1.5 1.5 0 019 15.5h0A1.5 1.5 0 017.5 17h0zm5 .25H15V21h-2.5a.5.5 0 01-.5-.5v-2.75a.5.5 0 01.5-.5zm3-4.25h2a.5.5 0 01.5.5V21h-3v-7.5a.5.5 0 01.5-.5zm3 2.25h2a.5.5 0 01.5.5v4.75a.5.5 0 01-.5.5H18v-5.25a.5.5 0 01.5-.5z"/><path stroke="#15C" stroke-linecap="round" stroke-linejoin="round" d="M9 21H5a2 2 0 01-2-2V5a2 2 0 012-2h8.172a2 2 0 011.414.586l2.828 2.828A2 2 0 0118 7.828V10"/><path d="M0 0h24v24H0z"/></g></svg>