<svg xmlns="http://www.w3.org/2000/svg" width="24" height="24" viewBox="0 0 24 24"><g fill="none" fill-rule="evenodd"><path stroke="#15C" stroke-linecap="round" stroke-linejoin="round" d="M20 11V5a2 2 0 00-2-2H5a2 2 0 00-2 2v14a2 2 0 002 2h5M9.25 15H10M17.5 13.818V17"/><path stroke="#15C" stroke-linecap="round" stroke-linejoin="round" d="M21 22h-6.875A1.125 1.125 0 0113 20.875v-4.308c0-.27.055-.538.161-.786l.547-1.28a1.126 1.126 0 011.035-.683h5.514c.45 0 .857.269 1.034.683l.548 1.282a2 2 0 01.161.786V21a1 1 0 01-1 1z"/><path stroke="#15C" stroke-linecap="round" stroke-linejoin="round" d="M22 18a1 1 0 00-1-1h-7a1 1 0 00-1 1M9.25 11H13M9.25 7.125H16M6.125 15.125a.125.125 0 100-.25.125.125 0 000 .25m0-4a.125.125 0 100-.25.125.125 0 000 .25m0-3.875a.125.125 0 100-.25.125.125 0 000 .25"/><path d="M0 0h24v24H0z"/></g></svg>