<svg xmlns="http://www.w3.org/2000/svg" width="24" height="24" viewBox="0 0 24 24"><g fill="none" fill-rule="evenodd"><path d="M24 24H0V0h24z"/><path stroke="#15C" stroke-linecap="round" stroke-linejoin="round" d="M3 12V8a5 5 0 015-5h8a5 5 0 015 5v8a5 5 0 01-5 5h-4"/><path stroke="#15C" stroke-linecap="round" stroke-linejoin="round" d="M5.5 22a3.502 3.502 0 11-.004-7.004A3.502 3.502 0 015.5 22M16.963 7.991l-3.588 3.587h0c-.759.76-1.99.76-2.75 0h0L7.038 7.991"/><path stroke="#15C" stroke-linecap="round" stroke-linejoin="round" d="M6.5 11.854v-2.5a2 2 0 012-2h7a2 2 0 012 2v5a2 2 0 01-2 2H12"/></g></svg>