<svg xmlns="http://www.w3.org/2000/svg" width="24" height="24" viewBox="0 0 24 24"><g fill="none" fill-rule="evenodd"><path stroke="#15C" stroke-linecap="round" stroke-linejoin="round" d="M19.493 18v3"/><rect width="5" height="7" x="17" y="11" stroke="#15C" stroke-linecap="round" stroke-linejoin="round" rx="2.5"/><path stroke="#15C" stroke-linecap="round" stroke-linejoin="round" d="M8.5 19v2M5.5 16h6M5.5 13h6M5.5 10h6M19.5 11V4a1 1 0 00-1-1H9a1 1 0 00-1 1v3"/><path stroke="#15C" stroke-linecap="round" stroke-linejoin="round" d="M3 21V8a1 1 0 011-1h9a1 1 0 011 1v13M2 21h20"/><path d="M0 0h24v24H0z"/></g></svg>