<svg xmlns="http://www.w3.org/2000/svg" width="24" height="24" viewBox="0 0 24 24"><g fill="none" fill-rule="evenodd"><path stroke="#15C" stroke-linecap="round" stroke-linejoin="round" d="M1.5 11.25L3 9.75l1.5 1.5M22.5 12.75l-1.5 1.5-1.5-1.5"/><path stroke="#15C" stroke-linecap="round" stroke-linejoin="round" d="M4.678 6.789a8.987 8.987 0 0116.1 7.2m-1.46 3.218a8.987 8.987 0 01-16.1-7.2M12 8.5v3M15.5 12.278a.778.778 0 00-.778-.778H9.278a.778.778 0 00-.778.778"/><path stroke="#15C" stroke-linecap="round" stroke-linejoin="round" d="M9.5 15.5h5a1 1 0 001-1v-3.565c0-.405-.082-.806-.241-1.179l-.278-.649a1 1 0 00-.919-.607H9.938a1 1 0 00-.92.607l-.277.648c-.159.373-.24.774-.241 1.179V14.5a1 1 0 001 1z"/><path d="M0 0h24v24H0z"/></g></svg>