<svg xmlns="http://www.w3.org/2000/svg" width="24" height="24" viewBox="0 0 24 24"><g fill="none" fill-rule="evenodd"><path d="M0 0h24v24H0z"/><path d="M0 0h24v24H0z"/><path stroke="#15C" stroke-linecap="round" stroke-linejoin="round" d="M16 10h3a2 2 0 012 2v7a2 2 0 01-2 2h-3a2 2 0 01-2-2v-7a2 2 0 012-2zM16.75 18.75h1.5"/><path stroke="#15C" stroke-linecap="round" stroke-linejoin="round" d="M18.951 7V5.206a1.772 1.772 0 00-1.773-1.772H4.772A1.772 1.772 0 003 5.206v12.022C3 18.207 3.793 19 4.772 19H11"/><path stroke="#15C" stroke-linecap="round" stroke-linejoin="round" d="M13.634 3.5v2.614c0 .49-.397.886-.886.886H9.2a.886.886 0 01-.886-.886v-2.68M6 16h2"/></g></svg>