<svg xmlns="http://www.w3.org/2000/svg" width="24" height="24" viewBox="0 0 24 24"><g fill="none" fill-rule="evenodd"><path d="M0 0h24v24H0z"/><path stroke="#15C" stroke-linecap="round" stroke-linejoin="round" d="M12 6.5v3M15.5 10.278a.778.778 0 00-.778-.778H9.278a.778.778 0 00-.778.778"/><path stroke="#15C" stroke-linecap="round" stroke-linejoin="round" d="M9.5 13.5h5a1 1 0 001-1V8.935c0-.405-.082-.806-.241-1.179l-.278-.649a1 1 0 00-.919-.607H9.938a1 1 0 00-.92.607l-.277.648c-.159.373-.24.774-.241 1.179V12.5a1 1 0 001 1z"/><path stroke="#15C" stroke-linecap="round" stroke-linejoin="round" d="M20.993 6.162v7.647a3.176 3.176 0 01-3.175 3.177h-4.824l-5 4v-4H6.169a3.176 3.176 0 01-3.176-3.176h0V6.162a3.176 3.176 0 013.176-3.176h11.648a3.176 3.176 0 013.176 3.176h0z"/></g></svg>