<svg xmlns="http://www.w3.org/2000/svg" width="24" height="24" viewBox="0 0 24 24"><g fill="none" fill-rule="evenodd"><path stroke="#15C" stroke-linecap="round" stroke-linejoin="round" d="M5.628 18.355A9 9 0 1012 3M3.731 15.375a.05.05 0 100 .1.05.05 0 000-.1M3.05 11.95a.05.05 0 100 .1.05.05 0 000-.1m.681-3.425a.05.05 0 100 .1.05.05 0 000-.1m1.94-2.904a.051.051 0 00-.05.05.05.05 0 10.05-.05m2.904-1.94a.05.05 0 100 .1.05.05 0 000-.1"/><path stroke="#15C" stroke-linecap="round" stroke-linejoin="round" d="M8.307 13.471v-2.939c0-.375.203-.721.529-.906l2.655-1.492a1.037 1.037 0 011.018 0l2.655 1.492c.327.185.529.53.529.906v2.939a1.041 1.041 0 01-.529.9l-2.656 1.492a1.042 1.042 0 01-1.018 0l-2.655-1.488a1.039 1.039 0 01-.528-.904h0zM12 12v4"/><path stroke="#15C" stroke-linecap="round" stroke-linejoin="round" d="M8.449 10.007L12 12l3.551-1.994"/><path d="M0 0h24v24H0z"/></g></svg>