<svg xmlns="http://www.w3.org/2000/svg" width="24" height="24" viewBox="0 0 24 24"><g fill="none" fill-rule="evenodd"><path d="M0 0h24v24H0z"/><path stroke="#15C" stroke-linecap="round" stroke-linejoin="round" d="M15 3.077v3.489a1 1 0 01-1 1h-4a1 1 0 01-1-1V3"/><path stroke="#15C" stroke-linecap="round" stroke-linejoin="round" d="M21 10V5a2 2 0 00-2-2H5a2 2 0 00-2 2v13a2 2 0 002 2h4M15.707 18.25l2.5-2.5M18.586 18.559a.05.05 0 11-.071 0h0c.02-.02.051-.02.071 0"/><path stroke="#15C" stroke-linecap="round" stroke-linejoin="round" d="M21.958 17a4.992 4.992 0 110-.016V17z"/><path stroke="#15C" stroke-linecap="round" stroke-linejoin="round" d="M15.33 15.441a.05.05 0 11.071 0h0a.051.051 0 01-.071 0"/></g></svg>