<svg xmlns="http://www.w3.org/2000/svg" width="24" height="24" viewBox="0 0 24 24"><g fill="none" fill-rule="evenodd"><g stroke="#15C" stroke-linecap="round" stroke-linejoin="round"><path d="M10.124 9H5.876a1 1 0 01-1-1V6a1 1 0 011-1h4.248a1 1 0 011 1v2a1 1 0 01-1 1zM17 6.326h0a1.876 1.876 0 010 2.652h0M20.094 5a3.75 3.75 0 010 5.303M18 22H9a1 1 0 01-1-1v-5a1 1 0 011-1h9a1 1 0 011 1v5a1 1 0 01-1 1z"/><path d="M14 15V4a2 2 0 00-2-2H4a2 2 0 00-2 2v12a2 2 0 002 2h4M8 18h11"/><path d="M5 11.99c-.003 0-.005.002-.005.005S4.997 12 5 12s.005-.002.005-.005-.002-.005-.005-.005M8 12c-.003 0-.005.002-.005.005s.002.005.005.005.005-.002.005-.005S8.003 12 8 12m3.005-.005c-.003 0-.005.002-.005.005s.002.005.005.005.005-.002.005-.005-.002-.005-.005-.005"/></g><path d="M0 0h24v24H0z"/></g></svg>