<svg xmlns="http://www.w3.org/2000/svg" width="24" height="24" viewBox="0 0 24 24"><g fill="none" fill-rule="evenodd"><path d="M0 0h24v24H0z"/><path stroke="#15C" stroke-linecap="round" stroke-linejoin="round" d="M7 8V4a1 1 0 011-1h8a1 1 0 011 1v4M7 17H5a2 2 0 01-2-2v-5a2 2 0 012-2h14a2 2 0 012 2v1M7 11h1"/><path stroke="#15C" stroke-linecap="round" stroke-linejoin="round" d="M11 21H8a1 1 0 01-1-1v-6h4m9.682 6.682a4.5 4.5 0 11-6.364-6.364 4.5 4.5 0 016.364 6.364h0M16.2 16.214h2.5M16.197 18.786h2.5"/></g></svg>