<svg xmlns="http://www.w3.org/2000/svg" width="24" height="24" viewBox="0 0 24 24"><g fill="none" fill-rule="evenodd"><g stroke="#15C" stroke-linecap="round" stroke-linejoin="round"><path d="M12.666 2a9.319 9.319 0 00-7.925 14.244L3 21l4.755-1.741A9.329 9.329 0 1012.666 2h0z"/><path d="M14.496 8C15.994 8 17 9.397 17 10.698c0 2.64-4.174 4.802-4.25 4.802-.076 0-4.25-2.162-4.25-4.802C8.5 9.397 9.506 8 11.004 8c.857 0 1.42.424 1.746.802A2.248 2.248 0 0114.496 8z"/></g><path d="M0 0h24v24H0z"/></g></svg>