<svg xmlns="http://www.w3.org/2000/svg" width="24" height="24" viewBox="0 0 24 24"><g fill="none" fill-rule="evenodd"><path stroke="#15C" stroke-linecap="round" stroke-linejoin="round" d="M3 8h18M10.866 5.495l-.005.005.005.005.005-.005-.005-.005M8.327 5.495l-.005.005.005.005.005-.005-.005-.005M5.779 5.49l-.005.005.005.005.005-.005-.005-.005"/><path stroke="#15C" stroke-linecap="round" stroke-linejoin="round" d="M9 21H5a2 2 0 01-2-2V5a2 2 0 012-2h14a2 2 0 012 2v4M13 16.149V21M21 21v-4.851M17 21v-2M12.52 21h8.96"/><path stroke="#15C" stroke-linecap="round" stroke-linejoin="round" d="M13.516 16.242h0a1.518 1.518 0 01-1.352-2.202l.658-1.301A1.35 1.35 0 0114.024 12h5.95c.508 0 .973.285 1.204.738l.659 1.301a1.518 1.518 0 01-1.353 2.202 1.744 1.744 0 01-1.651-1.183.1.1 0 00-.184 0 1.743 1.743 0 01-3.301 0 .1.1 0 00-.183 0 1.745 1.745 0 01-1.652 1.183"/><path d="M0 0h24v24H0z"/></g></svg>