<svg xmlns="http://www.w3.org/2000/svg" width="24" height="24" viewBox="0 0 24 24"><g fill="none" fill-rule="evenodd"><path d="M24 0H0v24h24z"/><path d="M0 24h24V0H0z"/><path stroke="#15C" stroke-linecap="round" stroke-linejoin="round" d="M11 20.91H3M4.22 10.78v10.13M19.7 10.778a2.2 2.2 0 002.069-3.142l-1.717-3.377A2.358 2.358 0 0017.938 3H6.062a2.361 2.361 0 00-2.115 1.259L2.231 7.636A2.2 2.2 0 004.3 10.778a2.39 2.39 0 002.566-2.163v-.048a2.409 2.409 0 002.566 2.211A2.409 2.409 0 0012 8.567a2.409 2.409 0 002.566 2.211 2.409 2.409 0 002.566-2.211v.048a2.392 2.392 0 002.568 2.163h0zM20 13l.016-2.22M21 17.79l-1.07-1.07-1.07 1.07"/><path stroke="#15C" stroke-linecap="round" stroke-linejoin="round" d="M19.93 16.72v2.853A1.431 1.431 0 0118.5 21H16M13 18.21l1.07 1.07 1.07-1.07"/><path stroke="#15C" stroke-linecap="round" stroke-linejoin="round" d="M14.07 19.28v-2.853A1.426 1.426 0 0115.5 15H18"/></g></svg>