<svg xmlns="http://www.w3.org/2000/svg" width="24" height="24" viewBox="0 0 24 24"><g fill="none" fill-rule="evenodd"><path stroke="#15C" stroke-linecap="round" stroke-linejoin="round" d="M7 21h5M10 8h4M7 15h5M7 18h5M17 12H7v9"/><path stroke="#15C" stroke-linecap="round" stroke-linejoin="round" d="M12 21H3V7.889a2 2 0 011.029-1.748l7-3.889a2 2 0 011.943 0l7 3.889A2 2 0 0121 7.889V12"/><path stroke="#15C" stroke-linecap="round" stroke-linejoin="round" d="M16 15h5a1 1 0 011 1v5a1 1 0 01-1 1h-5a1 1 0 01-1-1v-5a1 1 0 011-1z"/><path stroke="#15C" stroke-linecap="round" stroke-linejoin="round" d="M19.691 17.756L18.2 19.243l-.894-.892"/><path d="M0 0h24v24H0z"/></g></svg>