<svg xmlns="http://www.w3.org/2000/svg" viewBox="0 0 48 41"><g fill="none" fill-rule="evenodd"><path fill="#FFF" stroke="#15C" d="M2.968 39.721h33.109c1.124 0 2.038-.835 2.038-1.95V18.968l-.07-.14H1v18.943c0 1.115.914 1.95 1.968 1.95z"/><path fill="#FFF" stroke="#15C" stroke-linejoin="round" d="M2.968 39.721h33.109c.421 0 .843-.139 1.124-.348L22.369 30.18a5.665 5.665 0 00-5.834.07L1.914 39.443c.351.209.703.278 1.054.278z"/><path fill="#D4E4FF" d="M4.374 39.234h21.37c-11.388-.418-13.638-5.572-13.638-5.572L3.46 38.955c.281.14.563.21.914.21v.069zm24.11 0h.774-.773z"/><path fill="#FFF" stroke="#15C" d="M38.115 19.107v-.14c0-1.392-5.694-3.83-6.96-5.013l-23.688.278C5.077 15.764 1 17.575 1 18.968l14.832 10.934c2.179 1.601 4.99 1.671 7.17.139l15.113-10.934z"/><path fill="#FFF" stroke="#15C" stroke-linecap="round" stroke-linejoin="round" d="M33.686 22.241V1.07l-4.99 2.507-5.061-2.507-4.64 2.298-4.569-2.298-4.64 2.298L5.148 1.07 4.937 1h-.141l.281 20.962 10.403 8.149s4.077 2.646 8.365-.07l9.841-7.8z"/><path fill="#FC0" fill-rule="nonzero" stroke="#15C" d="M39.331 40C43.566 40 47 36.598 47 32.402c0-4.197-3.434-7.598-7.669-7.598-4.235 0-7.669 3.401-7.669 7.598 0 4.196 3.434 7.598 7.67 7.598z"/><path fill="#FFA230" d="M46.269 34.22a7.305 7.305 0 01-3.904 2.887 7.375 7.375 0 01-4.867-.184 7.29 7.29 0 01-3.671-3.173 7.187 7.187 0 01-.844-4.754 7.053 7.053 0 001.334 8.14 7.176 7.176 0 002.452 1.607 7.235 7.235 0 005.75-.2 7.164 7.164 0 002.332-1.773 7.087 7.087 0 001.418-2.55z"/><path fill="#15C" stroke="#15C" d="M38.607 35.404h1.406c0 .139-.21.348-.422.417-.281.07-.492.07-.703-.07-.07-.069-.14-.069-.14-.208l-.14-.14z"/><path fill="#FFF" stroke="#15C" d="M39.31 29.275c.703 0 1.195.279 1.617.766.703.836.421 1.741.492 2.507.07.488.21 1.045.421 1.463l.493.835h-5.975l.351-.626c.211-.558.281-.558.422-1.184l.07-.488c.07-.696-.21-1.602.492-2.437l.14-.21c.277-.263.615-.454.985-.556l.492-.07z"/><path fill="#15C" stroke="#15C" d="M39.1 28.578c0-.417.491-.417.491 0v.21H39.1v-.21z"/><path fill="#D4E4FF" d="M33.265 21.893c-8.014 3.97-17.433.487-27.766-6.198l.07 6.059 10.333 8.008s4.077 2.368 7.451.07l9.912-7.94z"/><path stroke="#15C" stroke-linecap="round" d="M16.535 20.359H29.68M9.013 20.359h3.375-3.375z"/><path fill="#FC0" fill-rule="nonzero" stroke="#15C" d="M16.162 8.173H9.885a.938.938 0 00-.942.933v6.22c0 .515.422.933.942.933h6.277c.52 0 .942-.418.942-.934V9.106a.938.938 0 00-.942-.933z"/><path stroke="#15C" stroke-linecap="round" d="M20.963 13.536h5.061M20.963 9.845h7.944-7.944z"/></g></svg>