<svg xmlns="http://www.w3.org/2000/svg" width="311.599" height="311.599"><path fill="red" d="M281.305 232.004c-21.42-25.092-48.96-44.063-70.992-68.544-2.448-2.447-4.284-4.896-6.732-7.344 20.809-24.479 42.841-48.959 64.261-73.439 11.628-12.852 25.704-44.064 3.06-55.692-23.868-12.24-46.512 4.284-64.872 18.972-18.972 15.3-36.72 32.436-52.632 50.184-17.748-20.808-36.108-41.004-56.304-59.976-14.69-13.464-53.858-50.796-75.889-29.988-21.42 18.972-4.284 49.572 12.24 65.484 1.836 1.836 4.284 2.448 6.732 1.836 26.928 21.42 49.572 46.512 71.604 72.828-28.152 36.719-53.856 75.276-82.008 110.772-1.224 1.224-1.224 2.447-1.224 4.283-11.628 8.568-17.748 28.152-7.344 39.168 19.584 20.809 44.676 8.568 63.648-6.731 29.988-23.256 54.468-56.304 78.336-87.517 18.36 20.196 37.332 39.168 59.364 55.692 17.748 13.464 45.899 33.66 68.544 20.196 21.42-12.24.611-38.556-9.792-50.184zM117.289 89.409c0-1.224-.612-2.448-1.224-3.06-2.448-3.06-5.508-6.732-7.956-10.404v-.612c4.896 6.12 9.792 12.852 14.688 18.972-1.837-1.224-3.672-3.06-5.508-4.896zm63.035 3.672c-1.836 1.836-3.06 4.284-4.896 6.12-1.836 1.224-4.284 3.06-6.12 4.284 3.672-3.672 7.344-7.956 11.016-11.628v1.224z"/></svg>