<svg xmlns="http://www.w3.org/2000/svg" viewBox="0 0 40 43"><g fill="none" fill-rule="evenodd"><path fill="#FFF" d="M8.881 1h19.972c.85 0 1.543.76 1.543 1.685v37.587c0 .934-.693 1.694-1.543 1.694H2.543c-.849 0-1.543-.76-1.543-1.694V8.5L8.881 1z"/><path fill="#D4E4FF" d="M30.396 38.066v2.206c0 .934-.693 1.694-1.543 1.694H2.543c-.849 0-1.543-.76-1.543-1.694V21.831s2.466 16.784 29.396 16.235z"/><path stroke="#15C" d="M8.881 1h19.972c.85 0 1.543.76 1.543 1.685v37.587c0 .934-.693 1.694-1.543 1.694H2.543c-.849 0-1.543-.76-1.543-1.694V8.5L8.881 1z"/><path fill="#D4E4FF" stroke="#15C" stroke-linejoin="round" d="M8.881 1h.046v7.499H1z"/><path fill="#FFF" fill-rule="nonzero" d="M37.61 22.792H10.737a1.39 1.39 0 00-1.39 1.393v16.422c0 .77.623 1.393 1.39 1.393H37.61A1.39 1.39 0 0039 40.607V24.185a1.39 1.39 0 00-1.39-1.393z"/><path fill="#D4E4FF" d="M38.999 39.027v1.575c0 .77-.63 1.392-1.388 1.392H10.735a1.39 1.39 0 01-1.388-1.392v-7.124s11.954 7.609 29.652 5.549z"/><path stroke="#15C" d="M36.145 22.792H12.202a2.859 2.859 0 00-2.855 2.863v13.483A2.858 2.858 0 0012.202 42h23.943A2.859 2.859 0 0039 39.138V25.655a2.859 2.859 0 00-2.855-2.863z"/><path fill="#FC0" stroke="#15C" d="M9.347 27.178h29.652v4.295H9.347z"/><path fill="#FFA230" d="M9.895 27.728h4.913s2.429 3.186 8.977 3.186H9.895v-3.186z"/><path fill="#D4E4FF" fill-rule="nonzero" stroke="#15C" d="M35.295 34.073h-3.358a.519.519 0 00-.518.52v3.366c0 .287.232.52.518.52h3.358a.519.519 0 00.518-.52v-3.366a.518.518 0 00-.518-.52z"/><path stroke="#15C" stroke-linecap="round" d="M27.401 36.573H13.794"/><path stroke="#D4E4FF" stroke-linecap="round" d="M14.799 13.224h11.689M6.205 18.123h4.283-4.283zm8.594 0h11.689-11.69zm-8.594-4.9h4.283-4.283z"/><path fill="#FC0" stroke="#15C" d="M30.396 4.498l.074.027 5.543 2.546v3.937s.63 5.22-5.516 8.451a.1.1 0 01-.201 0c-6.146-3.232-5.507-8.45-5.507-8.45V7.07l5.535-2.546.072-.027z"/><path fill="#FFA230" d="M34.597 14.872a8.969 8.969 0 01-4.155 4.111c0 .129-.183.129-.183 0-4.1-2.151-4.72-5.338-4.894-6.73 2.137 1.09 6.036 2.775 9.232 2.62z"/><path stroke="#15C" stroke-linecap="round" stroke-linejoin="round" d="M28.324 11.878l1.908 1.914L33.1 9.909"/></g></svg>