<svg xmlns="http://www.w3.org/2000/svg" xmlns:xlink="http://www.w3.org/1999/xlink" width="1033" height="633" viewBox="0 0 1033 633"><defs><path id="c" d="M114.393 188.953v-16.756h4.419l8.532 16.756h9.452l-9.33-17.8c5.709-1.657 9.269-6.26 9.269-12.337 0-7.55-5.402-13.381-13.872-13.381h-17.002v43.518h8.532zm6.874-24.06h-6.874V152.8h6.874c4.297 0 6.813 2.393 6.813 6.076 0 3.56-2.516 6.015-6.813 6.015zm30.383 35.723v-14.609c1.473 2.026 4.542 3.683 8.716 3.683 8.532 0 14.24-6.752 14.24-15.898 0-8.961-5.094-15.713-13.933-15.713-4.542 0-7.918 2.026-9.268 4.358v-3.683h-7.918v41.862h8.163zm7.427-18.23c-4.174 0-7.55-3.192-7.55-8.532s3.376-8.47 7.55-8.47c4.174 0 7.489 3.13 7.489 8.47 0 5.401-3.315 8.532-7.489 8.532zm26.025 6.997c3.13 0 5.647-2.517 5.647-5.586 0-3.069-2.516-5.585-5.647-5.585-3.069 0-5.585 2.516-5.585 5.585 0 3.07 2.516 5.586 5.585 5.586z"/><path id="d" d="M13.504 61V44.243h4.419L26.455 61h9.452l-9.33-17.8c5.709-1.657 9.269-6.261 9.269-12.338 0-7.55-5.402-13.38-13.872-13.38H4.972V61h8.532zm6.874-24.061h-6.874V24.847h6.874c4.297 0 6.813 2.394 6.813 6.077 0 3.56-2.516 6.015-6.813 6.015zm30.383 35.723V58.054c1.473 2.025 4.542 3.683 8.716 3.683 8.532 0 14.24-6.752 14.24-15.898 0-8.961-5.094-15.713-13.933-15.713-4.542 0-7.918 2.025-9.268 4.358V30.8h-7.918v41.861h8.163zm7.427-18.23c-4.174 0-7.55-3.191-7.55-8.531 0-5.34 3.376-8.47 7.55-8.47 4.174 0 7.489 3.13 7.489 8.47 0 5.401-3.315 8.531-7.489 8.531zm26.025 6.998c3.13 0 5.647-2.517 5.647-5.586 0-3.069-2.516-5.586-5.647-5.586-3.069 0-5.585 2.517-5.585 5.586 0 3.07 2.516 5.586 5.585 5.586z"/><path id="e" d="M69.38 195.86v-16.756h4.42l8.532 16.756h9.452l-9.33-17.8c5.709-1.657 9.269-6.26 9.269-12.337 0-7.55-5.402-13.381-13.872-13.381H60.849v43.518h8.531zm6.875-24.06H69.38v-12.092h6.875c4.297 0 6.813 2.393 6.813 6.076 0 3.56-2.516 6.015-6.813 6.015zm30.383 35.723v-14.609c1.473 2.026 4.542 3.683 8.716 3.683 8.532 0 14.24-6.752 14.24-15.897 0-8.962-5.094-15.714-13.933-15.714-4.542 0-7.918 2.026-9.268 4.358v-3.683h-7.918v41.862h8.163zm7.427-18.23c-4.174 0-7.55-3.192-7.55-8.532s3.376-8.47 7.55-8.47c4.174 0 7.488 3.13 7.488 8.47 0 5.401-3.314 8.532-7.488 8.532zm26.025 6.997c3.13 0 5.647-2.517 5.647-5.586 0-3.069-2.516-5.585-5.647-5.585-3.069 0-5.585 2.516-5.585 5.585 0 3.07 2.516 5.586 5.585 5.586z"/><path id="f" d="M65.612 98.05V84.782h3.5l6.755 13.268h7.484l-7.387-14.094c4.52-1.312 7.338-4.957 7.338-9.769 0-5.977-4.276-10.594-10.983-10.594H58.857V98.05h6.755zm5.443-19.051h-5.443v-9.574h5.443c3.402 0 5.395 1.895 5.395 4.811 0 2.819-1.993 4.763-5.395 4.763zm24.057 28.285V95.717c1.167 1.604 3.597 2.916 6.901 2.916 6.756 0 11.276-5.346 11.276-12.587 0-7.096-4.034-12.442-11.033-12.442-3.596 0-6.269 1.604-7.338 3.45V74.14h-6.27v33.145h6.464zm5.88-14.434c-3.304 0-5.977-2.527-5.977-6.756 0-4.228 2.673-6.706 5.978-6.706 3.305 0 5.929 2.478 5.929 6.706 0 4.277-2.624 6.756-5.93 6.756zm20.607 5.54c2.479 0 4.471-1.992 4.471-4.422 0-2.43-1.992-4.423-4.47-4.423a4.439 4.439 0 00-4.423 4.423 4.439 4.439 0 004.422 4.422z"/><path id="g" d="M412.625 224.67c4.733 0 7.923-3.635 7.923-8.025v-16.807h-4.733v16.807c0 2.126-1.235 3.533-3.224 3.533-1.921 0-3.328-1.132-3.362-3.636v-2.23l-4.562.823v1.613c0 4.767 3.156 7.923 7.958 7.923zm22.33.035c5.213 0 9.363-3.19 9.363-9.158v-15.71h-4.733v15.367c0 3.19-1.75 4.87-4.63 4.87-2.813 0-4.597-1.68-4.597-4.87v-15.366h-4.733v15.709c0 5.968 4.15 9.158 9.33 9.158zm30.252-.549v-4.527h-10.84v-19.791h-4.732v24.318h15.572zm11.97 0v-10.221l8.575-14.097h-5.316l-5.454 9.638-5.453-9.638h-5.557l8.472 14.097v10.221h4.733z"/><path id="h" d="M409.154 375.054c11.979 0 20.281-5.337 25.262-12.927 5.219-7.947 6.879-17.553 6.879-27.397 0-9.844-1.66-19.45-6.879-27.397-4.981-7.59-13.283-12.927-25.262-12.927-11.978 0-20.28 5.337-25.38 12.927-5.218 7.947-6.76 17.553-6.76 27.397 0 9.844 1.542 19.45 6.76 27.397 5.1 7.59 13.402 12.927 25.38 12.927zm0-14.47c-5.574 0-9.25-2.49-11.622-6.285-2.965-4.625-4.151-11.504-4.151-19.57 0-8.064 1.186-14.943 4.15-19.568 2.373-3.795 6.05-6.286 11.623-6.286 5.693 0 9.133 2.49 11.505 6.286 3.083 4.625 4.27 11.504 4.27 19.569s-1.187 14.944-4.27 19.569c-2.372 3.795-5.812 6.286-11.505 6.286zm69.5 14.47c18.502 0 29.531-12.453 29.531-26.804 0-16.485-10.91-25.736-26.329-25.736-5.1 0-10.555 1.66-13.876 4.744l3.795-16.96h32.26v-14.113h-43.408l-9.132 39.494c1.66.474 13.401 4.507 14.943 5.1 2.49-2.847 6.642-5.219 11.86-5.219 7.116 0 13.64 4.151 13.64 12.928 0 7.709-5.93 12.571-13.284 12.571-8.183 0-13.639-5.811-13.995-12.927l-15.3 3.44c.95 12.096 12.572 23.482 29.295 23.482z"/><path id="i" d="M385.954 412.956v-16.091l6.658 16.091h3.754l6.658-16.222v16.222h4.44v-23.141h-6.137l-6.79 16.711-6.951-16.711h-5.94v23.141h4.308zm33.586.49c4.798 0 8.421-3.59 8.421-8.52 0-4.96-3.623-8.518-8.42-8.518-4.799 0-8.422 3.558-8.422 8.519 0 4.929 3.623 8.519 8.421 8.519zm0-3.95c-2.121 0-4.08-1.566-4.08-4.57 0-3.035 1.959-4.569 4.08-4.569 2.122 0 4.08 1.534 4.08 4.57 0 3.035-1.958 4.57-4.08 4.57zm16.19 3.46v-9.237c0-1.86 1.11-3.33 3.002-3.33 2.09 0 2.97 1.404 2.97 3.2v9.367h4.342v-10.118c0-3.525-1.828-6.365-5.81-6.365-1.73 0-3.656.75-4.635 2.415v-1.99h-4.21v16.058h4.34zm21.346.392c2.154 0 3.786-.98 4.504-2.252 0 .75.098 1.534.164 1.86h4.145a33.071 33.071 0 01-.13-2.905v-20.726h-4.276v9.172c-.457-.849-1.763-1.991-4.537-1.991-4.537 0-7.703 3.688-7.703 8.388 0 4.864 3.264 8.454 7.833 8.454zm.522-3.884c-2.284 0-3.982-1.697-3.982-4.57 0-2.872 1.763-4.504 3.982-4.504 2.22 0 3.95 1.6 3.95 4.472 0 2.905-1.73 4.602-3.95 4.602zm17.3 3.95c2.382 0 3.916-1.11 4.732-2.383 0 .62.066 1.501.164 1.925h3.982c-.098-.555-.196-1.697-.196-2.546v-7.898c0-3.232-1.893-6.104-6.985-6.104-4.309 0-6.626 2.774-6.887 5.288l3.851.816c.13-1.404 1.175-2.612 3.068-2.612 1.828 0 2.71.947 2.71 2.09 0 .554-.294 1.011-1.208 1.142l-3.95.587c-2.676.392-4.798 1.991-4.798 4.864 0 2.513 2.09 4.83 5.517 4.83zm.913-3.232c-1.403 0-2.088-.914-2.088-1.86 0-1.24.88-1.861 1.99-2.024l3.624-.555v.718c0 2.84-1.698 3.72-3.526 3.72zm17.267 9.106l10.086-22.39h-4.635l-3.95 9.4-4.275-9.4h-4.864l6.822 14.035-3.786 8.355h4.602z"/><path id="j" d="M700.416 244.726v-24.694h-5.573v24.694h5.573zm10.797 0v-16.23l10.17 16.23h5.817v-24.694h-5.503v15.012l-9.265-15.012h-6.687v24.694h5.468zm33.716 0l9.02-24.694h-5.85l-5.887 17.38-5.956-17.38h-6.06l9.055 24.694h5.678zm22.604.523c6.932 0 12.818-5.05 12.818-12.853 0-7.836-5.886-12.887-12.818-12.887-6.966 0-12.852 5.05-12.852 12.887 0 7.802 5.886 12.853 12.852 12.853zm0-5.434c-3.448 0-7.14-2.298-7.14-7.453s3.692-7.489 7.14-7.489c3.414 0 7.106 2.334 7.106 7.489 0 5.155-3.692 7.453-7.106 7.453zm22.326 4.911v-24.694h-5.572v24.694h5.572zm16.719.523c7.662 0 10.936-5.225 11.738-8.638l-5.26-1.498c-.487 1.777-2.194 4.633-6.478 4.633-3.692 0-7.106-2.682-7.106-7.315 0-5.19 3.727-7.558 7.036-7.558 4.354 0 5.921 2.891 6.304 4.598l5.19-1.637c-.801-3.553-4.075-8.325-11.494-8.325-6.896 0-12.748 5.225-12.748 12.922 0 7.698 5.712 12.818 12.818 12.818zm31.173-.523v-5.224h-10.17v-4.737h9.194v-4.841h-9.195v-4.702h10.136v-5.19h-15.639v24.694h15.674z"/><linearGradient id="a" x1="65.619%" x2="34.323%" y1="46.974%" y2="52.975%"><stop offset="0%" stop-color="#12BD61"/><stop offset="100%" stop-color="#149350"/></linearGradient><linearGradient id="b" x1="82.715%" x2="17.753%" y1="60.892%" y2="39.089%"><stop offset="0%" stop-color="#12BD61"/><stop offset="100%" stop-color="#149350"/></linearGradient></defs><g fill="none" fill-rule="evenodd"><path fill="#EAF4FE" d="M956.321 264.126c65.16 20.94 54.69-61.67-18.62-160.57-73.3-98.9-153.01-121.01-199.55-91.34-81.69 52.08 191.83 243.44 218.17 251.91z"/><path fill="#EAF4FE" d="M21.981 295.536c-50.03 151.26-20.96 298.88 152.91 298.88h670.89s176.7 18.03 166.89-126.46c-9.81-144.49-150.6-239.9-311.17-381.86-211.72-187.18-599.53-32.39-679.52 209.44z"/><path fill="url(#a)" d="M12.337 215.64A161.79 161.79 0 00102.497 0c-84.33 34.77-124.65 131.2-90.17 215.65l.01-.01z" transform="translate(876.094 367.826)"/><g stroke="#FFF" stroke-linecap="round" stroke-width="1.94"><path d="M962.001 405.806l-60.06 142.3M939.211 459.796l-13.08-24.75M950.261 433.626l18.07-5.04M928.531 485.106l29.52-6.27M919.081 507.496l-13.36-27.25M912.161 523.896l21-4.78"/></g><path fill="url(#b)" d="M10.517 222.26c30.66 3.6 61.45-5.48 85.25-25.13a113.197 113.197 0 0040.81-78.96c-63.52-5.96-119.89 40.59-126.06 104.09z" transform="translate(876.094 367.826)"/><g stroke="#FFF" stroke-linecap="round" stroke-width="1.94"><path d="M993.661 502.076l-81.1 66.51M962.891 527.306l-.04-19.01M977.801 515.076l12.46 2.69M948.461 539.136l19.73 5.57M935.701 549.606l.59-20.6M926.361 557.266l14.13 3.77"/></g><g transform="translate(69.099 398.326)"><circle cx="109.254" cy="109.254" r="87.379" fill="#FC0" transform="rotate(-17.145 109.254 109.254)"/><circle cx="109.254" cy="109.254" r="68.875" fill="#FFA411" transform="rotate(-17.145 109.254 109.254)"/><path fill="#FFA411" d="M144.702 50.2c14.05 8.43 25.16 21.86 30.37 38.75 11.21 36.35-9.16 74.9-45.51 86.12-16.89 5.21-34.25 3.6-49.12-3.26-14.05-8.43-25.16-21.86-30.37-38.75-11.21-36.35 9.16-74.9 45.51-86.12 16.88-5.21 34.25-3.6 49.12 3.26z"/><path fill="#FC0" d="M144.702 50.2a69.42 69.42 0 0111.03 8.21c6.98 7.41 12.42 16.49 15.62 26.87 11.21 36.35-9.16 74.9-45.51 86.12-16.88 5.21-34.25 3.6-49.12-3.26a69.42 69.42 0 01-11.03-8.21c-6.98-7.41-12.42-16.49-15.62-26.87-11.21-36.35 9.16-74.9 45.51-86.12 16.88-5.21 34.25-3.6 49.12 3.26z"/><text fill="#FFA411" fill-rule="nonzero" font-family="Helvetica" font-size="48.6" transform="rotate(-17.145 312.753 -181.901)"><tspan x="0" y="47">Rp.</tspan></text></g><g transform="translate(16.598 290.892)"><rect width="285.182" height="128.534" x=".429" y="84.816" fill="#12BD61" rx="8.8" transform="rotate(48.137 143.02 149.083)"/><rect width="270.721" height="114.075" x="7.659" y="92.045" fill="#16DE73" rx="24.65" transform="rotate(48.138 143.02 149.082)"/><circle cx="142.723" cy="149.616" r="47.998" fill="#12BD61" transform="rotate(48.137 142.723 149.616)"/><g fill-rule="nonzero" transform="rotate(48.138 148.305 173.025)"><use fill="#000" xlink:href="#c"/><use fill="#FFF" xlink:href="#c"/></g><circle cx="79.652" cy="80.465" r="7.629" fill="#12BD61" transform="rotate(48.137 79.652 80.465)"/><circle cx="205.904" cy="221.36" r="7.629" fill="#12BD61" transform="rotate(48.137 205.904 221.36)"/></g><g transform="translate(71.63 233.966)"><rect width="285.182" height="128.534" x="-18.527" y="91.763" fill="#12BD61" rx="8.8" transform="rotate(61.774 124.064 156.03)"/><rect width="270.721" height="114.076" x="-11.297" y="98.993" fill="#16DE73" rx="24.65" transform="rotate(61.774 124.064 156.03)"/><circle cx="123.648" cy="156.479" r="47.998" fill="#12BD61" transform="rotate(61.774 123.648 156.479)"/><g fill-rule="nonzero" transform="rotate(61.774 -27.454 171.225)"><use fill="#000" xlink:href="#d"/><use fill="#FFF" xlink:href="#d"/></g><circle cx="78.659" cy="74.408" r="7.629" fill="#12BD61" transform="rotate(61.774 78.659 74.408)"/><circle cx="168.135" cy="241.097" r="7.629" fill="#12BD61" transform="rotate(61.774 168.135 241.097)"/></g><g transform="translate(157.618 238.705)"><rect width="285.182" height="128.534" x="-37.172" y="91.239" fill="#12BD61" rx="8.8" transform="rotate(71.884 105.419 155.506)"/><rect width="270.721" height="114.075" x="-29.941" y="98.468" fill="#16DE73" rx="24.65" transform="rotate(71.884 105.42 155.506)"/><circle cx="104.932" cy="155.875" r="47.997" fill="#12BD61" transform="rotate(71.884 104.932 155.875)"/><g fill-rule="nonzero" transform="rotate(71.884 103.293 179.932)"><use fill="#000" xlink:href="#e"/><use fill="#FFF" xlink:href="#e"/></g><circle cx="75.048" cy="67.181" r="7.629" fill="#12BD61" transform="rotate(71.884 75.048 67.181)"/><circle cx="133.874" cy="246.988" r="7.629" fill="#12BD61" transform="rotate(71.884 133.874 246.988)"/></g><path fill="#FC0" d="M313.011 562.996h160.23c5.47 0 9.94 4.47 9.94 9.94v11.53c0 5.47-4.47 9.94-9.94 9.94h-160.23c-5.47 0-9.94-4.47-9.94-9.94v-11.53c0-5.47 4.47-9.94 9.94-9.94z"/><g stroke="#FFA411" stroke-linecap="round" stroke-width="1.94"><path d="M404.551 562.996v18.49M423.281 562.996v18.49M437.631 562.996v18.49M447.771 562.996v18.49M454.821 562.996v18.49M461.861 562.996v18.49M467.961 562.996v18.49M473.121 562.996v18.49"/></g><path d="M313.011 562.996h160.23c5.47 0 9.94 4.47 9.94 9.94v11.53c0 5.47-4.47 9.94-9.94 9.94h-160.23c-5.47 0-9.94-4.47-9.94-9.94v-11.53c0-5.47 4.47-9.94 9.94-9.94z"/><path fill="#FFA411" d="M310.941 562.996h75.65v31.42h-75.65c-4.33 0-7.87-4.47-7.87-9.94v-11.53c0-5.47 3.54-9.94 7.87-9.94v-.01z"/><rect width="303.92" height="303.92" x="276.271" y="180.166" fill="#B0D8FF" rx="19.06"/><rect width="303.92" height="303.92" x="288.371" y="169.406" fill="#FFF" rx="19.06"/><path fill="#FC0" d="M249.141 532.746h160.23c5.47 0 9.94 4.47 9.94 9.94v11.53c0 5.47-4.47 9.94-9.94 9.94h-160.23c-5.47 0-9.94-4.47-9.94-9.94v-11.53c0-5.47 4.47-9.94 9.94-9.94z"/><g stroke="#FFA411" stroke-linecap="round" stroke-width="1.94"><path d="M340.681 532.746v18.48M359.411 532.746v18.48M373.761 532.746v18.48M383.901 532.746v18.48M390.951 532.746v18.48M397.991 532.746v18.48M404.091 532.746v18.48M409.251 532.746v18.48"/></g><path d="M249.141 532.746h160.23c5.47 0 9.94 4.47 9.94 9.94v11.53c0 5.47-4.47 9.94-9.94 9.94h-160.23c-5.47 0-9.94-4.47-9.94-9.94v-11.53c0-5.47 4.47-9.94 9.94-9.94z"/><path fill="#FFA411" d="M247.071 532.746h75.65v31.42h-75.65c-4.33 0-7.87-4.47-7.87-9.94v-11.53c0-5.47 3.54-9.94 7.87-9.94v-.01z"/><path fill="#FC0" d="M239.831 503.076h160.23c5.47 0 9.94 4.47 9.94 9.94v11.53c0 5.47-4.47 9.94-9.94 9.94h-160.23c-5.47 0-9.94-4.47-9.94-9.94v-11.53c0-5.47 4.47-9.94 9.94-9.94z"/><g stroke="#FFA411" stroke-linecap="round" stroke-width="1.94"><path d="M331.371 503.076v18.48M350.101 503.076v18.48M364.451 503.076v18.48M374.591 503.076v18.48M381.641 503.076v18.48M388.691 503.076v18.48M394.781 503.076v18.48M399.941 503.076v18.48"/></g><path d="M239.831 503.076h160.23c5.47 0 9.94 4.47 9.94 9.94v11.53c0 5.47-4.47 9.94-9.94 9.94h-160.23c-5.47 0-9.94-4.47-9.94-9.94v-11.53c0-5.47 4.47-9.94 9.94-9.94z"/><path fill="#FFA411" d="M237.761 503.076h75.65v31.42h-75.65c-4.33 0-7.87-4.47-7.87-9.94v-11.53c0-5.47 3.54-9.94 7.87-9.94v-.01z"/><path fill="#FC0" d="M232.561 472.826h160.23c5.47 0 9.94 4.47 9.94 9.94v11.53c0 5.47-4.47 9.94-9.94 9.94h-160.23c-5.47 0-9.94-4.47-9.94-9.94v-11.53c0-5.47 4.47-9.94 9.94-9.94z"/><g stroke="#FFA411" stroke-linecap="round" stroke-width="1.94"><path d="M324.101 472.826v18.48M342.831 472.826v18.48M357.181 472.826v18.48M367.321 472.826v18.48M374.371 472.826v18.48M381.411 472.826v18.48M387.511 472.826v18.48M392.671 472.826v18.48"/></g><path d="M232.561 472.826h160.23c5.47 0 9.94 4.47 9.94 9.94v11.53c0 5.47-4.47 9.94-9.94 9.94h-160.23c-5.47 0-9.94-4.47-9.94-9.94v-11.53c0-5.47 4.47-9.94 9.94-9.94z"/><path fill="#FFA411" d="M230.491 472.826h75.65v31.42h-75.65c-4.33 0-7.87-4.47-7.87-9.94v-11.53c0-5.47 3.54-9.94 7.87-9.94v-.01z"/><g transform="translate(159.721 388.476)"><circle cx="87.38" cy="87.38" r="87.38" fill="#FC0"/><circle cx="87.38" cy="87.38" r="68.87" fill="#FFA411"/><path fill="#FFA411" d="M138.66 41.4c10.94 12.19 17.6 28.31 17.6 45.98 0 38.04-30.84 68.88-68.87 68.88-17.67 0-33.79-6.66-45.98-17.6-10.94-12.19-17.6-28.31-17.6-45.98 0-38.04 30.84-68.88 68.87-68.88 17.67 0 33.79 6.66 45.98 17.6z"/><path fill="#FC0" d="M138.66 41.4c3.06 3.41 5.78 7.13 8.12 11.1 4.48 9.14 7 19.42 7 30.29 0 38.04-30.84 68.87-68.88 68.87-17.67 0-33.78-6.66-45.98-17.6a69.322 69.322 0 01-8.12-11.1c-4.48-9.14-7-19.42-7-30.29 0-38.04 30.84-68.88 68.87-68.88 17.67 0 33.79 6.66 45.98 17.6l.01.01z"/><g fill-rule="nonzero"><use fill="#000" xlink:href="#f"/><use fill="#FFA411" xlink:href="#f"/></g></g><path fill="#AFD4FA" d="M592.291 367.436v87.13c0 10.52-8.58 19.13-19.06 19.13h-73.47l92.53-106.25v-.01z"/><path fill="#15C" d="M307.431 169.406h265.8c10.48 0 19.06 8.84 19.06 19.64v67.33h-303.92v-67.33c0-10.8 8.58-19.64 19.06-19.64z"/><circle cx="370.741" cy="198.316" r="15.97" fill="#0E48AD"/><circle cx="519.251" cy="198.316" r="15.97" fill="#0E48AD"/><path fill="#E3B709" d="M370.741 147.556c6.1 0 11.09 4.99 11.09 11.09v36.82c0 6.1-4.99 11.09-11.09 11.09s-11.09-4.99-11.09-11.09v-36.82c0-6.1 4.99-11.09 11.09-11.09z"/><path fill="#FC0" d="M373.661 147.946c4.7 1.29 8.18 5.61 8.18 10.7v36.81c0 5.09-3.48 9.41-8.18 10.7-4.7-1.29-8.18-5.61-8.18-10.7v-36.81c0-5.09 3.48-9.41 8.18-10.7z"/><path fill="#E3B709" d="M519.251 147.556c6.1 0 11.09 4.99 11.09 11.09v36.82c0 6.1-4.99 11.09-11.09 11.09s-11.09-4.99-11.09-11.09v-36.82c0-6.1 4.99-11.09 11.09-11.09z"/><path fill="#FC0" d="M522.721 148.116c4.42 1.46 7.63 5.64 7.63 10.54v36.81c0 4.9-3.21 9.08-7.63 10.54-4.42-1.46-7.63-5.64-7.63-10.54v-36.81c0-4.89 3.21-9.07 7.63-10.54z"/><path fill="#EAF4FE" d="M499.761 473.326l92.53-105.89s-103.29 0-92.53 105.89z"/><rect width="270.27" height="147.49" x="350.661" y="446.926" fill="#15C" rx="18.47"/><path fill="#458FFF" fill-opacity=".502" d="M388.761 538.886h160.99c1.21 0 2.2.99 2.2 2.2v20.54c0 1.21-.99 2.2-2.2 2.2h-160.99c-1.21 0-2.2-.99-2.2-2.2v-20.54c0-1.21.99-2.2 2.2-2.2z"/><path stroke="#FC0" stroke-linecap="round" stroke-width="5.82" d="M310.541 253.806h114.07M452.671 253.806h62.17"/><g fill-rule="nonzero"><use fill="#000" xlink:href="#g"/><use fill="#FFF" xlink:href="#g"/></g><g fill-rule="nonzero"><use fill="#000" xlink:href="#h"/><use fill="#15C" xlink:href="#h"/></g><g fill-rule="nonzero"><use fill="#000" xlink:href="#i"/><use fill="#15C" xlink:href="#i"/></g><path fill="#15C" d="M635.851 138.936h261.28c14.23 0 25.88 11.64 25.88 25.88v86.58c2.15 0 3.91 1.76 3.91 3.91v55.2c0 2.15-1.76 3.91-3.91 3.91v274.13c-11.09 3.04-29.46 6.85-51.04 6.48-21.1-.36-156.03-.29-261.99-.18v-269.52c-1.98 0-3.61-1.62-3.61-3.61v-71.05c0-1.98 1.62-3.61 3.61-3.61v-82.25c0-14.23 11.64-25.88 25.88-25.88l-.01.01z"/><path fill="#FFF" d="M634.151 152.526h44.44a8.32 8.32 0 013.7 2.03 7.689 7.689 0 012.42 5.47v7.05c0 5.14 4.42 9.34 9.81 9.34h146.1c5.4 0 9.81-4.2 9.81-9.34v-8.42a7.757 7.757 0 012.28-4.1 8.32 8.32 0 013.7-2.03h42.43c9.56 0 17.37 7.44 17.37 16.54v421.19c-11.13 2.58-26.61 5.06-44.24 4.77-20.66-.35-150.34-.29-255.19-.18v-425.77c0-9.1 7.82-16.54 17.37-16.54v-.01z"/><rect width="215.84" height="12.8" x="658.801" y="350.706" fill="#15C" rx="5.5"/><path fill="#C5E0FB" d="M841.401 288.076c10.93 0 19.87 8.94 19.87 19.87v55.56h-39.74v-55.56c0-10.93 8.94-19.87 19.87-19.87z"/><circle cx="727.891" cy="160.996" r="4.84" fill="#FFF"/><path fill="#FFF" d="M743.231 159.036h65.7c1.13 0 2.06.93 2.06 2.06s-.93 2.06-2.06 2.06h-65.7a2.07 2.07 0 01-2.06-2.06c0-1.13.93-2.06 2.06-2.06z"/><path fill="#EAF4FE" d="M694.431 288.026h146.99s-18.17 1.28-19.78 17.15v277.38c0 7.97-6.68 14.49-14.84 14.49h-112.37c-8.16 0-14.84-6.52-14.84-14.49v-280.04c0-7.97 6.68-14.49 14.84-14.49z"/><g stroke="#C5E0FB" stroke-linecap="round" stroke-width="1.94"><path d="M700.681 383.726h103.56M700.681 401.026h103.56M700.681 350.706h103.56M700.681 368.016h103.56M700.681 418.346h103.56M700.681 435.646h103.56M700.681 454.556h103.56M700.681 471.856h103.56M700.681 489.896h103.56M700.681 507.206h103.56M700.681 524.076h103.56M700.681 541.376h103.56M700.681 557.246h103.56M700.681 574.546h103.56"/></g><path fill="#F5FAFF" d="M590.681 382.076H739.711s-21.58-.78-21.7 15.48c0 .62-.05 1.16-.12 1.65v187.01c0 5.95-6.68 10.82-14.84 10.82h-112.37c-8.16 0-14.84-4.87-14.84-10.82v-193.32c0-5.95 6.68-10.82 14.84-10.82z"/><path stroke="#C5E0FB" stroke-linecap="round" stroke-width="1.94" d="M595.951 436.586h103.56M595.951 456.526h103.56M595.951 398.556h103.56M595.951 418.486h103.56M595.951 476.466h103.56M595.951 496.406h103.56M595.951 518.186h103.56M595.951 538.126h103.56M595.951 558.916h103.56M595.951 578.846h103.56"/><path fill="#EAF4FE" d="M493.721 493.806h147.97s-20.76 1.66-20.76 16.84v118.36c-1.73-.11-3.82.04-6.3.6-10.18 2.33-5.82 2.91-16.87.44s-12.22 4.95-23.42 1.6c-11.2-3.34-11.49-2.04-19.49.58-8 2.62-11.93-3.35-21.24-.58-9.31 2.76-8.29-1.16-18.91-1.45-10.62-.29-10.33 4.36-23.13 1.31-5.52-1.32-9.72-1.25-12.7-.76v-125.84c0-6.1 6.68-11.09 14.84-11.09l.01-.01z"/><path fill="#12BD61" d="M551.141 526.856c20.77 0 37.6 16.84 37.6 37.61s-16.83 37.61-37.6 37.61c-20.77 0-37.6-16.84-37.6-37.61s16.83-37.61 37.6-37.61z"/><path fill="#FFF" d="M525.601 563.256a4.666 4.666 0 016.58 0l10.09 10.09 27.82-27.83a4.666 4.666 0 016.58 0 4.666 4.666 0 010 6.58l-31.33 31.34a4.666 4.666 0 01-6.58 0c-4.36-4.36-8.71-9.14-13.16-13.59a4.666 4.666 0 010-6.58v-.01z"/><path fill="#C5E0FB" d="M620.931 597.046v-86.8c0-9.04 7.92-16.44 17.59-16.44s17.59 7.4 17.59 16.44v76.48c.01.94.43 8.53 9.9 10.33h-45.09l.01-.01zm97.08 0v-197.44c0-10.67 8.94-19.39 19.87-19.39 10.93 0 19.87 8.73 19.87 19.39v184.38s1.74 13.04 14.17 13.04h-14.17v.01h-39.74v.01z"/><g><path fill="#FC0" d="M205.471 562.996h160.23c5.47 0 9.94 4.47 9.94 9.94v11.53c0 5.47-4.47 9.94-9.94 9.94h-160.23c-5.47 0-9.94-4.47-9.94-9.94v-11.53c0-5.47 4.47-9.94 9.94-9.94z"/><g stroke="#FFA411" stroke-linecap="round" stroke-width="1.94"><path d="M297.011 562.996v18.49M315.741 562.996v18.49M330.091 562.996v18.49M340.241 562.996v18.49M347.281 562.996v18.49M354.331 562.996v18.49M360.431 562.996v18.49M365.581 562.996v18.49"/></g><path d="M205.471 562.996h160.23c5.47 0 9.94 4.47 9.94 9.94v11.53c0 5.47-4.47 9.94-9.94 9.94h-160.23c-5.47 0-9.94-4.47-9.94-9.94v-11.53c0-5.47 4.47-9.94 9.94-9.94z"/><path fill="#FFA411" d="M203.401 562.996h75.65v31.42h-75.65c-4.33 0-7.87-4.47-7.87-9.94v-11.53c0-5.47 3.54-9.94 7.87-9.94v-.01z"/></g><rect width="104.72" height="27.34" x="699.811" y="311.726" fill="#C5E0FB" rx="3.85"/><g fill-rule="nonzero"><use fill="#000" xlink:href="#j"/><use fill="#15C" xlink:href="#j"/></g><circle cx="1005.481" cy="313.286" r="26.76" fill="#EAF4FE"/><rect width="40.72" height="41.31" x="387.021" y="468.746" fill="#0E48AD" rx="3.85"/><rect width="110.54" height="8.44" x="442.291" y="471.646" fill="#0E48AD" rx="2.2"/></g></svg>