<svg xmlns="http://www.w3.org/2000/svg" viewBox="0 0 39 34"><g fill="none" fill-rule="evenodd" transform="translate(1 1)"><rect width="36.982" height="23.22" x=".018" y="8.78" fill="#FFF" stroke="#15C" rx="2"/><path fill="#D4E4FF" stroke="#15C" d="M1.977 32h33.046c.414 0 .791-.128 1.114-.347L21.33 22.197a5.507 5.507 0 00-5.786.11l-14.592 9.4c.31.19.664.292 1.025.293h0z"/><path fill="#FFF" stroke="#15C" d="M37 10.88v-.092c0-1.095-.88-2.008-1.977-2.008H1.977C.899 8.78.02 9.657 0 10.752L14.825 21.96a5.962 5.962 0 007.152.164L36.982 10.88H37z"/><path fill="#FC0" stroke="#15C" d="M27.817 1.844H9.614c-1.024 0-1.869.73-1.869 1.606v9.693c0 .876.845 1.607 1.869 1.607h1.707l2.39 3.267c.2.201.473.313.755.31.88 0 2.695-2.92 3.198-3.577h10.153c1.025 0 1.87-.73 1.87-1.607V3.45c0-.876-.845-1.606-1.87-1.606z"/><path fill="#FFA411" d="M27.817 1.844h-2.965a3.711 3.711 0 00-.593 2.026c0 2.08 1.654 3.76 3.702 3.76a3.674 3.674 0 001.725-.438V3.45c0-.876-.844-1.606-1.869-1.606zM8.194 3.249a1.278 1.278 0 00-.072.457v9.4c0 .859.809 1.278 1.815 1.26l1.618-.018 2.48 3.395c.197.183.485.256.718.11.701-.457 2.247-2.848 2.732-3.487l10.117.018c.449 0 1.024-.127 1.33-.365-10.477-.219-17.7-6.973-20.72-10.733l-.018-.037z"/><path stroke="#15C" stroke-linecap="round" d="M11.141 5.732h10.225M11.141 8.58h10.225M11.141 11.336h15.365"/><ellipse cx="28.5" cy="4.162" fill="#FFF" stroke="#15C" rx="4.097" ry="4.162"/><path fill="#15C" stroke="#15C" d="M28.105 5.878h.79c-.017.11-.143.219-.251.255-.144.055-.27.019-.395-.054-.054-.037-.054-.037-.09-.092-.054-.073-.036-.054-.054-.11h0z"/><path fill="#15C" d="M28.464 1.552h.072c.09 0 .198.054.27.127.161.165.126.292.126.512.09 0 .359.146.43.219.336.244.552.623.594 1.04.018.183-.018.639.036.95.072.474.215.766.503 1.131.036.055.126.128.126.183 0 .073-.018.127-.09.146-.054.018-1.24 0-1.33 0-.036.073-.054.255-.234.401a.767.767 0 01-.413.183h-.108a.767.767 0 01-.413-.183.561.561 0 01-.18-.274c-.018-.036-.018-.09-.036-.11h-1.15c-.143 0-.27.02-.27-.163 0-.128.486-.384.63-1.333.054-.31 0-.73.036-.95.05-.456.31-.862.7-1.094.072-.055.252-.146.342-.146 0-.22-.018-.31.072-.457a.4.4 0 01.323-.182h-.036z"/><path fill="#15C" stroke="#15C" d="M28.356 2.008c0-.08.065-.146.144-.146.08 0 .144.065.144.146v.11h-.288v-.11h0z"/><path fill="#D4E4FF" d="M.413 16.776l14.268 5.567L.341 11.464zM36.605 16.922l-14.304 5.44 14.286-10.734z"/></g></svg>