<svg xmlns="http://www.w3.org/2000/svg" viewBox="0 0 47 33"><g fill="none" fill-rule="evenodd" transform="translate(1 1)"><rect width="28.02" height="21.57" x="1" fill="#FFF" stroke="#15C" rx="1.184"/><path fill="#FC0" stroke="#15C" d="M11.639.232h8.269V9.59l-4.184-1.579-4.085 1.579z"/><path fill="#FFA230" d="M19.522 5.954v3.085l-3.798-1.434L12.01 9.04V3.245s2.628 3.68 7.498 2.709h.014z"/><path fill="#D4E4FF" d="M28.648 18.513v1.782c0 .637-.514 1.159-1.142 1.159H2.513c-.17 0-.342-.044-.485-.116l-.486-.435a1.116 1.116 0 01-.171-.608v-7.62c4.727 3.767 13.253 7.75 27.263 5.838h.014z"/><path fill="#FC0" stroke="#15C" d="M.714 21.135h43.572a.72.72 0 01.714.724v2.188c0 .4-.32.724-.714.724H.714A.72.72 0 010 24.047v-2.188c0-.4.32-.724.714-.724h0z"/><path fill="#FFA230" d="M44.614 23.033v1c0 .39-.314.347-.7.347H1.086c-.385 0-.7.072-.7-.319v-1.883s39.76 1.81 44.23.855z"/><ellipse cx="8.112" cy="24.93" fill="#FFF" stroke="#FFF" rx="5.984" ry="6.07"/><path fill="#FFF" stroke="#15C" d="M29.019 5.939h8.983l5.713 9.213V21.135H29.019z"/><path fill="#D4E4FF" d="M43.343 18.977v1.984H29.405v-6.113c3.199 4.114 9.611 4.433 13.938 4.114v.015z"/><path fill="#FC0" stroke="#15C" stroke-linejoin="round" d="M39.43 8.243l4.285 6.909v.189H32.99V8.243z"/><path fill="#FFA230" d="M42.315 13.617l.843 1.347h-9.782v-4.795s2.098 4.114 8.94 3.448z"/><path fill="#FFF" stroke="#15C" d="M8.112 19.744c2.813 0 5.098 2.318 5.098 5.172 0 2.854-2.285 5.171-5.098 5.171-2.814 0-5.099-2.317-5.099-5.171s2.285-5.172 5.099-5.172h0z"/><path fill="#FFF" stroke="#15C" d="M8.112 22.931c1.085 0 1.956.884 1.956 1.985 0 1.1-.87 1.984-1.956 1.984a1.965 1.965 0 01-1.957-1.984c0-1.101.871-1.985 1.957-1.985z"/><ellipse cx="34.218" cy="24.93" fill="#FFF" stroke="#15C" rx="1.957" ry="1.985"/><ellipse cx="34.218" cy="24.93" fill="#FFF" stroke="#FFF" rx="5.984" ry="6.07"/><path fill="#FFF" stroke="#15C" d="M34.218 19.744c2.813 0 5.098 2.318 5.098 5.172 0 2.854-2.285 5.171-5.098 5.171-2.814 0-5.099-2.317-5.099-5.171s2.285-5.172 5.099-5.172h0z"/><path fill="#FFF" stroke="#15C" d="M34.218 22.931c1.085 0 1.956.884 1.956 1.985 0 1.1-.87 1.984-1.956 1.984a1.965 1.965 0 01-1.957-1.984c0-1.101.871-1.985 1.957-1.985z"/><path fill="#D4E4FF" d="M7.912 29.71c2.085-.637 3.513-2.578 3.513-4.794 0-2.216-1.428-4.158-3.513-4.795a4.733 4.733 0 014.298 2.332c.9 1.521.9 3.419 0 4.94a4.717 4.717 0 01-4.298 2.332v-.014zm26.063 0c2.085-.637 3.513-2.578 3.513-4.794 0-2.216-1.428-4.158-3.513-4.795a4.733 4.733 0 014.299 2.332c.9 1.521.9 3.419 0 4.94a4.717 4.717 0 01-4.3 2.332v-.014z"/><path stroke="#15C" stroke-linecap="round" d="M43.715 17.716h-2.642"/></g></svg>