<svg xmlns="http://www.w3.org/2000/svg" viewBox="0 0 43 36"><g fill="none" fill-rule="evenodd" transform="translate(1 1)"><path fill="#D4E4FF" stroke="#15C" d="M28.724.018h0c-1.312 0-2.405 1.065-2.405 2.383v11.394c0 1.3 1.075 2.383 2.405 2.383h0c1.311 0 2.404-1.065 2.404-2.383V2.401c0-1.3-1.075-2.383-2.404-2.383z"/><rect width="41" height="20.747" y="13.235" fill="#FFF" stroke="#15C" rx="1.891"/><path fill="#FC0" stroke="#15C" d="M36.902 33.982H4.299v-8.54c0-1.048.837-1.915 1.857-1.915h28.888c1.02 0 1.858.867 1.858 1.914v8.54z"/><path fill="#FFA230" stroke="#15C" d="M36.902 33.982H4.299v-2.51h32.603z"/><path fill="#FFF" stroke="#15C" d="M8.725.018h20.654s-2.987-.126-3.005 2.438c0 .09 0 .18-.018.252v29.559c0 .939-.93 1.715-2.058 1.715H8.725c-1.13 0-2.059-.776-2.059-1.715V1.715C6.666.776 7.596 0 8.725 0v.018z"/><path fill="#D4E4FF" d="M25.919 21.92v10.292c0 .903-.674 1.355-1.767 1.355l-15.1-.036c-1.074 0-1.967-.74-1.967-1.644V13.67s4.827 9.678 18.834 8.233v.018z"/><path stroke="#15C" stroke-linecap="round" d="M9.672 17.045h7.486M20.564 17.045h2.404M9.672 21.306h7.486M20.564 21.306h2.404M9.672 9.191h7.486M20.564 9.191h2.404M9.672 13.235h7.486M20.564 13.235h2.404"/><path fill="#D4E4FF" stroke="#15C" d="M3.315 29.901C3.315 32.754 4.608 34 6.047 34h17.65l.983-.018c-2.495-.163-2.258-3.954-2.258-3.954L3.315 29.9h0z"/><ellipse cx="34.771" cy="9.48" fill="#FC0" stroke="#15C" rx="6.193" ry="6.139"/><path fill="#FFA230" d="M34.26 15.203a6.197 6.197 0 004.063-5.67 6.155 6.155 0 00-3.825-5.831 5.821 5.821 0 015.245 2.889 5.711 5.711 0 01-.127 5.94 5.82 5.82 0 01-5.355 2.672z"/><path stroke="#15C" stroke-linecap="round" stroke-linejoin="round" d="M31.419 9.461l2.423 2.402 4.262-4.785"/><path stroke="#15C" stroke-linecap="round" d="M29.234 20.909h5.1"/></g></svg>