<svg xmlns="http://www.w3.org/2000/svg" viewBox="0 0 42 31"><g fill="none" fill-rule="evenodd" transform="translate(1 1)"><rect width="37.531" height="28.215" x="1.188" fill="#FFF" stroke="#15C" rx="1.718"/><path fill="#FFF" stroke="#15C" d="M3.095 0h33.731c1.049 0 1.907.833 1.907 1.85v2.81H1.203V1.85C1.203.833 2.062 0 3.11 0h-.015z"/><path fill="#D4E4FF" d="M38.37 21.07v5.295c0 1.002-.728 1.525-1.864 1.525H3.416c-1.5 0-1.864-.706-1.864-1.808V9.475c13.394 11.778 26.656 12.357 36.832 11.608l-.015-.014z"/><path stroke="#15C" stroke-linecap="round" d="M24.539 8.812v15.237"/><rect width="15.024" height="12.709" x="5.992" y="9.927" fill="#FC0" stroke="#15C" rx=".582"/><ellipse cx="13.49" cy="18.217" fill="#FFF" stroke="#15C" rx="5.969" ry="5.79"/><path stroke="#15C" d="M8.686 21.648l-2.49 1.907"/><path fill="#FC0" stroke="#15C" d="M7.637 22.623h0c-.436-.509-1.223-.58-1.761-.156L.446 26.86a1.198 1.198 0 00-.16 1.709h0c.436.508 1.222.579 1.761.155l5.43-4.392a1.198 1.198 0 00.16-1.708z"/><path stroke="#15C" stroke-linecap="round" d="M17.493 16.946a4.206 4.206 0 01-1.834 4.646m-1.66.65a4.518 4.518 0 01-1.892-.071M29.154 2.429h.67M31.367 2.429h.67M33.551 2.429h.669M27.742 9.461h6.872M27.742 12.399h6.872M27.742 15.562h6.872"/><rect width="11.253" height="10.916" x="28.747" y="17.412" fill="#FC0" stroke="#15C" rx="1.033"/><path fill="#FFA230" d="M38.928 27.765h-1.01v-10h.981c.512 0 .64.303.64.827v8.345c0 .51-.114.828-.625.828h.014z"/><rect width="2.708" height="3.304" x="33.027" y="17.412" fill="#FFF" stroke="#15C" rx=".48"/><path stroke="#FFF" stroke-linecap="round" d="M32.823 25.63h2.722"/></g></svg>