<svg xmlns="http://www.w3.org/2000/svg" xmlns:xlink="http://www.w3.org/1999/xlink" viewBox="0 0 35 35"><defs><path id="a" d="M15.455 16.694v-2.24h.704l1.192 2.24h1.088l-1.28-2.336c.792-.192 1.28-.808 1.28-1.616 0-.96-.68-1.72-1.776-1.72h-2.176v5.672h.968zm1.032-3.088h-1.032V11.87h1.032c.592 0 .976.344.976.872 0 .52-.384.864-.976.864zm3.792 4.608v-1.96c.2.296.624.536 1.184.536 1.12 0 1.832-.88 1.832-2.048 0-1.152-.648-2.032-1.8-2.032-.6 0-1.048.28-1.24.616v-.528h-.896v5.416h.92zm1.04-2.248c-.608 0-1.048-.48-1.048-1.224 0-.728.44-1.208 1.048-1.208.624 0 1.048.48 1.048 1.208 0 .744-.432 1.224-1.048 1.224z"/></defs><g fill="none" fill-rule="evenodd" transform="translate(.711 1)"><path fill="#FFF" stroke="#15C" d="M18.957 30.194c8.005 0 14.494-6.759 14.494-15.097S26.962 0 18.957 0C10.952 0 4.463 6.76 4.463 15.097c0 8.338 6.49 15.097 14.494 15.097z"/><path fill="#FC0" stroke="#15C" d="M18.957 26.639c6.112 0 11.08-5.175 11.08-11.542 0-6.366-4.968-11.541-11.08-11.541S7.877 8.73 7.877 15.097c0 6.367 4.968 11.542 11.08 11.542z"/><g fill-rule="nonzero"><use fill="#000" xlink:href="#a"/><use fill="#15C" xlink:href="#a"/></g><path fill="#FFA230" d="M18.904 26.248c6.005-.168 10.759-4.859 10.759-11.114 0-6.254-4.7-11.001-10.706-11.169C23.997 5.343 27.5 9.68 27.5 15.097s-3.556 9.755-8.596 11.132v.019z"/><path fill="#D4E4FF" d="M8.413 5.436C12.38.968 18.207-.82 23.675 1.34c5.47 2.141 9.276 7.316 9.419 13.403.143 6.088-3.217 11.412-8.579 13.85-5.361 2.42-11.42 1.08-15.584-3.183 5.451 4.71 13.261 4.486 18.015-.968 4.756-5.464 4.551-13.856-.465-19.062C21.46.168 13.614.465 8.395 5.436h.018z"/><path fill="#FC0" stroke="#15C" d="M10.861 20.98c.223.309.326.695.286 1.08l-1.18 9.623c-.107.82-.821 1.415-1.608 1.304l-7.095-.931c-.786-.112-1.358-.857-1.251-1.676l1.215-9.996c.054-.503.483-.856.5-.875 4.487-3.165 5.29-3.853 9.133 1.49v-.02z"/><path fill="#FC0" stroke="#15C" d="M6.447 19.08c.465.057.786.503.715.969-.054.484-.483.819-.93.744-.464-.055-.786-.502-.714-.968.053-.484.482-.819.929-.744h0z"/><path fill="#FFA230" d="M10.468 24.572l-.84 6.888c-.093.758-.754 1.298-1.483 1.21l-6.541-.856c-.728-.097-1.246-.786-1.162-1.545l.357-2.979c2.645.596 8.507 1.434 9.651-2.699l.018-.019z"/><circle cx="3.82" cy="24.554" stroke="#15C" r="1"/><circle cx="6.912" cy="28.184" stroke="#15C" r="1"/><path stroke="#15C" stroke-linecap="round" d="M7.233 24.275L3.569 28.37"/></g></svg>