<svg xmlns="http://www.w3.org/2000/svg" viewBox="0 0 38 33"><g fill="none" fill-rule="evenodd" transform="translate(1 1)"><path fill="#FC0" stroke="#15C" d="M20.765 7.513L17.411.499a.936.936 0 00-.225-.289.87.87 0 00-.328-.17c-.121-.033-.242-.05-.38-.033a1.19 1.19 0 00-.346.119L2.818 8.31a.887.887 0 00-.346.408.835.835 0 00-.034.543L3.63 13.95a.735.735 0 00.173.323 1 1 0 00.294.238c.104.05.242.085.363.102.123 0 .245-.016.363-.051l15.492-5.842a.944.944 0 00.311-.187.963.963 0 00.208-.306.873.873 0 00.069-.356.9.9 0 00-.087-.357h-.052z"/><path fill="#FFA411" stroke="#15C" d="M24.396 8.855l-1.193-4.688a.856.856 0 00-.155-.305 1.156 1.156 0 00-.26-.238c-.103-.051-.207-.102-.328-.119a.781.781 0 00-.346.017L3.06 8.21a.884.884 0 00-.31.153 1.152 1.152 0 00-.243.255c-.058.1-.099.21-.121.323a.741.741 0 00.017.34l1.193 4.686c.035.12.087.221.156.306.07.085.156.17.26.238.103.05.207.102.328.119a.781.781 0 00.346-.017l19.053-4.687a.884.884 0 00.312-.153c.086-.068.173-.153.242-.255.052-.102.103-.204.12-.323a.741.741 0 00-.017-.34z"/><path fill="#FFF" stroke="#15C" d="M23.532 8.175H.899a.896.896 0 00-.64.255.864.864 0 00-.259.628v21.059c0 .238.086.458.26.628.172.17.397.255.64.255h22.632a4.52 4.52 0 003.164-1.29A4.37 4.37 0 0028.01 26.6V12.557a4.36 4.36 0 00-1.314-3.108 4.531 4.531 0 00-3.164-1.29v.016z"/><path fill="#D4E4FF" d="M1.017 15v14.154c0 .212.033.537.182.683.15.147.415.163.631.163l21.302-.049c1.112 0 2.191-.309 2.971-1.057.399-.374.698-.911.897-1.4C9.335 25.917 4.105 18.825 1 15h.017z"/><path fill="#FC0" stroke="#15C" d="M29.48 15.206h-7.141c-.55 0-1.079.214-1.47.595-.397.39-.605.9-.605 1.443v4.687c0 .54.218 1.06.605 1.444.398.39.917.594 1.47.594h7.14a.896.896 0 00.64-.255c.173-.17.26-.39.26-.628v-7.014a.864.864 0 00-.26-.628.896.896 0 00-.64-.255v.017z"/><path fill="#FFA230" d="M20.783 22.56a1.925 1.925 0 001.78 1.171h6.605a.831.831 0 00.588-.237.801.801 0 00.242-.578v-5.06c-1.106 1.97-3.613 4.143-9.198 4.704h-.017z"/><path fill="#15C" d="M24.414 20.47c.501 0 .899-.39.899-.882a.885.885 0 00-.9-.883c-.5 0-.898.39-.898.883 0 .492.397.883.899.883z"/><rect width="9.596" height="5.095" x="3.51" y="23.137" fill="#FC0" stroke="#15C" rx=".623"/><path fill="#FFA230" d="M12.726 23.731v3.839c0 .305-.208.288-.571.288H4.478c-.363 0-.57.034-.57-.272v-1.698s5.913 1.24 8.835-2.14l-.017-.017z"/><path stroke="#15C" stroke-linecap="round" d="M26.506.16a9.596 9.596 0 016.778 2.785 9.219 9.219 0 012.714 6.708m-9.371-3.465c1.78.102 3.181 1.563 3.164 3.329M26.506 3.08a6.57 6.57 0 014.599 1.936 6.308 6.308 0 011.833 4.568M3.717 20.963h9.268"/></g></svg>