<svg width="793" height="434" fill="none" xmlns="http://www.w3.org/2000/svg"><g clip-path="url(#clip0)"><path fill-rule="evenodd" clip-rule="evenodd" d="M144.937 69.786C75.002 154.17 72.692 255.314 34.544 295.189-3.604 335.07-4.182 393.444 70.952 422.343c75.135 28.898 307.477-9.25 500.515 2.311 193.039 11.56 224.248-121.371 195.35-187.262-78.394-178.734-486.23-331.3-621.892-167.606h.012z" fill="#EAF4FE"/><path fill-rule="evenodd" clip-rule="evenodd" d="M369.857 425.508v-96.096c0-3.692-3.02-6.713-6.713-6.713H247.111c-3.692 0-6.712 3.021-6.712 6.713v102.237l59.95-2.807 69.514-3.328-.006-.006z" fill="#C5E0FB"/><path fill-rule="evenodd" clip-rule="evenodd" d="M.967 334.078c-10.876-97.948 73.659 27.033 64.183 85.577a132.48 132.48 0 01-9.583-4.163c-16.37-7.931-26.945-18.324-33.708-27.693C11.064 367.416 2.204 345.218.967 334.072v.006z" fill="url(#paint0_linear)"/><path d="M49.087 396.433l-9.394-2.241m-22.255-68.78l36.704 82.356-36.704-82.356zm6.299 14.123l2.229-16.723-2.23 16.723zm9.394 21.093l-14.537-4.296 14.537 4.296zm9.237 20.716l2.957-14.173-2.957 14.173z" stroke="#fff" stroke-width="2.003" stroke-miterlimit="2.613" stroke-linecap="round"/><path fill-rule="evenodd" clip-rule="evenodd" d="M69.81 341.205c42.801-73.621 43.824 28.949 15.924 84.899-10.173-2.524-20.546-5.953-30.16-10.612-1.01-.49-2.01-.997-3.002-1.52 2.393-27.303 10.173-60.604 17.244-72.767h-.007z" fill="url(#paint1_linear)"/><path d="M84.861 359.133l11.75-12.113m-8.403-2.983L70.984 421.79l17.224-77.753zm-16.816 75.919l-6.217-7.397m14.694-30.876l-9.13-12.101 9.13 12.101zm-4.904 22.141l10.813-9.632-10.813 9.632z" stroke="#fff" stroke-width="2.003" stroke-miterlimit="2.613" stroke-linecap="round"/><path fill-rule="evenodd" clip-rule="evenodd" d="M115.392 387.931c19.856-48.955 30.274 4.917 21.483 45.037a269.664 269.664 0 01-26.324-2.205c-.201-16.803 1.739-35.184 4.841-42.832z" fill="url(#paint2_linear)"/><path d="M127.154 398.48l6.694-9.212m-5.89-1.193l-3.398 44.189 3.398-44.189zm-3.172 41.2l6.311-7.46m-5.136-7.799l-7.247-7.215 7.247 7.215z" stroke="#fff" stroke-width="2.003" stroke-miterlimit="2.613" stroke-linecap="round"/><path fill-rule="evenodd" clip-rule="evenodd" d="M47.197 320.872c13.017-62.644 40.277 34.393 20.986 66.356-12.83 21.256-24.653-48.685-20.986-66.356z" fill="url(#paint3_linear)"/><path d="M58.895 318.875l5.953 57.181m-.816-7.868l-5.256-3.221m1.143-36.29l4.66-9.695-4.66 9.695zm1.526 14.644l-7.962-5.475 7.962 5.475zm1.495 14.387l4.602-8.007-4.602 8.007z" stroke="#fff" stroke-width="2.003" stroke-miterlimit="2.613" stroke-linecap="round"/><path fill-rule="evenodd" clip-rule="evenodd" d="M86.25 386.688c11.71-56.365 33.513.427 31.478 44.936-8.804-.93-18.983-2.449-29.47-4.911-2.63-15.969-3.604-32.333-2.003-40.025h-.006z" fill="url(#paint4_linear)"/><path d="M99.618 384.408l4.729 45.451m-.113-1.08l5.256-9.149m-8.71-24.019l5.325-11.077-5.325 11.077zm1.739 16.735l-9.092-6.261 9.092 6.261z" stroke="#fff" stroke-width="2.003" stroke-miterlimit="2.613" stroke-linecap="round"/><path fill-rule="evenodd" clip-rule="evenodd" d="M170.087 61.842h291.595c4.685 0 8.522 3.83 8.522 8.521v352.451l-7.957-.082V78.841c0-4.421-3.616-8.038-8.037-8.038h-275.2c-4.421 0-8.038 3.617-8.038 8.038v354.503l-9.4-.119V70.363c0-4.684 3.83-8.52 8.521-8.52h-.006z" fill="#C5E0FB"/><path fill-rule="evenodd" clip-rule="evenodd" d="M61.583 351.014h447.183c3.065 0 5.57 2.505 5.57 5.57v29.319c0 3.064-2.505 5.57-5.57 5.57H61.583c-3.064 0-5.57-2.506-5.57-5.57v-29.319c0-3.065 2.506-5.57 5.57-5.57z" fill="#15C"/><path fill-rule="evenodd" clip-rule="evenodd" d="M40.647 345.381h489.438a3.29 3.29 0 013.278 3.278v4.138a3.29 3.29 0 01-3.278 3.278H40.647a3.29 3.29 0 01-3.278-3.278v-4.138a3.29 3.29 0 013.278-3.278z" fill="#0E48AD"/><path fill-rule="evenodd" clip-rule="evenodd" d="M38.299 218.321s36.408-52.019 50.28-95.944c13.871-43.926-40.46-36.409-67.046-12.139-26.588 24.277-15.605 150.269 16.76 108.077l.006.006z" fill="#EAF4FE"/><path fill-rule="evenodd" clip-rule="evenodd" d="M755.859 193.837c11.077-99.73-76.786 31.674-63.574 88.717 8.779 37.929 60.453-60.591 63.574-88.717z" fill="url(#paint5_linear)"/><path d="M707.739 256.187l9.394-2.242m22.255-68.78l-36.704 82.363 36.704-82.363zm-6.299 14.123l-2.229-16.722 2.229 16.722zm-9.4 21.093l14.537-4.295-14.537 4.295zm-9.231 20.722l-2.958-14.179 2.958 14.179z" stroke="#fff" stroke-width="2.003" stroke-miterlimit="2.613" stroke-linecap="round"/><path fill-rule="evenodd" clip-rule="evenodd" d="M773.63 319.277c31.937-62.161-57.828 1.576-63.373 41.972-3.692 26.864 54.368-24.44 63.373-41.972z" fill="url(#paint6_linear)"/><path d="M765.058 309.55l-44.302 44.503m6.098-6.123l6.668.867m23.938-31.611l2.694-11.441-2.694 11.441zm-11.347 11.397l10.531.804-10.531-.804zm-11.146 11.19l1.588-9.959-1.588 9.959z" stroke="#fff" stroke-width="2.003" stroke-miterlimit="2.613" stroke-linecap="round"/><path fill-rule="evenodd" clip-rule="evenodd" d="M787.47 242.95c28.791-99.349-83.562 18.662-80.177 78.927 2.248 40.069 72.057-50.902 80.177-78.927z" fill="url(#paint7_linear)"/><path d="M772.261 231.251l-51.762 77.194m7.127-10.625l9.941-.628m25.821-52.704l.672-17.382-.672 17.382zm-13.256 19.768l15.517-1.802-15.517 1.802zm-13.024 19.422l-.515-14.92.515 14.92z" stroke="#fff" stroke-width="2.003" stroke-miterlimit="2.613" stroke-linecap="round"/><path fill-rule="evenodd" clip-rule="evenodd" d="M203.594 200.117h84.384v70.224h-84.384v-70.224z" fill="#AFD4FA"/><path fill-rule="evenodd" clip-rule="evenodd" d="M215.155 200.117h84.384v70.224h-84.384v-70.224z" fill="#C5E0FB"/><path fill-rule="evenodd" clip-rule="evenodd" d="M249.83 200.117h15.027v20.804H249.83v-20.804zm0 70.224h15.611v-18.5H249.83v18.5z" fill="#fff" fill-opacity=".341"/><path fill-rule="evenodd" clip-rule="evenodd" d="M304.45 200.117h84.384v70.224H304.45v-70.224z" fill="#AFD4FA"/><path fill-rule="evenodd" clip-rule="evenodd" d="M316.01 200.117h84.384v70.224H316.01v-70.224z" fill="#C5E0FB"/><path fill-rule="evenodd" clip-rule="evenodd" d="M350.686 200.117h15.027v20.804h-15.027v-20.804zm0 70.224h15.604v-18.5h-15.604v18.5z" fill="#fff" fill-opacity=".341"/><path fill-rule="evenodd" clip-rule="evenodd" d="M161.566 268.752h308.638v7.805H161.566v-7.805z" fill="#C5E0FB"/><path fill-rule="evenodd" clip-rule="evenodd" d="M171.242 197.254s-7.491-9.765-9.827-10.098c-2.33-.333-8.465 5.953-5.677 10.336 0 0 10.179-4.628 15.504-.238z" fill="#458FFF"/><path fill-rule="evenodd" clip-rule="evenodd" d="M127.568 196.067s4.823 8.27 14.431 6.461c9.607-1.808 21.45-10.512 26.072-7.366 4.622 3.153 23.63 15.247 35.913 19.335 12.276 4.088 14.16 5.143 14.33 12.383 0 0 .854 9.809-34.035 7.297-34.889-2.512-57.182 1.633-63.486-1.105-6.311-2.738.653-12.339.653-12.339s-3.033-18.983 6.129-24.666h-.007z" fill="#15C"/><path fill-rule="evenodd" clip-rule="evenodd" d="M127.568 196.067s4.823 8.27 14.431 6.461c9.607-1.808 21.45-10.512 26.072-7.366l1.784 1.187c-5.771.798-8.698 7.573-23.373 15.134-8.929 4.603-18.148-2.33-23.994-8.459.992-2.869 2.581-5.413 5.08-6.957zm67.65 14.794c3.095 1.476 6.091 2.751 8.766 3.636 12.276 4.088 14.16 5.143 14.33 12.383 0 0 .854 9.809-34.035 7.297a335.908 335.908 0 00-20.346-.829c.031-2.945 1.256-8.923 9.055-16 7.473-6.788 16.678-7.058 22.236-6.493l-.006.006z" fill="#0E48AD"/><path fill-rule="evenodd" clip-rule="evenodd" d="M195.218 210.861c3.095 1.476 6.091 2.751 8.766 3.636 5.168 1.721 8.496 2.907 10.631 4.239-3.485 1.614-10.361 3.278-22.525.998-7.378-1.388-12.389-3.196-15.774-4.929 6.726-4.295 14.154-4.427 18.908-3.944h-.006zm22.951 13.746l.138 2.273s.854 9.809-34.035 7.297c-34.889-2.512-57.181 1.633-63.486-1.105-6.31-2.738.654-12.339.654-12.339s10.147.54 35.146 4.483c23.969 3.78 49.828 6.656 61.583-.615v.006zm-44.208-26.914c.377.27.465.798.195 1.174l-1.532 2.142a.843.843 0 01-1.369-.98l1.532-2.141a.843.843 0 011.174-.195zm3.278 2.016c.377.27.465.797.195 1.174l-1.532 2.141a.844.844 0 01-1.175.195.844.844 0 01-.194-1.174l1.532-2.142a.844.844 0 011.174-.194zm3.278 2.009c.377.27.465.798.195 1.175l-1.532 2.141a.843.843 0 01-1.369-.98l1.532-2.141a.843.843 0 011.174-.195zm3.272 2.01c.377.27.464.797.194 1.174l-1.532 2.141a.843.843 0 01-1.174.195.843.843 0 01-.195-1.174l1.533-2.142a.844.844 0 011.174-.194z" fill="#458FFF"/><path fill-rule="evenodd" clip-rule="evenodd" d="M231.149 233.706l-160.253-.37-.283 112.139 160.253.364.283-112.133z" fill="#FC0"/><path fill-rule="evenodd" clip-rule="evenodd" d="M128.799 237.888h-.578l.308 107.047 97.672.226c-90.57-1.859-97.402-107.266-97.402-107.266v-.007z" fill="#FFA411"/><path fill-rule="evenodd" clip-rule="evenodd" d="M128.837 233.474l-57.941-.138-.283 112.139 57.941.132.283-112.133z" fill="#FFA411"/><path fill-rule="evenodd" clip-rule="evenodd" d="M188.517 233.606l-15.523-.032-.081 33.577 15.523.037.081-33.582zm-88.648-.201l-6.455-.013-.082 33.941 6.45.012.087-33.94z" fill="#fff"/><path fill-rule="evenodd" clip-rule="evenodd" d="M520.867 113.108h183.318c9.984 0 18.154 8.17 18.154 18.154v60.742a2.756 2.756 0 012.744 2.744v38.726a2.756 2.756 0 01-2.744 2.744v166.583a172.827 172.827 0 01-4.032 4.132c-9.262 9.168-17.928 11.184-22.474 11.774-4.553.59-12.917-7.404-12.917-7.404s-14.977 4.854-47.147 11.423c-24.44 4.992-80.447 2.342-133.056.816V243.879a2.54 2.54 0 01-2.531-2.531v-49.847a2.539 2.539 0 012.531-2.53v-57.709c0-9.984 8.169-18.154 18.154-18.154z" fill="#15C"/><path fill-rule="evenodd" clip-rule="evenodd" d="M519.674 122.647h31.177a5.854 5.854 0 012.594 1.425 5.375 5.375 0 011.695 3.837v4.942c0 3.604 3.096 6.556 6.883 6.556h102.506c3.787 0 6.883-2.952 6.883-6.556v-5.903a5.437 5.437 0 011.595-2.876 5.83 5.83 0 012.593-1.425h29.771c6.707 0 12.189 5.218 12.189 11.604v273.404c-8.98 8.559-17.306 10.487-21.74 11.064-4.552.591-12.917-7.403-12.917-7.403s-14.976 4.854-47.146 11.422c-23.705 4.842-77.094 2.493-128.284.955V134.257c0-6.38 5.488-11.604 12.188-11.604l.013-.006z" fill="#EAF4FE"/><path fill-rule="evenodd" clip-rule="evenodd" d="M519.674 122.647h31.177a5.854 5.854 0 012.594 1.425 5.375 5.375 0 011.695 3.837v4.942c0 3.604 3.096 6.556 6.883 6.556h102.506c3.787 0 6.883-2.952 6.883-6.556v-5.903a5.437 5.437 0 011.595-2.876 5.83 5.83 0 012.593-1.425h29.771c6.707 0 12.189 5.218 12.189 11.604v204.172c-28.22 25.263-65.489 40.635-106.35 40.635-39.611 0-75.844-14.443-103.737-38.343V134.257c0-6.38 5.488-11.604 12.188-11.604l.013-.006z" fill="#fff"/><path fill-rule="evenodd" clip-rule="evenodd" d="M704.624 236.833c-3.278-9.501-7.749-19.209-12.967-28.358l-56.604 21.752-.452 10.066 70.023-3.46zm-93.646-79.68c-8.666.577-17.25 2.43-25.501 5.381l24.402 54.607h9.746l-8.641-59.995-.006.007zm57.96 20.634c-5.941-5.991-12.032-10.656-17.922-13.375a78.645 78.645 0 00-4.609-1.953l-20.208 54.644 7.486 4.182 35.253-43.498zm13.953 117.414c13.651 2.832 22.041.81 26.512-17.476.094-.376.169-.759.251-1.142l-72.02-20.98-5.149 7.353 50.406 32.252v-.007zM564.415 172.902a109.295 109.295 0 00-20.967 17.406l52.271 38.086 6.618-5.514-37.922-49.978zm-41.068 48.509c-4.1 10.06-7.422 18.261-9.777 25.193l82.419.641-.528-7.561-69.489-24.132a93.991 93.991 0 00-2.625 5.859zm-12.389 52.628c1.35 3.768 3.698 7.322 7.19 11.065 4.954 5.306 16.075 6.192 30.21 5.331l48.729-20.239-2.838-13.494-83.291 17.344v-.007z" fill="#EAF4FE"/><path fill-rule="evenodd" clip-rule="evenodd" d="M576.566 300.671h71.957c8.502 0 15.46 6.958 15.46 15.46s-6.958 15.46-15.46 15.46h-71.957c-8.502 0-15.46-6.958-15.46-15.46s6.958-15.46 15.46-15.46z" fill="#15C"/><path fill-rule="evenodd" clip-rule="evenodd" d="M735.72 330.48c15.266 20.728 4.201 52.773-13.218 72.151a161.713 161.713 0 01-4.195 4.302l-.006.006c-2.995 2.826-6.116 5.256-9.281 7.196-5.495 3.19-10.211 4.189-13.181 4.572a14.287 14.287 0 01-2.7-.396c-4.421-1.538-9.909-6.706-10.21-6.995-5.602-7.586-6.368-20.088 6.737-33.175 22.908-22.876 46.054-47.668 46.054-47.668v.007z" fill="#FABE97"/><path fill-rule="evenodd" clip-rule="evenodd" d="M718.307 406.933c-2.983 2.813-6.097 5.243-9.243 7.177-5.507 3.209-10.242 4.207-13.219 4.597a14.155 14.155 0 01-2.694-.396c-4.395-1.526-9.858-6.656-10.21-6.989-4.132-5.595-5.633-13.871-.873-23.077-.232.747-5.808 19.404 11.743 25.922 9.344 3.466 18.185-1.595 24.503-7.234h-.007zm17.413-76.453a34.54 34.54 0 012.675 4.232c-5.984 11.021-23.981 40.126-48.729 43.435 22.908-22.876 46.054-47.667 46.054-47.667z" fill="#E77168"/><path fill-rule="evenodd" clip-rule="evenodd" d="M735.877 275.05s15.787 12.327 6.682 39.624c-9.099 27.297-41.301 72.095-61.596 62.299-20.302-9.802-14.688-28.565-.521-42.11 14.166-13.539 55.435-59.813 55.435-59.813z" fill="#FABE97"/><path fill-rule="evenodd" clip-rule="evenodd" d="M698.257 374.989c-6.154 3.416-12.113 4.483-17.294 1.978-15.222-7.347-15.875-19.743-9.269-31.19 0 0-8.232 18.97 10.694 28.797 5.495 2.851 10.927 2.437 15.869.421v-.006zm37.62-99.939s1.702 1.325 3.661 4.076c-4.364 7.215-12.144 18.92-23.403 31.586-18.494 20.804-35.693 24.151-35.693 24.151 14.166-13.539 55.435-59.813 55.435-59.813z" fill="#E77168"/><path fill-rule="evenodd" clip-rule="evenodd" d="M724.474 225.26l-65.47 79.612s-8.402 11.899 2.8 25.199c11.203 13.301 29.225.698 35.699-6.298 14.217-15.372 38.764-42.832 45.414-64.051 3.322-17.677-10.851-36.39-18.443-34.462z" fill="#FABE97"/><path fill-rule="evenodd" clip-rule="evenodd" d="M659.544 304.219l-.54.653s-8.402 11.899 2.8 25.199c9.564 11.354 24.101 3.831 32.176-2.97-27.385 17.803-42.933-9.394-34.436-22.889v.007z" fill="#E77168"/><path fill-rule="evenodd" clip-rule="evenodd" d="M681.227 291.572s14.524 7.874 18.374 18.725c0 0-8.402 14.173-20.478 18.55-12.075 4.377-28.352-15.925 2.097-37.275h.007zm11.265 42.977s14.525 7.874 18.374 18.725c0 0-8.402 14.173-20.478 18.55-12.075 4.377-28.352-15.925 2.098-37.275h.006zm11.121 41.802s13.683 7.423 17.313 17.646c0 0-7.912 13.356-19.291 17.476-11.378 4.119-26.713-15.002 1.978-35.122z" fill="#FACEB1"/><path d="M527.24 166.735h17.344M527.24 155.79h17.344-17.344zm0 5.419h17.344-17.344z" stroke="#15C" stroke-width="2.669" stroke-miterlimit="2.613" stroke-linecap="round"/><path fill-rule="evenodd" clip-rule="evenodd" d="M685.604 147.947c7.981 0 14.449 6.468 14.449 14.449s-6.468 14.449-14.449 14.449c-7.982 0-14.45-6.468-14.45-14.449s6.468-14.449 14.45-14.449z" fill="#15C"/><path fill-rule="evenodd" clip-rule="evenodd" d="M502.468 339.761s43.561-44.434 41.244-69.86c-2.311-25.432-26.732-23.699-45.081-7.51-18.349 16.182-45.369 59.53-59.241 88.428-7.956 16.572-5.105 44.032 2.663 72.001l12.873-.107c14.775-.019 30.989.346 47.542.829v-83.781z" fill="#FABE97"/><path fill-rule="evenodd" clip-rule="evenodd" d="M502.468 339.761s43.561-44.434 41.244-69.86c-.829-9.143-4.522-14.775-9.759-17.488 23.348 20.534-18.148 63.555-31.485 87.348z" fill="#E77168"/><path fill-rule="evenodd" clip-rule="evenodd" d="M522.726 299.578s-21.633-11.29-26.155-21.878c32.735-39.466 55.009-8.339 26.155 21.878z" fill="#FACEB1"/><path fill-rule="evenodd" clip-rule="evenodd" d="M612.893 200.613c23.372 0 42.318 18.945 42.318 42.318 0 23.372-18.946 42.317-42.318 42.317-23.372 0-42.318-18.945-42.318-42.317 0-23.373 18.946-42.318 42.318-42.318z" fill="#C5E0FB"/><path d="M644.755 214.02h-63.724c-1.585 0-2.87 1.321-2.87 2.951v51.907c0 1.63 1.285 2.951 2.87 2.951h63.724c1.585 0 2.87-1.321 2.87-2.951v-51.907c0-1.63-1.285-2.951-2.87-2.951z" fill="#15C"/><path fill-rule="evenodd" clip-rule="evenodd" d="M585.439 125.19a3.397 3.397 0 110 6.794 3.397 3.397 0 010-6.794zm10.769 2.022H642.3c.383.001.749.154 1.019.425.271.27.424.637.425 1.019a1.447 1.447 0 01-1.444 1.444h-46.092a1.448 1.448 0 01-1.444-1.444 1.45 1.45 0 011.444-1.444z" fill="#fff"/><path fill-rule="evenodd" clip-rule="evenodd" d="M696.329 279.71s6.575 2.87 13.325 12.383c0 0-2.845-11.002-13.325-12.383zm3.874-4.873s6.575 2.87 13.326 12.383c0 0-2.839-11.002-13.326-12.383zm3.875-4.867s6.575 2.87 13.325 12.383c0 0-2.838-11.001-13.325-12.383zm-222.891 35.8s6.574 2.869 13.325 12.383c0 0-2.839-11.002-13.325-12.383zm3.874-4.873s6.575 2.87 13.319 12.383c0 0-2.838-11.002-13.319-12.383zm3.874-4.867s6.575 2.87 13.326 12.383c0 0-2.839-11.001-13.326-12.383zm219.997 25.181s6.575 2.87 13.325 12.383c0 0-2.838-11.001-13.325-12.383zm3.868-4.867s6.575 2.87 13.325 12.384c0 0-2.838-11.002-13.325-12.384zm3.875-4.872s6.574 2.869 13.318 12.383c0 0-2.838-11.002-13.318-12.383zm-1.978 54.769s6.574 2.87 13.325 12.384c0 0-2.839-11.002-13.325-12.384zm3.874-4.872s6.575 2.869 13.325 12.383c0 0-2.838-11.002-13.325-12.383zm3.868-4.867s6.575 2.87 13.325 12.383c0 0-2.838-11.002-13.325-12.383z" fill="#E77168"/><path fill-rule="evenodd" clip-rule="evenodd" d="M136.492 391.473h16.76v41.564l-16.76-.616v-40.948zm276.556 0h16.76v31.567l-16.76.452v-32.019z" fill="#15C"/><path fill-rule="evenodd" clip-rule="evenodd" d="M82.99 194.717c23.065 0 41.759 18.694 41.759 41.758 0 23.065-18.694 41.759-41.759 41.759s-41.759-18.694-41.759-41.759c0-23.064 18.694-41.758 41.76-41.758z" fill="#12BD61"/><path fill-rule="evenodd" clip-rule="evenodd" d="M59.197 235.339a4.347 4.347 0 016.135 0l9.4 9.4 25.929-25.928a4.347 4.347 0 016.135 0c1.689 1.689 1.689 4.446 0 6.129l-29.194 29.193c-1.689 1.69-4.446 1.69-6.129 0-4.062-4.062-8.119-8.521-12.264-12.665a4.348 4.348 0 010-6.136l-.012.007z" fill="#fff"/><path fill-rule="evenodd" clip-rule="evenodd" d="M423.051 259.54l-146.533-.283-.263 86.3 146.538.282.258-86.299z" fill="#FC0"/><path fill-rule="evenodd" clip-rule="evenodd" d="M329.461 262.761h-.528l.283 82.388 89.307.169c-82.82-1.432-89.062-82.557-89.062-82.557z" fill="#FFA411"/><path fill-rule="evenodd" clip-rule="evenodd" d="M329.492 259.358l-52.974-.101-.263 86.3 52.98.106.257-86.305z" fill="#FFA411"/><path fill-rule="evenodd" clip-rule="evenodd" d="M384.068 259.465l-14.192-.025-.082 25.84 14.198.025.076-25.84zm-81.063-.157l-5.896-.013-.082 26.123 5.897.012.081-26.122z" fill="#fff"/><path fill-rule="evenodd" clip-rule="evenodd" d="M329.492 259.358l-33.708-33.709h-52.968l33.702 33.608 52.974.101z" fill="#FFA411"/><path fill-rule="evenodd" clip-rule="evenodd" d="M297.109 259.295l-32.478-33.646h5.997l32.377 33.659-5.896-.013z" fill="#fff"/><path fill-rule="evenodd" clip-rule="evenodd" d="M423.051 259.54l25.187-36.591h-32.942l-27.166 36.522 34.921.069z" fill="#FC0"/><path fill-rule="evenodd" clip-rule="evenodd" d="M423.051 259.54l4.119-5.984c-14.066 2.248-23.988-2.318-29.802-6.5l-9.238 12.415 34.921.069z" fill="#FFA411"/><path fill-rule="evenodd" clip-rule="evenodd" d="M161.566 165.875h308.638v7.805H161.566v-7.805z" fill="#C5E0FB"/><path fill-rule="evenodd" clip-rule="evenodd" d="M295.828 110.822h67.021v55.775h-67.021v-55.775z" fill="#AFD4FA"/><path fill-rule="evenodd" clip-rule="evenodd" d="M305.009 110.822h67.027v55.775h-67.027v-55.775z" fill="#C5E0FB"/><path fill-rule="evenodd" clip-rule="evenodd" d="M332.557 110.822h11.931v16.528h-11.931v-16.528zm0 55.775h12.396v-14.688h-12.396v14.688z" fill="#fff" fill-opacity=".341"/><path fill-rule="evenodd" clip-rule="evenodd" d="M369.292 110.822h67.021v55.775h-67.021v-55.775z" fill="#AFD4FA"/><path fill-rule="evenodd" clip-rule="evenodd" d="M378.473 110.822h67.021v55.775h-67.021v-55.775z" fill="#C5E0FB"/><path fill-rule="evenodd" clip-rule="evenodd" d="M406.014 110.822h11.938v16.528h-11.938v-16.528zm0 55.775h12.396v-14.688h-12.396v14.688z" fill="#fff" fill-opacity=".341"/><path fill-rule="evenodd" clip-rule="evenodd" d="M606.708 214.02h12.37v17.13h-12.37v-17.13zm0 57.809h12.848v-15.222h-12.848v15.222z" fill="#FC0"/><path fill-rule="evenodd" clip-rule="evenodd" d="M191.217 110.822h67.022v55.775h-67.022v-55.775z" fill="#AFD4FA"/><path fill-rule="evenodd" clip-rule="evenodd" d="M200.398 110.822h67.021v55.775h-67.021v-55.775z" fill="#C5E0FB"/><path fill-rule="evenodd" clip-rule="evenodd" d="M227.946 110.822h11.931v16.528h-11.931v-16.528zm0 55.775h12.39v-14.688h-12.39v14.688z" fill="#fff" fill-opacity=".341"/><path fill-rule="evenodd" clip-rule="evenodd" d="M278.283 299.227c12.81 0 23.19 10.38 23.19 23.19s-10.38 23.19-23.19 23.19-23.19-10.38-23.19-23.19 10.38-23.19 23.19-23.19zm0 13.94a9.25 9.25 0 110 18.499c-5.105 0-9.25-4.138-9.25-9.249 0-5.105 4.138-9.25 9.25-9.25z" fill="#0E48AD"/><path fill-rule="evenodd" clip-rule="evenodd" d="M280.091 299.296c11.963.923 21.382 10.92 21.382 23.121 0 12.201-9.419 22.198-21.382 23.121-11.962-.923-21.381-10.92-21.381-23.121 0-12.201 9.419-22.198 21.381-23.121zm1.809 13.871a9.25 9.25 0 110 18.499 9.471 9.471 0 01-1.809-.175 9.453 9.453 0 01-1.808.175c-5.105 0-9.25-4.138-9.25-9.249 0-5.105 4.138-9.25 9.25-9.25.607.001 1.213.06 1.808.176a9.553 9.553 0 011.809-.176z" fill="#15C"/><path fill-rule="evenodd" clip-rule="evenodd" d="M587.901 315.647h1.639c.514 0 .916-.138 1.218-.414.301-.276.452-.647.452-1.105 0-.471-.151-.848-.446-1.124-.295-.277-.703-.415-1.224-.415h-1.639v3.058zm1.896 1.79h-1.915v4.019h-2.079v-10.675h3.994c1.042 0 1.89.314 2.537.935.647.622.973 1.42.973 2.393 0 .973-.326 1.771-.973 2.392-.647.622-1.495.936-2.537.936zm7.196 4.019h-2.11v-10.675h2.11v10.675zm7.272.226c-1.538 0-2.832-.509-3.887-1.538-1.055-1.024-1.582-2.368-1.582-4.019 0-1.646.533-2.989 1.601-4.019 1.067-1.036 2.348-1.551 3.83-1.551 1.363 0 2.462.345 3.291 1.042.829.691 1.362 1.526 1.601 2.499l-1.959.616a2.89 2.89 0 00-.948-1.526c-.484-.415-1.143-.628-1.991-.628-.873 0-1.639.314-2.298.936-.66.621-.986 1.5-.986 2.637 0 1.086.326 1.94.973 2.575a3.218 3.218 0 002.342.948c.836 0 1.501-.214 1.997-.647.496-.433.829-.942.999-1.539l1.94.584a4.905 4.905 0 01-.534 1.269 5.458 5.458 0 01-.954 1.162c-.389.364-.886.653-1.482.873a5.66 5.66 0 01-1.966.332l.013-.006zm13.181-.226l-3.102-4.427-1.325 1.463v2.964h-2.079v-10.675h2.079v4.835l4.276-4.835h2.725l-4.232 4.653 4.264 6.022h-2.606zm7.893.239c-1.187 0-2.166-.352-2.939-1.062-.772-.709-1.161-1.695-1.161-2.957v-6.895h2.078v6.744c0 .691.176 1.225.534 1.589.358.364.854.552 1.482.552.64 0 1.143-.182 1.501-.552.357-.364.533-.898.533-1.589v-6.744h2.079v6.895c0 1.262-.389 2.254-1.162 2.957-.772.71-1.758 1.062-2.951 1.062h.006zm8.54-6.054h1.639c.515 0 .917-.138 1.218-.414.302-.277.452-.647.452-1.105 0-.471-.15-.848-.445-1.125-.296-.276-.704-.414-1.225-.414h-1.639v3.058zm1.897 1.79h-1.916v4.019h-2.078v-10.675h3.994c1.042 0 1.89.314 2.537.935.646.622.973 1.419.973 2.393 0 .973-.327 1.771-.973 2.392-.647.622-1.495.936-2.537.936z" fill="#fff"/><path fill-rule="evenodd" clip-rule="evenodd" d="M502.468 339.761s-18.945 29.928-19.523 35.868c-.578 5.935 19.774 26.613 19.774 26.613l-.245-62.481h-.006z" fill="#E77168"/><path d="M211.475 309.399h-61.231a2.619 2.619 0 00-2.619 2.619v19.328a2.619 2.619 0 002.619 2.619h61.231a2.62 2.62 0 002.619-2.619v-19.328a2.62 2.62 0 00-2.619-2.619z" fill="#fff"/><path d="M156.442 327.604h50.568m-50.568-11.128h50.568-50.568zm0 6.073h50.568-50.568z" stroke="#15C" stroke-width="1.331" stroke-miterlimit="2.613" stroke-linecap="round"/></g><defs><linearGradient id="paint0_linear" x1="-.001" y1="71047.9" x2="6915.56" y2="71047.9" gradientUnits="userSpaceOnUse"><stop stop-color="#12BD61"/><stop offset="1" stop-color="#1E9656"/></linearGradient><linearGradient id="paint1_linear" x1="4273.93" y1="64603.1" x2="10338.4" y2="66718.4" gradientUnits="userSpaceOnUse"><stop stop-color="#12BD61"/><stop offset="1" stop-color="#1E9656"/></linearGradient><linearGradient id="paint2_linear" x1="5041.78" y1="42063.8" x2="7279" y2="42616.7" gradientUnits="userSpaceOnUse"><stop stop-color="#12BD61"/><stop offset="1" stop-color="#1E9656"/></linearGradient><linearGradient id="paint3_linear" x1="1878.76" y1="49428.4" x2="3854.02" y2="49629.4" gradientUnits="userSpaceOnUse"><stop stop-color="#12BD61"/><stop offset="1" stop-color="#1E9656"/></linearGradient><linearGradient id="paint4_linear" x1="4143.07" y1="44822.9" x2="6686.8" y2="45215.3" gradientUnits="userSpaceOnUse"><stop stop-color="#12BD61"/><stop offset="1" stop-color="#1E9656"/></linearGradient><linearGradient id="paint5_linear" x1="80115.2" y1="47874.1" x2="73199.1" y2="47874.1" gradientUnits="userSpaceOnUse"><stop stop-color="#12BD61"/><stop offset="1" stop-color="#1E9656"/></linearGradient><linearGradient id="paint6_linear" x1="86657.1" y1="41141.7" x2="81766.9" y2="39406.8" gradientUnits="userSpaceOnUse"><stop stop-color="#12BD61"/><stop offset="1" stop-color="#1E9656"/></linearGradient><linearGradient id="paint7_linear" x1="106677" y1="55783.1" x2="97470.6" y2="54719.1" gradientUnits="userSpaceOnUse"><stop stop-color="#12BD61"/><stop offset="1" stop-color="#1E9656"/></linearGradient><clipPath id="clip0"><path fill="#fff" d="M0 0h792.192v433.44H0z"/></clipPath></defs></svg>