<svg xmlns="http://www.w3.org/2000/svg" width="170.2" height="145.8" fill-rule="evenodd" clip-rule="evenodd" image-rendering="optimizeQuality" shape-rendering="geometricPrecision" text-rendering="geometricPrecision" viewBox="0 0 774 663"><defs><style>.str0{stroke:#15c;stroke-width:18.18;stroke-linecap:round;stroke-linejoin:round;stroke-miterlimit:2.61313}.fil2{fill:none}.fil4{fill:#d4e4ff}.fil1{fill:#ffa230}.fil0{fill:#fc0}.fil3{fill:#fff}</style></defs><g id="Layer_x0020_1"><path d="M348 364v85a60 60 0 100 120v85H101c-20 0-37-17-37-38v-71a55 55 0 010-110v-71h85a57 57 0 01114 0h85z" class="fil0"/><path d="M348 569v85H101c-20 0-37-17-37-38v-71a55 55 0 01-25-104s18 157 309 128z" class="fil1"/><path d="M348 364v85a60 60 0 100 120v85H101c-20 0-37-17-37-38v-71a55 55 0 010-110v-71h85a57 57 0 01114 0h85z" class="fil2 str0"/><path d="M426 9h246c21 0 37 17 37 37v50a55 55 0 010 110v81h-81a60 60 0 01-120 0h-82v-79a60 60 0 100-120V9z" class="fil0 str0"/><path d="M717 205l-8 1 8-1zm-8 1v81h-81a60 60 0 11-120 0h-82v-79a60 60 0 0056-81c9 20 55 94 227 79zm-229-83z" class="fil1"/><path d="M709 364v252c0 21-16 38-37 38H426v-85h-2a60 60 0 112-120v-85h82a60 60 0 00120 0h81z" class="fil3 str0"/><path d="M709 567v49c0 21-16 38-37 38H426v-85h-2a60 60 0 01-36-108s61 146 321 106z" class="fil4"/><path d="M101 9h247v79h2a60 60 0 11-2 120v79h-85a57 57 0 10-114 0H64V46c0-20 17-37 37-37z" class="fil3"/><path d="M352 208a54 54 0 01-4 0h4zm-4 0v79h-85a57 57 0 10-114 0H64V80s24 132 284 128z" class="fil4"/><path d="M426 9h246c21 0 37 17 37 37v50a55 55 0 010 110v81h-81a60 60 0 01-120 0h-82v-79a60 60 0 100-120V9zm283 355v252c0 21-16 38-37 38H426v-85h-2a60 60 0 112-120v-85h82a60 60 0 00120 0h81zM101 9h247v79h2a60 60 0 11-2 120v79h-85a57 57 0 10-114 0H64V46c0-20 17-37 37-37z" class="fil2 str0"/></g></svg>