<svg xmlns="http://www.w3.org/2000/svg" width="153.6" height="151.7" fill-rule="evenodd" clip-rule="evenodd" image-rendering="optimizeQuality" shape-rendering="geometricPrecision" text-rendering="geometricPrecision" viewBox="0 0 2870 2835"><defs><style>.str1,.str2{stroke:#15c;stroke-width:74.73;stroke-linejoin:round;stroke-miterlimit:22.9256}.str1{stroke-miterlimit:2.61313}.fil2{fill:none}.fil1{fill:#d4e4ff}.fil3{fill:#fc0}.fil0{fill:#fff}</style></defs><g id="Layer_x0020_1"><circle class="fil0" cx="1413.6" cy="1413.6" r="1376.3" stroke="#15c" stroke-miterlimit="2.6" stroke-width="74.7"/><path d="M1829 1690a478 478 0 01-892-235v-157s157 656 892 392z" class="fil1"/><path d="M2738 1622A1340 1340 0 11221 813a1354 1354 0 002517 809z" class="fil1"/><path d="M845 1293c16 0 30 3 43 9 3 71 10 152 16 214-17 10-37 17-59 17-62 0-113-54-113-120s51-120 113-120zm1132 0a120 120 0 11-39 233c10-70 12-159 11-229 9-3 18-4 28-4z" class="fil0 str1"/><path d="M1414 469c285 0 518 234 518 519v461c0 285-233 518-518 518a520 520 0 01-519-518V988c0-285 233-519 519-519z" class="fil2 str1"/><path d="M895 1437c-88-141-219-774 13-784 0 0 12-205 319-242 307-38 624 131 724 67 0 0-2 58-33 81 0 0 98 48 118 259 21 210-54 478-104 572v-289s-515 132-745-204c0 0-14 169-292 194v346z" class="fil3 str2"/><path d="M349 2796s64-496 165-556c101-59 475-113 643-116l288 244 201-244s397 10 512 64 113 123 170 256 79 350 79 350-575 91-2058 2z" class="fil0"/><path fill="#ffa230" d="M924 1415c-84-133-207-730 12-740 0 0 308 422 1068 261-7 175-62 361-101 435v-273s-487 124-703-193c0 0-14 160-276 183v327z"/><path d="M895 1435c-88-142-219-774 13-785 0 0 12-204 319-242 307-37 624 132 724 67 0 0-2 58-33 81 0 0 98 48 118 259 21 211-54 479-104 573v-289s-515 131-745-205c0 0-14 169-292 194v347z" class="fil2 str2"/><path d="M1646 2124h63l52 2-78 346-262-115 225-233zm-578 3c19-2 40-3 60-3h58l237 235-265 127-90-359z" class="fil1 str1"/><path d="M1646 2124c328 38 583-14 657 229 44 148 100 282 100 282m-1287-511c-328 38-594-14-667 229-45 148-90 375-90 375" class="fil2" stroke-linecap="round" stroke-miterlimit="2.613" stroke="#15c" stroke-width="74.73"/><path d="M2403 1965l129 274 300 38-220 207 56 297-265-146-265 146 57-297-220-207 300-38z" class="fil3 str1"/><path class="fil2" stroke="#d4e4ff" stroke-linecap="round" stroke-miterlimit="2.6" stroke-width="74.7" d="M2493 1611A1102 1102 0 001060 276M743 453c-107 85-199 192-270 317"/></g></svg>