<svg xmlns="http://www.w3.org/2000/svg" width="197.1" height="132.5" fill-rule="evenodd" clip-rule="evenodd" image-rendering="optimizeQuality" shape-rendering="geometricPrecision" text-rendering="geometricPrecision" viewBox="0 0 457.8 307.8"><defs><style>.str0,.str1,.str3{stroke:#15c;stroke-width:9.29;stroke-miterlimit:2.61313}.str0,.str3{stroke-linejoin:round}.str3{stroke-linecap:round}.fil2{fill:none}.fil4{fill:#d4e4ff}.fil3{fill:#fff}</style></defs><g id="Layer_x0020_1"><path fill="#fc0" d="M186.1 91.2h180.3a52.3 52.3 0 0152.2 52v72.2a52.3 52.3 0 01-52.2 52.1H363c.4 9.3 2.1 34-10 34.4-12 .4-50.2-34.3-50.2-34.3H186a52.3 52.3 0 01-52-52.2v-72.1A52.3 52.3 0 01186 91z"/><path fill="#ffa230" d="M418.6 194.6v20.8a52.3 52.3 0 01-52.2 52.1H363c.4 9.3 2.1 34-10 34.4-12 .4-50.2-34.3-50.2-34.3H186c-22.2 0-37.8-6.5-45.2-26.3 230.1 19.9 249.3-25 277.7-46.7z"/><path d="M186.1 91.2h180.3a52.3 52.3 0 0152.2 52v72.2a52.3 52.3 0 01-52.2 52.1H363c.4 9.3 2.1 34-10 34.4-12 .4-50.2-34.3-50.2-34.3H186a52.3 52.3 0 01-52-52.2v-72.1A52.3 52.3 0 01186 91z" class="fil2 str0"/><circle cx="280.8" cy="182.4" r="12.4" class="fil2 str1"/><circle cx="329.9" cy="182.4" r="12.4" class="fil2 str1"/><path d="M145.7 86.5l161-.6v42.6c0 70.6-71.1 70.5-71.1 70.5H129.3c.4-35.2-10.4-112.4 16.4-112.5z" class="fil3"/><path d="M237.3 4.9H57a53.8 53.8 0 00-52.1 52v72.3a52.3 52.3 0 0052 52h3.7c-.5 9.3-2.2 34 9.9 34.4 12 .5 50.3-34.3 50.3-34.3h116.5a52.3 52.3 0 0052.1-52.1V57a52.3 52.3 0 00-52.1-52.1z" class="fil3 str0"/><path d="M9.3 71.3v55.4c0 31 18.4 50.5 50.5 50.5h3.4c-.4 9-3.2 35.5 7.5 34.4 10.7-1.2 48.8-34.7 48.8-34.7l115 .3a50.6 50.6 0 0050.5-50.5C16.8 156.3 9.3 71.3 9.3 71.3z" class="fil4"/><path class="fil2" id="_1961467640000" stroke="#fefefe" stroke-linejoin="round" stroke-miterlimit="2.6" stroke-width="9.3" d="M120.9 181.5c-8.6 7.8-39.7 34.7-50.4 34.4-12.4-.5-10.6-26-10.2-34.4H57a52.5 52.5 0 01-52.4-52.3V57A54 54 0 0157 4.7h180.3A52.5 52.5 0 01289.6 57v72.2a52.5 52.5 0 01-52.3 52.3H120.9z"/><path d="M237.3 4.9H57a53.8 53.8 0 00-52.1 52v72.3a52.3 52.3 0 0052 52h3.7c-.5 9.3-2.2 34 9.9 34.4 12 .5 50.3-34.3 50.3-34.3h116.5a52.3 52.3 0 0052.1-52.1V57a52.3 52.3 0 00-52.1-52.1z" class="fil2 str0"/><g id="_1961467661696"><circle cx="94" cy="89.3" r="12.4" class="fil2 str1"/><circle cx="145.7" cy="89.3" r="12.4" class="fil2 str1"/><circle cx="194.8" cy="89.3" r="12.4" class="fil2 str1"/></g><circle cx="388.8" cy="85.9" r="64.4" class="fil3 str1"/><path d="M365.2 88.3l18.2 19.6 33.8-45" class="fil2 str3"/><path d="M446.8 101.5a61.6 61.6 0 01-111-44.2 60.2 60.2 0 10111 44.2z" class="fil4"/><path class="fil2" stroke="#15c" stroke-linecap="round" stroke-miterlimit="2.6" stroke-width="9.3" d="M23.6 215.8a81.4 81.4 0 00126.6 73"/><path d="M9.4 219.5l15.2-11.1 11.7 11.7m102.5 61.2l16.6 4.2-3.3 17.6" class="fil2 str3"/></g></svg>