<svg width="634" height="106" xmlns="http://www.w3.org/2000/svg"><g fill="none" fill-rule="evenodd"><g fill="#000" fill-rule="nonzero"><path d="M478.11 82.17c10.79 9.18 27 4.43 32.86-9.27 6.11-14.29 4.16-33.51-11.13-40.99-10.18-4.98-37.38-1.68-37.77 1.9v68.52h16.04V82.17zm0-13.39V44.97c5.63-2.8 13.07-2.11 16.95 1.36 5.37 4.81 4.7 16.1.8 21.7-3.52 5.06-13.57 6.37-17.75.75zm-342.53 16.9c32.28 3.76 45.53.07 49.99-16.03 5.18-18.68-5.28-48.06-34.99-34.51V16.91h-15v68.77zm15-38.01c11.48-7.84 22.21 2.06 21.88 11.99-.54 16.36-21.1 14.7-21.88 11.98V47.67zm138.99 11.28l20.21-26.84h-16.65l-15.76 21.84c-.28.38-.75.54-1.2.39-.45-.15-.74-.55-.74-1.02l-.01-36.4h-15.66l-.01 70.47h15.67V66.58c0-.47.29-.87.74-1.02.45-.15.92 0 1.2.38L293.4 87.4h17.31l-21.12-27.13c-.31-.4-.32-.93-.02-1.32z"/><path d="M346.52 59.53L346.48 70c-.02 2.36-5.8 6.14-12.36 4.25-9.29-2.68-6.54-17.48 12.4-14.72zm17.63 26.17l1.81-9.37c-3.01-.95-5.54-2.38-5.43-6.06.58-19.28 3.47-29.07-6.61-35.94-5.94-4.05-16.05-5.12-35.66-.81l3.18 10.71c5.13-.6 25.88-5.87 25.7 5.31-9.7-.28-20.01.06-28.34 6.21-9.59 7.09-8.08 22.3.86 28.58 6.05 4.25 18.34 4.68 27.3-3.53 4.87 6.13 12.74 7.01 17.19 4.9zm-113.63-9.64c-3.73-.68-4.77-1.81-4.77-5.69l.01-38.25h-14.91v35.16c0 4.45-4.59 6.88-8.77 6.95-5.33.08-10.54-3.46-10.56-9.18V32.13h-14.75v37.25c.75 13.8 14.51 24.71 34.89 12.33 4.97 5.54 11.24 5.24 17.09 4.38l1.77-10.03zm124.56-59.28h15.39V87.2h-15.39zm58.69 42.75L433.73 70c-.02 2.36-5.8 6.14-12.36 4.25-9.29-2.68-6.54-17.48 12.4-14.72zM451.4 85.7l1.81-9.37c-3.01-.95-5.54-2.38-5.43-6.06.58-19.28 3.47-29.07-6.61-35.94-5.94-4.05-16.05-5.12-35.66-.81l3.18 10.71c5.13-.6 25.88-5.87 25.7 5.31-9.7-.28-20.01.06-28.34 6.21-9.59 7.09-8.08 22.3.86 28.58 6.05 4.25 18.34 4.68 27.3-3.53 4.87 6.13 12.74 7.01 17.19 4.9zm102.4-26.17L553.76 70c-.02 2.36-5.8 6.14-12.36 4.25-9.3-2.68-6.55-17.48 12.4-14.72zm17.63 26.17l1.81-9.37c-3.01-.95-5.54-2.38-5.43-6.06.58-19.28 3.47-29.07-6.61-35.94-5.94-4.05-16.05-5.12-35.66-.81l3.18 10.71c5.13-.6 25.88-5.87 25.7 5.31-9.7-.28-20.01.06-28.34 6.21-9.59 7.09-8.08 22.3.86 28.58 6.05 4.25 18.34 4.68 27.3-3.53 4.87 6.13 12.74 7.01 17.19 4.9zM612 58.95l20.21-26.84h-16.65L599.8 53.95c-.28.38-.75.54-1.2.39-.45-.15-.74-.55-.74-1.02l-.01-36.4h-15.66l-.01 70.47h15.67V66.58c0-.47.29-.87.74-1.02.45-.15.92 0 1.2.38l16.04 21.46h17.31l-21.12-27.13c-.31-.4-.31-.93-.02-1.32z"/></g><g transform="translate(.552 .268)" fill="#E3014D"><path d="M5.428 5.722l16.02-5.3c2.2-.73 4.36-.51 6.38.63 2.01 1.14 3.31 2.89 3.81 5.15l11.18 50.18a7.857 7.857 0 01-5.12 9.17l-6.53 2.26a7.872 7.872 0 01-9.81-4.29L.688 16.382c-.92-2.11-.92-4.28.02-6.38.93-2.1 2.53-3.56 4.72-4.28z"/><circle transform="rotate(-21.058 41.053 88.344)" cx="41.053" cy="88.344" r="13.3"/><path d="M68.538 66.472c-.21.12-2.14.94-4.18 1.74-3.58 1.41-5.21 5.59-3.8 9.17l2.87 7.27c.74 1.89 2.07 3.24 3.93 4.03 1.87.79 3.59.54 5.49-.17 15.76-5.82 25.91-19.66 24.47-36.83-1.48-17.66-14.58-30.63-30.5-33.22-5.71-.93-10.39-.55-15.78.44-1.19.22-3.08.77-3.74 1.78-.66 1.01-.84 2.13-.53 3.3l3.75 14.02c.52 1.95 2.49 3.22 4.44 2.73 3.03-.75 5.71-.78 7.67-.63 7.39.55 12.17 6.69 12.72 12.91.57 6.23-1.56 10.21-6.81 13.46z"/></g></g></svg>