<svg xmlns="http://www.w3.org/2000/svg" width="564" height="123" viewBox="0 0 564 123"><g fill="#ED3237" fill-rule="evenodd"><path d="M218 32.29h48.11L242.434 117h33.298l23.675-84.71h38.847l8.943-10.086h-31.461l4.153-4.704h31.54l4.472-5.023h-32.299l4.152-6.657h34.056L367 0H232.812zM90.636 117H0l13.907-22.509 52.133.318L89.762 0H120L95.801 94.809z"/><path d="M235 117.656h-29.858l-5.125-5.687c-14.243 8.51-31.27 12.827-48.217 10.326-20.86-4.114-33.409-16.78-31.634-37.471 2.785-14.44 9.12-26.5 18.48-36.503-10.45-20.934-6.617-35.293.081-48.321h72.185l-12.065 27.508c-9.36-18.876-38.977-14.117-37.807 11.133l35.346 39.084c3.026-3.71 6.093-12.181 9.119-21.78l22.192 11.05c-3.35 10.165-7.182 20.29-12.428 28.76l.081.08L235 117.656zm-52.615-25.33L155.028 63.89c-28.406 20.57.404 54.13 27.357 28.436zm166.958-19.26c0 .159 0 .397-.04.754-.04.318-.08.715-.16 1.152-.08.398-.16.835-.28 1.311-.12.477-.24.874-.44 1.271-.16.358-.36.676-.6.954-.24.238-.52.357-.8.357H331.06l-2.2 10.845h13.561c.32 0 .56.119.68.318.16.238.24.556.24.953 0 .199-.04.437-.04.755-.04.318-.12.715-.2 1.152-.04.397-.12.834-.24 1.27-.12.438-.28.835-.44 1.193-.16.357-.4.675-.6.913-.24.199-.48.318-.76.318h-13.561l-2.52 12.513h16.161c.28 0 .52.12.64.397.12.199.2.556.2 1.033 0 .159 0 .397-.04.755 0 .357-.08.755-.16 1.152-.08.437-.16.874-.28 1.31-.12.438-.24.835-.44 1.232-.16.358-.36.675-.6.914-.24.198-.48.318-.76.318H317.18c-.36 0-.68-.04-1-.16-.32-.079-.56-.277-.72-.516-.2-.238-.36-.516-.4-.874-.08-.357-.08-.794 0-1.31l7.8-38.731c.2-.993.64-1.748 1.28-2.185.6-.437 1.32-.675 2.08-.675h22.243c.6 0 .88.437.88 1.31zm25.562 20.219l6.88 19.425c.24.834.4 1.47.44 1.986.04.477-.12.874-.44 1.112-.32.278-.84.437-1.56.517-.76.08-1.76.08-3.08.08-.96 0-1.68 0-2.24-.04-.56-.04-.96-.12-1.28-.239-.32-.12-.52-.238-.64-.437-.16-.159-.24-.397-.36-.675l-5.44-16.168-11.482 16.168c-.2.278-.4.516-.64.675-.2.199-.52.318-.92.437-.4.12-.96.199-1.6.238-.68.04-1.52.04-2.56.04-1.2 0-2.16 0-2.84-.08-.68-.079-1.16-.238-1.36-.476-.2-.238-.2-.636.04-1.112.2-.477.6-1.113 1.2-1.907l14.72-19.584-6.24-18.074c-.24-.794-.4-1.43-.44-1.946-.04-.477.12-.835.44-1.073.28-.278.8-.437 1.56-.477.72-.08 1.76-.119 3.04-.119.96 0 1.76.04 2.32.08.56.04 1 .119 1.32.238.32.12.561.278.681.477.16.198.28.476.36.794l4.76 14.5 10.481-14.699c.16-.238.36-.476.6-.675.2-.159.48-.318.84-.437.4-.08.88-.159 1.48-.198.6-.04 1.4-.08 2.4-.08 1.28 0 2.28.04 3 .12.72.039 1.161.198 1.401.476.2.238.2.596 0 1.073-.2.516-.6 1.152-1.16 1.946l-13.681 18.114zm50.284-10.606c0 1.27-.16 2.622-.44 4.012-.28 1.39-.76 2.78-1.4 4.091a16.605 16.605 0 01-2.52 3.814c-1.04 1.192-2.28 2.264-3.76 3.217-1.48.914-3.241 1.669-5.201 2.185-1.96.556-4.24.795-6.88.795h-4.681l-2.88 14.22c-.04.24-.16.438-.32.636-.2.16-.48.318-.88.437-.4.12-.88.199-1.48.239-.6.08-1.36.08-2.2.08-.88 0-1.56 0-2.16-.08-.561-.04-1.001-.12-1.321-.239-.32-.119-.52-.278-.64-.437a.693.693 0 01-.08-.635l8.08-40.002c.2-1.072.64-1.907 1.36-2.423.68-.556 1.52-.834 2.52-.834h9.802c1.2 0 2.28.04 3.2.119.96.08 1.88.238 2.8.397 1.4.278 2.68.715 3.8 1.271a11.09 11.09 0 012.84 2.145c.8.874 1.4 1.867 1.8 3.06.4 1.151.64 2.462.64 3.932zm-9.56.993c0-1.073-.28-2.026-.801-2.86-.52-.795-1.36-1.35-2.44-1.669a7.057 7.057 0 00-1.64-.317c-.6-.08-1.28-.08-2-.08h-4l-3.041 15.095h4.16c1.32 0 2.44-.159 3.36-.477.96-.278 1.76-.715 2.48-1.191a7.662 7.662 0 001.8-1.788c.521-.715.921-1.43 1.241-2.185.28-.754.52-1.51.64-2.304.16-.754.24-1.51.24-2.224zm47.803-2.225c0 1.51-.2 2.94-.6 4.37-.4 1.47-1.04 2.82-1.92 4.091-.88 1.311-2.04 2.463-3.4 3.496-1.4 1.033-3.12 1.867-5.121 2.463 1.12.437 2.04 1.31 2.8 2.582.76 1.31 1.4 3.059 1.88 5.323l1.72 9.017c.12.517.2.954.28 1.35.08.398.12.756.12 1.034 0 .198-.08.397-.24.556-.16.159-.4.278-.84.397-.4.12-.92.199-1.6.238-.68.04-1.56.04-2.6.04-.96 0-1.76 0-2.32-.08-.56-.039-1.04-.118-1.36-.277-.32-.12-.52-.278-.6-.477a1.89 1.89 0 01-.24-.715l-1.72-9.852a14.481 14.481 0 00-.76-3.019 6.744 6.744 0 00-1.2-2.184 4.359 4.359 0 00-1.76-1.311c-.72-.278-1.56-.437-2.56-.437h-2.881l-3.4 16.962c0 .238-.12.437-.32.635-.2.16-.48.318-.84.437-.4.12-.88.199-1.48.239-.6.08-1.36.08-2.24.08-.88 0-1.56 0-2.12-.08-.601-.04-1.041-.12-1.361-.239-.32-.119-.52-.278-.64-.437a.693.693 0 01-.08-.635l8.16-40.4c.2-.992.6-1.747 1.2-2.184a3.92 3.92 0 012.24-.675h12.002c2.12 0 4 .198 5.72.596 1.68.397 3.12.993 4.32 1.787a8.09 8.09 0 012.8 3.02c.64 1.23.96 2.66.96 4.29zm-9.76 1.708c0-.635-.12-1.231-.36-1.787-.2-.556-.56-1.033-1.041-1.47-.48-.397-1.12-.675-1.88-.914-.8-.238-1.72-.317-2.8-.317h-5.16l-2.561 12.632h4.36c1.72 0 3.2-.239 4.4-.715 1.2-.517 2.16-1.152 2.921-1.947.72-.754 1.28-1.628 1.6-2.582.36-.953.52-1.906.52-2.9zm46.803-10.09c0 .16 0 .398-.04.755-.04.318-.12.715-.16 1.152-.08.398-.16.835-.28 1.311-.12.477-.28.874-.44 1.271-.16.358-.4.676-.64.954-.24.238-.48.357-.76.357h-15.962l-2.2 10.845h13.561c.32 0 .56.119.68.318.16.238.2.556.2.953 0 .199 0 .437-.04.755s-.08.715-.16 1.152c-.04.397-.16.834-.28 1.27-.12.438-.24.835-.44 1.193-.16.357-.36.675-.6.913-.24.199-.48.318-.76.318h-13.56l-2.521 12.513h16.201c.28 0 .48.12.6.397.16.199.24.556.24 1.033 0 .159-.04.397-.04.755-.04.357-.08.755-.16 1.152-.08.437-.16.874-.28 1.31-.12.438-.28.835-.44 1.232a3.03 3.03 0 01-.6.914c-.24.198-.48.318-.8.318h-22.482c-.36 0-.72-.04-1-.16-.32-.079-.56-.277-.76-.516-.2-.238-.32-.516-.4-.874-.08-.357-.04-.794.04-1.31l7.8-38.731c.2-.993.6-1.748 1.24-2.185a3.73 3.73 0 012.121-.675h22.202c.6 0 .92.437.92 1.31zm30.602 2.106c0 .199-.04.477-.08.834-.04.318-.08.715-.16 1.112-.04.398-.16.835-.24 1.272-.12.397-.24.794-.4 1.152-.16.357-.32.635-.52.874-.2.238-.4.357-.6.357-.32 0-.72-.159-1.2-.437s-1.08-.596-1.8-.953a19.32 19.32 0 00-2.48-.914c-.92-.318-2-.437-3.2-.437-1.24 0-2.28.159-3.16.516-.84.318-1.56.795-2.12 1.351a4.826 4.826 0 00-1.201 1.907c-.28.675-.4 1.39-.4 2.105 0 .795.2 1.55.6 2.185a7.66 7.66 0 001.68 1.748 24.18 24.18 0 002.36 1.55c.88.515 1.8 1.032 2.72 1.588.88.516 1.8 1.152 2.68 1.788.88.675 1.68 1.39 2.4 2.264.681.874 1.241 1.827 1.641 2.94.4 1.112.64 2.423.64 3.853 0 2.145-.44 4.13-1.32 5.998-.88 1.827-2.12 3.416-3.72 4.806-1.64 1.351-3.56 2.424-5.84 3.178-2.28.795-4.801 1.192-7.561 1.192-1.52 0-2.88-.12-4.16-.397-1.24-.199-2.4-.517-3.361-.874-.96-.318-1.8-.675-2.44-1.073-.68-.397-1.2-.754-1.52-1.072-.32-.358-.48-.874-.48-1.55 0-.198.04-.476.08-.834.04-.397.12-.794.2-1.191.08-.437.16-.874.28-1.311.12-.437.24-.874.4-1.232.16-.357.36-.675.56-.913.2-.199.4-.318.6-.318.4 0 .88.159 1.4.516.56.358 1.24.755 2.04 1.192.8.397 1.76.834 2.88 1.192 1.08.357 2.4.556 3.96.556 1.36 0 2.56-.199 3.601-.517 1.04-.357 1.88-.834 2.56-1.43a5.676 5.676 0 001.6-2.065c.36-.755.52-1.629.52-2.543 0-.873-.2-1.628-.6-2.224-.44-.675-.96-1.232-1.64-1.788-.68-.556-1.48-1.072-2.32-1.549-.88-.477-1.76-.953-2.64-1.51-.92-.556-1.8-1.151-2.64-1.787a11.35 11.35 0 01-2.32-2.264 10.227 10.227 0 01-1.64-2.98c-.44-1.112-.64-2.423-.64-3.892 0-2.066.4-3.973 1.24-5.72.84-1.709 2-3.218 3.44-4.45 1.48-1.27 3.24-2.224 5.28-2.94 2.04-.674 4.32-1.032 6.76-1.032 1.16 0 2.28.08 3.32.238 1.04.199 2.001.398 2.841.676.84.238 1.6.556 2.2.874.6.317 1 .595 1.24.794.24.238.4.477.52.675.08.278.16.556.16.914zm32.923 0c0 .199 0 .477-.04.834-.04.318-.08.715-.16 1.112-.08.398-.16.835-.28 1.272-.08.397-.24.794-.36 1.152-.16.357-.36.635-.52.874-.2.238-.4.357-.6.357-.32 0-.72-.159-1.24-.437-.48-.278-1.08-.596-1.76-.953a19.32 19.32 0 00-2.48-.914c-.96-.318-2-.437-3.2-.437-1.241 0-2.321.159-3.161.516-.88.318-1.56.795-2.12 1.351a5.426 5.426 0 00-1.24 1.907c-.24.675-.4 1.39-.4 2.105 0 .795.24 1.55.64 2.185.4.636.96 1.192 1.68 1.748a24.18 24.18 0 002.36 1.55c.88.515 1.8 1.032 2.68 1.588.92.516 1.84 1.152 2.72 1.788.88.675 1.68 1.39 2.36 2.264a9.72 9.72 0 011.68 2.94c.4 1.112.64 2.423.64 3.853 0 2.145-.44 4.13-1.32 5.998-.88 1.827-2.12 3.416-3.72 4.806-1.64 1.351-3.56 2.424-5.84 3.178-2.28.795-4.8 1.192-7.6 1.192-1.48 0-2.84-.12-4.121-.397-1.28-.199-2.4-.517-3.36-.874-.96-.318-1.8-.675-2.48-1.073-.64-.397-1.16-.754-1.48-1.072-.32-.358-.48-.874-.48-1.55 0-.198.04-.476.08-.834.04-.397.12-.794.2-1.191.08-.437.16-.874.28-1.311.12-.437.24-.874.4-1.232.16-.357.36-.675.52-.913.2-.199.4-.318.64-.318.4 0 .84.159 1.4.516.56.358 1.2.755 2.04 1.192.8.397 1.76.834 2.88 1.192 1.08.357 2.4.556 3.96.556 1.36 0 2.56-.199 3.6-.517 1-.357 1.88-.834 2.56-1.43.72-.595 1.24-1.27 1.56-2.065.401-.755.561-1.629.561-2.543 0-.873-.2-1.628-.64-2.224-.4-.675-.92-1.232-1.64-1.788-.64-.556-1.44-1.072-2.28-1.549-.88-.477-1.76-.953-2.68-1.51a51.516 51.516 0 01-2.64-1.787c-.84-.636-1.64-1.39-2.281-2.264-.72-.874-1.24-1.827-1.64-2.98-.44-1.112-.64-2.423-.64-3.892 0-2.066.4-3.973 1.24-5.72.84-1.709 1.96-3.218 3.44-4.45 1.48-1.27 3.24-2.224 5.28-2.94 2.04-.674 4.321-1.032 6.761-1.032 1.16 0 2.28.08 3.32.238 1.04.199 1.96.398 2.84.676.84.238 1.6.556 2.2.874.6.317 1 .595 1.24.794.241.238.401.477.521.675.08.278.12.556.12.914z"/></g></svg>