<svg xmlns="http://www.w3.org/2000/svg" width="174" height="137" viewBox="0 0 174 137"><path fill="red" fill-rule="evenodd" d="M28.922 75.908l7.584-36.961-8.982-.103c-4.135.252-4.326-2.032-3.93-5.041l1.669-8.503c.465-3.257 2.697-3.581 5.973-3.559l22.91.159c3.437.001 6.323.462 4.602 7.64L46.644 83.412c-4.301 16.496-15.151 25.094-31.293 25.226H4.772c-2.518-.04-2.28-1.767-2.084-3.649L4.58 93.235c.432-2.358 1.186-3.516 4.243-3.437h6.848c9.914-.34 10.948-3.384 13.251-13.89m51.024-53.862l-12.412.102c-3.109-.195-3.996 1.449-3.106 5.301l7.257 36.563-21.526 40.562c-1.728 2.966.178 3.763 2.207 3.662h12.611c1.57.003 3.001-.351 4.161-2.889l20.907-41.814-6.393-36.939c-.516-3.406-.844-4.541-3.706-4.548m25.657 86.367l12.412-.102c3.109.195 3.996-1.448 3.106-5.301l-10.21-39.916 20.09-37.857c1.728-2.966-.179-3.763-2.207-3.662h-12.612c-1.569-.003-3.001.351-4.16 2.889L92.55 63.574l9.347 40.29c.517 3.407.845 4.542 3.706 4.549m30.01-104.9L172.066.325 141.01 18.65l-18.817-8.625c-.884-.397-1.183-1.605.225-2.256l4.5-2.216c3.627-1.786 4.67-1.688 8.695-2.04zm17.228 28.896l20.356-30.408-31.02 18.386-1.508 20.645c-.078.965.836 1.809 2.086.89l4.109-2.877c3.313-2.316 3.729-3.278 5.977-6.636zM10.07 116.227c-.061.28-.143.565-.265.826-.107.23-.256.434-.455.594a1.674 1.674 0 01-.695.323c-.304.07-.632.087-.943.087-.294 0-.616-.015-.902-.088-.236-.06-.46-.165-.613-.349-.163-.181-.235-.41-.255-.65-.021-.277.015-.57.069-.849.061-.271.14-.552.256-.805a1.58 1.58 0 01.467-.6c.208-.162.448-.269.7-.327.3-.076.627-.097.935-.097.301 0 .619.021.911.097.236.061.462.174.621.362.158.185.228.41.242.65.017.271-.019.555-.073.826zm-3.322 15.407a10 10 0 01-.561 1.911c-.223.529-.516 1.027-.911 1.446-.377.4-.827.702-1.338.903-.568.223-1.187.301-1.794.301-.353 0-.725-.02-1.07-.1-.18-.041-.473-.112-.614-.236l-.019-.017-.015-.02a.724.724 0 01-.123-.239 1.216 1.216 0 01-.035-.329c0-.097.008-.196.018-.293.015-.136.036-.272.057-.413.027-.16.063-.318.106-.473a4.31 4.31 0 01.144-.447c.051-.125.114-.248.202-.368a.51.51 0 01.392-.206c.061 0 .123.005.183.017.033.007.068.014.102.018.059.006.117.01.176.017.07.01.144.011.214.011.159 0 .317-.025.461-.08a.9.9 0 00.351-.249c.126-.144.222-.33.295-.506.112-.266.182-.567.235-.853l2.3-11.536a.624.624 0 01.18-.336.887.887 0 01.373-.221c.173-.064.369-.097.551-.119.257-.032.521-.04.78-.04.257 0 .521.007.776.04.172.022.364.054.52.12.141.053.272.136.342.268a.546.546 0 01.051.382l-2.329 11.647zm9.958-7.192a3.427 3.427 0 01-.093.733 4.108 4.108 0 01-.317.95 1.352 1.352 0 01-.288.395.69.69 0 01-.47.186H10.4c-.203 0-.395-.061-.508-.231-.119-.161-.138-.389-.138-.583a4.474 4.474 0 01.072-.755c.032-.16.074-.318.125-.473.052-.158.11-.313.186-.456.071-.147.166-.278.299-.393a.751.751 0 01.469-.161h5.139c.212 0 .411.07.528.25.106.156.134.354.134.538zm4.441 2.061a6.582 6.582 0 00-.064.839c0 .475.09.995.442 1.342.371.366.995.439 1.49.439.472 0 .952-.027 1.417-.114a11.05 11.05 0 001.901-.515c.165-.061.38-.134.557-.134.158 0 .312.055.403.186a.714.714 0 01.108.416c0 .172-.017.346-.041.517-.026.19-.061.381-.109.56a2.907 2.907 0 01-.186.544c-.07.165-.164.32-.292.438-.161.161-.419.274-.626.35a6.815 6.815 0 01-.982.286 12.99 12.99 0 01-2.706.289c-.714 0-1.445-.065-2.134-.258-.571-.161-1.113-.416-1.566-.805a3.358 3.358 0 01-.957-1.395c-.233-.619-.311-1.297-.311-1.955 0-.609.061-1.219.159-1.819.107-.656.278-1.298.509-1.92a9.465 9.465 0 01.912-1.819 6.694 6.694 0 011.364-1.539 6.522 6.522 0 011.854-1.061c.762-.29 1.581-.402 2.394-.402.667 0 1.364.069 2.001.28.504.167.996.407 1.403.753.355.303.642.667.834 1.094.18.399.274.823.274 1.261 0 .607-.134 1.192-.43 1.724-.311.559-.787.987-1.328 1.318-.671.41-1.455.658-2.22.819-1.023.215-2.102.281-3.146.281h-.924zm16.118-1.202l1.936 5.41c.046.153.07.325.027.482-.051.185-.195.301-.363.379-.189.087-.426.122-.632.14a10.89 10.89 0 01-.956.031c-.272 0-.55-.003-.821-.026a2.803 2.803 0 01-.504-.083c-.138-.045-.269-.116-.339-.238a.772.772 0 01-.11-.265l-1.191-3.457-2.52 3.537c-.061.091-.13.173-.212.244-.11.096-.27.151-.416.185a4.49 4.49 0 01-.601.077c-.318.023-.642.026-.96.026a8.87 8.87 0 01-.879-.031c-.183-.018-.395-.054-.558-.142a.45.45 0 01-.255-.459c.021-.149.11-.307.202-.451l4.112-5.415-1.798-5.003a1.02 1.02 0 01-.06-.489c.033-.184.157-.314.318-.4.176-.093.41-.128.606-.146.314-.028.637-.03.953-.03.268 0 .543 0 .811.017.16.011.332.027.481.064a.577.577 0 01.36.214.95.95 0 01.122.268l1.135 3.263 2.385-3.33c.058-.078.122-.149.196-.213a.95.95 0 01.371-.179 3.57 3.57 0 01.516-.078 9.68 9.68 0 01.817-.026c.309 0 .623.003.932.026.187.014.403.042.588.121.184.089.303.246.274.452-.017.163-.127.333-.223.468l-3.744 5.057zm7.04 5.603l-.899 4.536a.73.73 0 01-.183.349.932.932 0 01-.376.222 2.49 2.49 0 01-.553.118 6.43 6.43 0 01-.796.04c-.254 0-.518-.006-.77-.04a2.055 2.055 0 01-.506-.12.635.635 0 01-.344-.284.582.582 0 01-.045-.379l3.083-15.491c.058-.29.273-.465.544-.555.339-.113.82-.123 1.176-.123.216 0 .44.003.654.032.146.019.301.049.438.104a.583.583 0 01.317.26.542.542 0 01.049.374l-.135.706c.287-.306.615-.572.967-.801a6.031 6.031 0 011.286-.628 4.427 4.427 0 011.465-.251c.586 0 1.183.09 1.71.357a3.03 3.03 0 011.137.976c.302.429.5.913.619 1.423.131.559.183 1.135.183 1.709 0 .594-.057 1.189-.15 1.776a12.017 12.017 0 01-.468 1.887c-.21.627-.481 1.235-.807 1.81a6.74 6.74 0 01-1.197 1.552 5.553 5.553 0 01-1.611 1.077c-.651.287-1.344.406-2.053.406a4.35 4.35 0 01-.972-.103 3.87 3.87 0 01-.844-.299 3.628 3.628 0 01-.919-.64zm14.918-10.311l.052-.061c.259-.298.547-.571.862-.81.295-.224.614-.409.959-.545a2.743 2.743 0 011.418-.176c.125.016.249.037.379.063.114.026.224.062.346.109.092.042.19.091.274.168.109.11.146.256.146.408 0 .109-.015.228-.027.337-.02.176-.047.353-.074.535a8.91 8.91 0 01-.13.626 8.35 8.35 0 01-.17.612 2.483 2.483 0 01-.241.509c-.107.152-.256.272-.451.272a.812.812 0 01-.311-.059c-.077-.03-.157-.054-.236-.08a6.097 6.097 0 00-.283-.086 1.18 1.18 0 00-.307-.034c-.271 0-.538.13-.757.28a4.114 4.114 0 00-.85.806c-.293.36-.535.764-.737 1.182a5.932 5.932 0 00-.469 1.418l-.99 4.988a.652.652 0 01-.177.331.915.915 0 01-.394.224 2.97 2.97 0 01-.546.102 7.592 7.592 0 01-.783.031c-.254 0-.516-.003-.768-.031a2.39 2.39 0 01-.511-.108c-.139-.054-.27-.134-.341-.269a.556.556 0 01-.049-.376l2.199-11.104a.71.71 0 01.169-.333.839.839 0 01.35-.213 2.36 2.36 0 01.476-.101c.218-.026.442-.031.661-.031.216 0 .441.003.655.032.145.019.302.049.437.105a.55.55 0 01.306.27.56.56 0 01.035.362l-.122.647zm7.608 5.91a7.868 7.868 0 00-.04.344 5.45 5.45 0 00-.024.495c0 .475.091.995.442 1.342.371.367.995.439 1.49.439a7.72 7.72 0 001.417-.114 11.006 11.006 0 001.902-.515c.164-.061.379-.134.556-.134.159 0 .313.055.403.186a.714.714 0 01.108.416 4.78 4.78 0 01-.149 1.077 2.98 2.98 0 01-.186.544c-.071.165-.164.32-.293.438-.16.161-.419.274-.625.35a6.828 6.828 0 01-.983.286 12.97 12.97 0 01-2.706.289c-.713 0-1.445-.065-2.133-.258-.572-.161-1.113-.416-1.566-.805a3.37 3.37 0 01-.958-1.395c-.233-.618-.31-1.297-.31-1.955 0-.609.061-1.219.159-1.819.106-.656.277-1.298.509-1.92a9.408 9.408 0 01.912-1.819 6.713 6.713 0 011.363-1.539 6.55 6.55 0 011.854-1.061c.763-.29 1.582-.402 2.394-.402.668 0 1.365.069 2.001.28.504.167.997.407 1.403.753.355.303.643.667.834 1.094.18.399.275.823.275 1.261 0 .607-.135 1.192-.431 1.724-.311.559-.786.987-1.328 1.318-.67.41-1.455.658-2.22.819-1.022.215-2.102.281-3.145.281h-.925zm18.061-6.101c0 .156-.022.323-.045.477a5.526 5.526 0 01-.134.622 2.98 2.98 0 01-.22.562c-.098.183-.252.344-.474.344-.173 0-.345-.066-.489-.147a8.56 8.56 0 00-.518-.25 3.925 3.925 0 00-.678-.239 3.544 3.544 0 00-.906-.102c-.231 0-.471.026-.691.098-.173.057-.339.14-.478.259a1.034 1.034 0 00-.276.374 1.053 1.053 0 00-.095.453c0 .19.079.337.225.458.22.184.477.335.735.461.332.163.665.322 1.001.477.378.173.734.39 1.06.649.341.27.616.599.834.975.256.442.34.956.34 1.461 0 .64-.118 1.26-.379 1.845a4.135 4.135 0 01-1.103 1.467c-.51.437-1.111.745-1.745.957-.736.246-1.514.343-2.288.343-.392 0-.784-.025-1.171-.088a8.582 8.582 0 01-.992-.213 3.903 3.903 0 01-.769-.299 2.633 2.633 0 01-.509-.341.892.892 0 01-.187-.29 1.02 1.02 0 01-.059-.371c0-.105.007-.21.019-.314a4.32 4.32 0 01.066-.41c.031-.144.064-.287.101-.437.038-.142.083-.285.142-.42.052-.118.112-.236.194-.336a.479.479 0 01.373-.194c.189 0 .37.085.522.192a4.379 4.379 0 001.295.629c.36.115.767.146 1.144.146.266 0 .546-.025.801-.107.192-.063.383-.152.536-.284.127-.109.229-.244.295-.402.068-.155.097-.319.097-.488a.677.677 0 00-.224-.53 3.284 3.284 0 00-.702-.472c-.323-.167-.65-.327-.98-.479a5.158 5.158 0 01-1.039-.64 3.252 3.252 0 01-.815-.966c-.249-.444-.334-.954-.334-1.458 0-.601.11-1.183.353-1.734a4.01 4.01 0 011.04-1.407 4.848 4.848 0 011.635-.929c.69-.237 1.422-.331 2.15-.331.348 0 .697.021 1.041.071.305.043.61.102.907.184.243.068.485.153.715.26.172.079.36.185.491.324.148.157.188.381.188.59zm9.957 0c0 .156-.021.323-.045.477a5.309 5.309 0 01-.133.622 3.052 3.052 0 01-.221.562c-.098.183-.252.344-.474.344-.173 0-.344-.066-.488-.147a8.31 8.31 0 00-.519-.25 4.074 4.074 0 00-.675-.238 3.613 3.613 0 00-.909-.103c-.231 0-.47.026-.691.098-.173.057-.339.14-.478.259a1.025 1.025 0 00-.276.374 1.053 1.053 0 00-.095.453c0 .19.079.337.225.458.221.184.478.335.735.461.332.163.665.322 1.001.477.379.173.735.39 1.061.649.34.27.615.599.833.975.257.442.34.956.34 1.461 0 .64-.118 1.26-.378 1.845a4.15 4.15 0 01-1.104 1.467c-.51.437-1.11.745-1.745.957-.736.246-1.514.343-2.288.343-.391 0-.784-.025-1.171-.088a8.673 8.673 0 01-.992-.213 3.894 3.894 0 01-.768-.299 2.633 2.633 0 01-.509-.341.894.894 0 01-.188-.29 1.041 1.041 0 01-.059-.371c0-.105.008-.21.019-.314.015-.138.038-.275.067-.41.03-.144.064-.287.1-.437.038-.142.083-.285.143-.42.052-.118.112-.236.194-.336a.475.475 0 01.372-.194c.189 0 .37.085.522.192a4.41 4.41 0 001.295.629c.36.115.768.146 1.144.146.267 0 .547-.025.802-.107.192-.063.382-.152.536-.284.126-.109.228-.244.294-.402.068-.155.098-.319.098-.488a.678.678 0 00-.225-.53 3.271 3.271 0 00-.702-.472c-.323-.167-.65-.327-.98-.479a5.18 5.18 0 01-1.038-.64 3.252 3.252 0 01-.815-.966c-.249-.444-.334-.954-.334-1.458 0-.601.11-1.183.353-1.734a4.007 4.007 0 011.039-1.407 4.831 4.831 0 011.635-.929c.69-.237 1.422-.331 2.151-.331.348 0 .696.021 1.04.071.305.043.61.102.907.184.244.068.486.153.715.26.172.079.36.185.491.324.149.157.188.381.188.59zm4.878 8.552c0 .171-.018.347-.04.517a5.833 5.833 0 01-.123.643c-.055.223-.13.441-.224.644a1.817 1.817 0 01-.37.562c-.18.181-.427.295-.668.37-.336.104-.716.129-1.066.129-.27 0-.555-.018-.812-.082a1.403 1.403 0 01-.581-.27 1.03 1.03 0 01-.328-.492 1.991 1.991 0 01-.087-.614c0-.179.018-.359.044-.536.032-.215.077-.428.131-.635.053-.222.127-.438.221-.646.093-.205.218-.395.38-.552.18-.175.414-.291.647-.365.327-.112.732-.132 1.076-.132.282 0 .586.021.854.098.211.056.419.145.577.293a.957.957 0 01.307.51c.045.182.062.37.062.558zm9.072-12.733a3.606 3.606 0 01-.254.832c-.11.236-.264.441-.468.595a1.717 1.717 0 01-.708.322c-.304.07-.634.087-.946.087-.296 0-.615-.015-.902-.088-.235-.06-.457-.166-.609-.349-.163-.181-.236-.41-.255-.655a3.09 3.09 0 01.08-.838 3.51 3.51 0 01.25-.815c.111-.231.263-.433.463-.594.206-.164.443-.271.695-.329.303-.076.632-.097.943-.097.301 0 .627.019.913.097.241.059.462.171.629.364.154.185.226.41.241.648.016.271-.02.555-.072.82zm-3.197 14.834a.67.67 0 01-.178.331.91.91 0 01-.394.224 2.96 2.96 0 01-.545.102 7.592 7.592 0 01-.783.031c-.254 0-.516-.003-.768-.031a2.399 2.399 0 01-.512-.108c-.138-.054-.269-.134-.341-.269a.552.552 0 01-.048-.376l2.174-11.068a.657.657 0 01.178-.333.897.897 0 01.377-.223c.173-.062.362-.095.543-.118.261-.033.531-.04.793-.04.257 0 .522.007.777.04.172.022.358.056.515.12.139.054.27.139.341.274a.555.555 0 01.049.375l-2.178 11.069zm10.285-.804a5.413 5.413 0 01-.991.828 5.525 5.525 0 01-1.277.626 4.52 4.52 0 01-1.463.241c-.439 0-.894-.047-1.309-.191a3.125 3.125 0 01-.976-.533 3.032 3.032 0 01-.678-.797 4.565 4.565 0 01-.419-.945 5.73 5.73 0 01-.22-1.019 8.57 8.57 0 01-.064-1.013c0-.592.056-1.187.15-1.772a11.11 11.11 0 011.288-3.677 6.83 6.83 0 011.201-1.542 5.52 5.52 0 011.611-1.077c.651-.287 1.348-.407 2.056-.407a4.21 4.21 0 011.833.417 3.662 3.662 0 01.913.644l1.061-5.369a.714.714 0 01.168-.336.868.868 0 01.38-.234c.175-.063.368-.096.552-.118.261-.033.53-.041.792-.041.256 0 .519.007.773.041.168.022.353.056.501.121.138.056.27.149.332.282a.58.58 0 01.047.378l-3.202 16.299c-.057.294-.278.468-.552.559-.345.115-.818.127-1.18.127-.213 0-.432-.005-.644-.027a1.741 1.741 0 01-.453-.095.56.56 0 01-.322-.276.617.617 0 01-.036-.377l.128-.717zm-94.178-6.241h.703c.525 0 1.081-.025 1.596-.127.33-.065.704-.161.999-.326.194-.108.38-.25.497-.443.098-.164.15-.337.15-.529a.8.8 0 00-.299-.643c-.256-.22-.629-.273-.955-.273a2.38 2.38 0 00-1.002.203 2.524 2.524 0 00-.782.55 3.466 3.466 0 00-.595.836 5.468 5.468 0 00-.312.752zm23.241 3.64c.221.334.492.649.828.868.325.212.692.3 1.077.3.291 0 .562-.071.814-.217.27-.157.504-.365.701-.606a4.25 4.25 0 00.562-.911c.165-.357.301-.726.408-1.105a8.42 8.42 0 00.241-1.167c.05-.365.078-.734.078-1.103a3.7 3.7 0 00-.062-.72 1.531 1.531 0 00-.189-.505.842.842 0 00-.306-.285 1.095 1.095 0 00-.482-.097c-.355 0-.69.12-.994.297a4.11 4.11 0 00-.998.842 6.164 6.164 0 00-.842 1.269 5.643 5.643 0 00-.518 1.544l-.318 1.596zm22.444-3.64h.703c.524 0 1.08-.025 1.596-.127.329-.065.704-.161.999-.326.193-.108.38-.25.496-.443.098-.164.151-.337.151-.529a.803.803 0 00-.299-.643c-.256-.22-.63-.273-.955-.273-.346 0-.687.058-1.003.203a2.531 2.531 0 00-.781.55c-.24.249-.44.528-.595.836a5.468 5.468 0 00-.312.752zm49.501-.71c-.221-.335-.495-.648-.832-.869a1.93 1.93 0 00-1.081-.304c-.293 0-.566.067-.821.211-.27.152-.501.355-.702.59a3.953 3.953 0 00-.563.887 7.17 7.17 0 00-.407 1.095c-.107.382-.19.769-.246 1.161a7.694 7.694 0 00-.087 1.093c0 .405.045.936.273 1.284.183.278.464.37.788.37.356 0 .69-.123.995-.298a4.169 4.169 0 001.003-.83 5.66 5.66 0 00.836-1.253c.246-.49.424-1.007.53-1.545l.314-1.592z"/></svg>