<svg xmlns="http://www.w3.org/2000/svg" width="414" height="110" viewBox="0 0 414 110"><defs><linearGradient id="a" x1="-.061%" x2="99.02%" y1="17.629%" y2="17.006%"><stop offset="0%" stop-color="#FFB900"/><stop offset="33.755%" stop-color="#F38000"/><stop offset="56.729%" stop-color="#F83C72"/><stop offset="78%" stop-color="#FC1CBE"/><stop offset="93%" stop-color="#FE08ED"/><stop offset="100%" stop-color="#F0F"/></linearGradient><linearGradient id="b" x1="-1.326%" x2="108.684%" y1="87.517%" y2="5.129%"><stop offset="0%" stop-color="#EE0A3F"/><stop offset="100%" stop-color="#EE0A3F" stop-opacity="0"/></linearGradient><linearGradient id="c" x1="35.912%" x2="89.644%" y1="66.404%" y2="7.859%"><stop offset="0%" stop-color="#ED6600"/><stop offset="100%" stop-color="#F98200"/></linearGradient></defs><g fill="none"><g fill="#000083" stroke-linecap="square" stroke-linejoin="bevel"><path d="M169.683 16.038h9.293v44.717h16.021v8.827h-25.275l-.039-53.544M216.519 29.453a15.75 15.75 0 0112.619 6.066v-5.268h8.67v39.41h-8.67v-5.27a15.75 15.75 0 01-12.62 6.066c-10.81 0-19.014-9.235-19.014-20.511 0-11.277 8.205-20.493 19.015-20.493m1.575 7.894c-7.019 0-11.666 5.522-11.666 12.599s4.724 12.618 11.666 12.618c6.941 0 11.666-5.522 11.666-12.618 0-7.097-4.648-12.599-11.666-12.599M244.555 62.816l20.668-24.691h-20.357v-7.874h31.555v6.941l-20.589 24.594h21.056v7.874h-32.333v-6.844M298.936 29.453a15.748 15.748 0 0112.617 6.066v-5.268h8.672v39.41h-8.672v-5.27a15.748 15.748 0 01-12.617 6.066c-10.81 0-18.996-9.235-18.996-20.511 0-11.277 8.186-20.493 18.996-20.493m1.574 7.894c-7.019 0-11.665 5.522-11.665 12.599s4.724 12.618 11.665 12.618c6.94 0 11.665-5.522 11.665-12.618 0-7.097-4.646-12.599-11.665-12.599M344.995 29.453a15.692 15.692 0 0112.599 6.066v-22.65h8.67v56.79h-8.67v-5.268a15.692 15.692 0 01-12.6 6.066c-10.81 0-19.014-9.235-19.014-20.512 0-11.276 8.205-20.492 19.015-20.492m1.574 7.893c-7.02 0-11.665 5.522-11.665 12.6 0 7.076 4.744 12.617 11.665 12.617 6.922 0 11.665-5.522 11.665-12.618s-4.646-12.599-11.665-12.599M391.033 29.453a15.69 15.69 0 0112.599 6.066v-5.268h8.652v39.41h-8.69v-5.27a15.692 15.692 0 01-12.6 6.066c-10.81 0-19.014-9.235-19.014-20.511 0-11.277 8.243-20.493 19.053-20.493m1.576 7.894c-7.02 0-11.667 5.522-11.667 12.599s4.744 12.618 11.667 12.618c6.92 0 11.665-5.522 11.665-12.618 0-7.097-4.648-12.599-11.665-12.599"/></g><path fill="url(#a)" d="M66.288 107.51a5.371 5.371 0 01-2.684-.698C56.6 102.76 4.724 70.233 2.764 69.24A4.7 4.7 0 01.08 65.483V19.86a4.942 4.942 0 012.229-4.24l.376-.215C7.702 12.29 24.502 2.04 27.159.564A4.026 4.026 0 0129.172 0a4.187 4.187 0 011.906.483s23.51 15.324 27.105 16.693a18.544 18.544 0 008.051 1.69 18.034 18.034 0 009.018-2.2C78.767 14.814 101.23.564 101.472.564a3.542 3.542 0 011.878-.51c.71.003 1.405.198 2.013.563 3.06 1.691 23.885 14.439 24.77 15.002a4.831 4.831 0 012.336 4.187v45.623a4.644 4.644 0 01-2.684 3.757c-1.96 1.074-53.675 33.6-60.813 37.573a5.369 5.369 0 01-2.684.751" transform="translate(1.951 1)"/><path fill="url(#b)" d="M1.179 91.791h.268a5.37 5.37 0 002.684-.698c7.005-4.052 58.854-36.579 60.813-37.572a4.644 4.644 0 002.684-3.757V4.14a4.885 4.885 0 00-.51-2.228L1.178 38.117V91.79" transform="translate(66.791 16.719)"/><path fill="url(#c)" d="M1.166 90.813h.266a5.314 5.314 0 002.655-.69c6.93-4.01 58.227-36.19 60.165-37.172a4.594 4.594 0 002.656-3.717V4.096a4.833 4.833 0 00-.505-2.203L1.166 37.71v53.103" transform="matrix(-1 0 0 1 68.908 17.053)"/></g></svg>