<svg width="600" height="132" fill="none" xmlns="http://www.w3.org/2000/svg"><path d="M286.415 34.731s-3.799-6.598 4.8-4.798c0 0-1.9-3.599-6.399-2.1 0 0-2.9 1.4-1.1 4.799 0 0 .8 1.1 2.699 2.1zm18 59.68c2.799-20.494-15.9-26.991-15.9-26.991-14.799-5.598-25.498 5.298-25.498 5.298-14.4-11.696-15.9-34.888-15.9-34.888l3.7-1.6c-4.7-3.098-2.7-9.496-2.7-9.496 2.4 2 11.1-1.6 11.1-1.6-1.2-4.898 1.6-5.797 1.6-5.797 2.5-.4 14.899 0 14.899 0 0-5.098 3.7-4.799 3.7-4.799 1.2 1.4 5.8 2.1 5.8 2.1 7.499 3.199 6.899 3.698 6.899 3.698.4.9 1.1.5 1.1.5-.1-4.498 4.8-2.599 4.8-2.599.5 4.798 13.799 11.096 13.799 11.096 2 1.3 0 3.699 0 3.699l2.1 1.6h2.1l1.1.5 5.3.499c2.1.5 1.6 3.699 1.6 3.699h-.5v1l.5.5c.4 5.297-4.8 8.496-4.8 8.496-.1-3.299-2.6-3.699-2.6-3.699-6.2-1.6-8 5.798-8 5.798-.7 6.198 3.7 6.298 3.7 6.298 2.5.7 4.8-2.1 4.8-2.1v1.1l-.5 4.799c-1.3 4.198-6.9 2.599-6.9 2.599-2.5-1-2.7.5-2.7.5.3 7.397 3.7 9.996 3.7 9.996 4 2 3.7 2.6 3.7 2.6.9 1.699-1.1 2.598-1.1 2.598-1.8.9-2.1 2.1-2.1 2.1-.7 1.599 2.1 4.698 2.1 4.698 1.1.1 1.6 2.1 1.6 2.1-.3 2.598-2.6 2.598-2.6 2.598-.7.5-2.1 4.799-2.1 4.799-5.499 17.693-24.099 20.192-27.898 20.592.4 4.299.4 9.797-1.8 11.696 0 0-2.3 2.899-8 1 0 0 5.8-4.799 4.8-17.994 0 0-1.7-.3-2.6-.5 0 0-1.3 20.593-12.199 21.093 0 0-4.9.2-6.4-2.599 0 0 11.799-3.799 15.399-19.593l-2.1-1.1s-7.699 20.293-20.699 20.593c0 0-4.899.7-7.999-5.298 0 0 15.299-1.1 25.998-17.394l-2.099-1.6s-15.8 18.194-29.199 15.295c0 0-9.3-1.999-9-9.996 0 0 18.2 5.997 36.099-8.497l-1.6-2.6s-19.299 9.897-33.999 7.398c0 0-19.199-3.699-13.299-17.394 0 0 19.699 12.995 45.098 6.298v-3.2s-43.398 3.7-49.698-17.893V66.42c.5-1.8 1.5-3.599 3-3.699 0 0 12.899 19.793 46.698 25.891v-2.599S211.219 69.72 211.019 40.63c0 0 .4-12.096 10.1-10.596 0 0 .9 27.99 38.698 52.281l1.1-2.099s-35.599-22.392-34.999-64.477c0 0 2.1-21.393 18-14.295 0 0-10.5 44.584 19.599 74.474 0 0 4.399-8.197 16.999-7.897 0 0 19.499-.8 21.799 20.592 0 0 1.7 20.693-20.699 22.692 0 0 .2 1 .4 2.599 19.099-.799 22.399-19.493 22.399-19.493zm4.199-55.481l2.1-4.199-1 .5h-3.699v1.1l2.599 2.599z" fill="#EC1D24"/><path d="M209.119 67.02v7.997c-.4-1.3-.6-2.799-.7-4.298 0-.1.1-1.9.7-3.7z" fill="#EC1D24"/><path d="M581.101 46.527H600c-5.3 18.693-10.799 37.187-17.099 54.881-6.3-.4-14.199.799-19.499-.6 5.9-17.994 10.199-37.687 17.699-54.28zm-69.496 40.286c-1.7-25.591 53.697-41.386 52.997-6.098-11.4 2.8-22.799 5.698-34.098 8.497 6.499 8.597 20.299 1.4 29.298 0-4.1 15.195-46.798 19.293-48.197-2.4zm34.698-8.597c-2.9-8.397-16.899-2.8-17.099 4.298 6.299-.8 11.299-2.998 17.099-4.298z" fill="#EC2127"/><path d="M516.504 61.222c-1.6 5.898-6 8.997-8.499 13.995-15.6-8.197-24.299 18.793-3.7 11.596 1 4.098 2.4 7.797 2.4 12.795-15.6 6.198-40.198.3-34.099-19.493 4.1-13.695 25.499-22.992 43.898-18.893zm-39.698 3.599c-.3 4.198-6.1 7.997-8.499 12.195-13.8-2.999-10.4 16.395-15.8 23.792h-18.899c3.4-13.495 8.2-25.491 11.6-38.986 11.499 2.199 25.098-4.999 31.598 2.999zm-65.197-4.899c8.2-.6 15.6 3.899 26.799 3.6-1.9 11.695-7.6 24.89-10.999 37.186h-18.3c1.8-9.796 6.2-16.994 7.3-27.39-9.599-8.097-19.699 8.397-15.899 17.693 2.3.9 6.8.9 9.099 0-1.2 10.697-21.799 14.895-24.998 3.1-.7-18.794 11.099-32.89 26.998-34.189zm-30.498 9.197c9.299 19.793-17.099 39.686-37.198 30.49-2.6 4.698-3.7 10.995-5.5 16.494h-19.499c5.9-18.294 11.099-37.287 17.699-54.881 16.899 1.1 37.998-5.998 44.498 7.897zm-34.098 20.093c12.399 7.597 25.698-10.896 17.099-18.293-9.5-8.098-16.999 10.596-17.099 18.293zM189.02 66.02c7 10.097-3.4 22.992-4.899 34.688h-19.499c1.099-8.597 4.999-14.495 6.099-23.192-.7-2.999-7.299-1.9-9.799-1.2-4.3 6.698-5.3 16.595-8.5 24.392h-19.499c3.9-13.095 8-26.09 12.199-38.986 15.5 4.098 34.999-8.497 43.898 4.298zm-54.897 7.298c3 21.092-31.098 36.787-47.498 24.391-7.6-5.698-6.8-18.693 0-26.19 5.2-5.799 13.5-10.197 24.999-10.997 10.8-.7 20.899 2 22.499 12.796zm-35.398 9.796c1.2 8.997 20.699 4.399 17.699-5.498-1.1-3.599-5-3.798-9.1-2.999-5.899 1-9.2 3.499-8.6 8.497zM62.827 61.822h19.499c-3.5 13.395-8.2 25.49-11.6 38.986H50.627c4.1-12.995 8-26.19 12.2-38.986zm10.3-18.894c19.898-4.798 14.698 16.395-1.2 15.195-11.6-.8-9.2-12.695 1.2-15.195zm-24.3 40.786c-1.5 6.698-3.1 13.095-6.7 17.694C24.629 99.808 1.03 107.106.03 89.812c-.7-13.096 11.2-29.39 13.399-41.485 0-1 .5-1.6 1.2-1.8 6.5.4 14.6-.8 20.099.6-2.8 11.896-9.5 22.992-10.4 34.688 5.7 3.199 17.8-.2 24.5 1.899z" fill="#EC2127"/></svg>