<svg xmlns="http://www.w3.org/2000/svg" width="215" height="162" viewBox="0 0 215 162"><g fill="none" fill-rule="evenodd"><path fill="#902682" d="M14.028 140.695h9.856l.685-3.316H11.146L7 157.459h13.425l.683-3.316h-9.856l1.064-5.152h8.467l.685-3.318H13l1.029-4.978zm17.424 16.764h3.675l-3.355-7.887 6.207-7.247h-3.677l-3.644 4.599-1.936-4.6H25.02l3.114 7.336-6.511 7.8h3.703l3.986-5.064 2.141 5.063zm8.515-15.134L35.905 162h3.377l1.256-6.083c.676 1.203 1.86 1.805 3.548 1.805 1.07 0 2.08-.273 3.027-.815.948-.543 1.77-1.344 2.47-2.4.7-1.06 1.2-2.315 1.5-3.77l.39-1.893c.453-2.192.3-3.87-.458-5.034-.758-1.164-1.982-1.746-3.67-1.746-1.633 0-3.112.66-4.437 1.978l.353-1.717h-3.294zm6.403 11.192c-.643.649-1.446.975-2.407.975-.963 0-1.658-.326-2.085-.975-.43-.652-.529-1.528-.302-2.635l.397-1.92c.241-1.165.7-2.072 1.38-2.722.678-.65 1.497-.976 2.46-.976 2.015 0 2.764 1.253 2.248 3.755l-.325 1.572c-.268 1.3-.724 2.274-1.366 2.926zm9.144-11.192l-3.124 15.134h3.377l1.73-8.382c.26-1.26.755-2.226 1.482-2.895.729-.67 1.628-1.004 2.7-1.004.725 0 1.37.126 1.936.378l.708-3.435c-.346-.077-.782-.115-1.31-.115a6.16 6.16 0 00-2.46.51 6.038 6.038 0 00-2.1 1.526l.356-1.717h-3.295zm11.548 8.557h9.722l.36-1.747c.468-2.27.247-4.015-.662-5.237-.909-1.222-2.38-1.834-4.413-1.834-2.034 0-3.758.615-5.173 1.847-1.418 1.233-2.364 3.004-2.84 5.312l-.271 1.31c-.483 2.347-.258 4.132.678 5.355.938 1.222 2.45 1.834 4.537 1.834 1.833 0 3.399-.441 4.698-1.325 1.298-.881 2.143-2.051 2.535-3.507l.036-.173h-3.295l-.045.086c-.189.564-.566.999-1.128 1.31-.564.31-1.236.466-2.017.466-2.323 0-3.235-1.212-2.733-3.639l.011-.058zm.51-2.473c.578-2.174 1.864-3.26 3.86-3.26.961 0 1.675.256 2.142.77.464.515.594 1.276.385 2.285l-.042.205h-6.345zm11.917 7.96c.897.844 2.308 1.266 4.232 1.266 1.96 0 3.594-.417 4.902-1.253 1.306-.833 2.12-2.036 2.446-3.608.26-1.262.075-2.256-.556-2.984-.63-.728-1.742-1.187-3.335-1.38l-2.2-.292c-.71-.078-1.193-.243-1.45-.495-.257-.253-.34-.592-.253-1.019.11-.524.414-.926.917-1.209.502-.28 1.217-.42 2.143-.42.98 0 1.683.154 2.11.465.425.31.578.756.457 1.338l-.017.088h3.131l.024-.116c.296-1.436-.007-2.56-.909-3.376-.902-.816-2.298-1.223-4.187-1.223-1.833 0-3.36.407-4.582 1.223-1.22.815-1.984 1.968-2.292 3.464-.265 1.28-.093 2.264.52 2.952.61.69 1.693 1.14 3.245 1.353l2.042.263c.78.098 1.32.272 1.621.525.303.251.406.61.31 1.075-.116.564-.454.991-1.013 1.282-.56.291-1.32.435-2.283.435-1.034 0-1.78-.174-2.232-.523-.455-.349-.62-.825-.497-1.426l.012-.057h-3.158l-.018.086c-.317 1.533-.026 2.72.87 3.566zm14.324 0c.895.844 2.306 1.266 4.23 1.266 1.961 0 3.594-.417 4.902-1.253 1.306-.833 2.12-2.036 2.446-3.608.26-1.262.075-2.256-.556-2.984-.63-.728-1.742-1.187-3.335-1.38l-2.2-.292c-.71-.078-1.193-.243-1.45-.495-.257-.253-.34-.592-.253-1.019.11-.524.414-.926.917-1.209.502-.28 1.217-.42 2.143-.42.98 0 1.683.154 2.11.465.425.31.578.756.457 1.338l-.017.088h3.131l.024-.116c.296-1.436-.007-2.56-.909-3.376-.904-.816-2.298-1.223-4.187-1.223-1.833 0-3.36.407-4.582 1.223-1.22.815-1.984 1.968-2.294 3.464-.264 1.28-.09 2.264.52 2.952.613.69 1.694 1.14 3.247 1.353l2.044.263c.778.098 1.318.272 1.621.525.301.251.404.61.308 1.075-.116.564-.454.991-1.013 1.282-.56.291-1.32.435-2.283.435-1.034 0-1.78-.174-2.234-.523-.453-.349-.618-.825-.495-1.426l.014-.057h-3.16l-.017.086c-.316 1.533-.027 2.72.87 3.566zm21.715-.8c1.103 1.473 2.915 2.211 5.439 2.211 2.323 0 4.292-.612 5.905-1.834 1.614-1.223 2.65-2.94 3.106-5.152l.03-.145h-3.54l-.029.145c-.228 1.107-.757 1.976-1.587 2.606-.828.63-1.87.946-3.12.946-1.49 0-2.514-.447-3.075-1.34-.56-.892-.65-2.26-.27-4.102l.595-2.882c.397-1.92 1.059-3.346 1.987-4.278.927-.931 2.136-1.398 3.624-1.398 1.252 0 2.165.326 2.739.975.574.65.744 1.538.513 2.663l-.025.118h3.567l.049-.234c.444-2.154.106-3.837-1.014-5.05-1.12-1.213-2.833-1.818-5.139-1.818-2.522 0-4.644.736-6.365 2.212-1.72 1.474-2.882 3.677-3.488 6.607l-.648 3.143c-.604 2.93-.357 5.13.746 6.606zm17.608.377c.899 1.184 2.355 1.776 4.37 1.776 1.996 0 3.685-.592 5.063-1.776 1.38-1.183 2.303-2.91 2.771-5.18l.374-1.804c.46-2.232.246-3.94-.645-5.124-.89-1.182-2.335-1.774-4.331-1.774-2.015 0-3.715.587-5.1 1.761-1.386 1.173-2.312 2.885-2.777 5.137l-.372 1.804c-.47 2.27-.254 3.997.647 5.18zm8.861-5.21c-.517 2.503-1.791 3.756-3.825 3.756-2.068 0-2.844-1.253-2.328-3.755l.356-1.718c.515-2.502 1.807-3.755 3.878-3.755.98 0 1.67.306 2.07.918.401.61.469 1.557.204 2.837l-.355 1.718zm6.542 5.312c.831 1.117 2.29 1.674 4.378 1.674 2.087 0 3.777-.554 5.067-1.659 1.291-1.107 2.161-2.756 2.614-4.948l1.815-8.79h-3.377l-1.778 8.615c-.244 1.184-.654 2.073-1.23 2.663-.576.592-1.39.889-2.443.889-1.035 0-1.722-.302-2.06-.904-.338-.6-.389-1.483-.148-2.648l1.777-8.615h-3.375l-1.814 8.79c-.45 2.174-.258 3.818.574 4.933zm16.815-13.723l-3.125 15.134h3.377l1.729-8.382c.26-1.26.756-2.226 1.483-2.895.729-.67 1.628-1.004 2.698-1.004.728 0 1.372.126 1.938.378l.709-3.435c-.347-.077-.783-.115-1.31-.115a6.16 6.16 0 00-2.461.51 6.038 6.038 0 00-2.1 1.526l.356-1.717h-3.294zm11.903-5.034l-.595 2.88h3.349l.596-2.88h-3.35zm-1.039 5.034l-3.124 15.134h3.348l3.124-15.134h-3.348zm7.79 8.557h9.72l.36-1.747c.47-2.27.25-4.015-.66-5.237-.908-1.222-2.381-1.834-4.413-1.834-2.034 0-3.757.615-5.175 1.847-1.415 1.233-2.361 3.004-2.838 5.312l-.27 1.31c-.486 2.347-.26 4.132.678 5.355.936 1.222 2.449 1.834 4.536 1.834 1.833 0 3.399-.441 4.698-1.325 1.298-.881 2.143-2.051 2.534-3.507l.037-.173h-3.294l-.046.086c-.19.564-.565.999-1.13 1.31-.562.31-1.233.466-2.014.466-2.323 0-3.236-1.212-2.734-3.639l.012-.058zm.51-2.473c.576-2.174 1.863-3.26 3.859-3.26.963 0 1.677.256 2.143.77.465.515.594 1.276.385 2.285l-.042.205h-6.344zm13.673-6.084l-3.124 15.134h3.376l1.731-8.382c.26-1.26.754-2.226 1.481-2.895.73-.67 1.628-1.004 2.7-1.004.726 0 1.372.126 1.936.378l.709-3.435c-.347-.077-.783-.115-1.31-.115a6.16 6.16 0 00-2.46.51 6.017 6.017 0 00-2.098 1.526l.353-1.717h-3.294zM190 41.25C102.688 29.01 38.699 66.055 0 122 18.671 74.881 70.955 24.349 131.378 11.038c-.014-3.68-.029-7.358-.042-11.038L190 41.25"/><path fill="#EC7023" d="M120.948 84.859c1.088-1.747.171-.41.977-1.192l2.71 21.44-14.162-.011 10.475-20.237zm-44.357 50.277l17.985.105 8.214-15.362 23.494.106 1.988 15.137 16.66.127-5.757-40.85-6.07-39.811-12.712.028-43.802 80.52zm100.952-63.147c.635-2.727-.083-1.147 1.215-1.947 3.524.004 12.874-.425 15.692.56 4.109 1.434 4.652 6.59 3.141 10.952-3.285 9.485-12.554 8.202-23.329 8.222l3.28-17.787zm-29.341 63.162l16.842-.165 1.416-7.396c1.487-7.331 2.879-14.76 4.474-22.261 4.629.046 18.914 2.667 31.355-4.85 16.05-9.698 18.664-39.247-2.455-44.912-6.098-1.636-28.081-1.25-35.488-.89l-16.144 80.474zM34.134 84.521c4.389 20.59 26.8 15.033 31.234 21.944 2.782 4.339-.357 12.698-11.198 13.851-7.58.807-15.857-2.547-18.546-8.702C33.58 112.6 24.79 120.61 23 122.32c1.961 3.76 8.973 9.595 14.269 11.433 19.402 6.738 47.45-1.5 45.413-27.123-.652-8.2-4.668-12.718-9.939-15.69-8.913-5.03-27.21-3.248-21.123-15.177 3.39-6.637 12.358-7.853 18.49-5.459 4.37 1.705 4.246 3.41 7.15 5.974l11.816-10.125c-3.824-6.658-11.63-10.888-19.102-11.807-3.386-.415-5.885-.459-9.287-.12-16.077 1.61-28.449 12.862-26.553 30.295z"/></g></svg>