<svg xmlns="http://www.w3.org/2000/svg" width="268" height="86" viewBox="0 0 268 86"><path fill="#EE4D2D" fill-rule="evenodd" d="M48.905 60.698c-.47 3.895-2.821 7.014-6.463 8.576-2.028.87-4.752 1.34-6.907 1.192-3.363-.129-6.522-.95-9.434-2.45-1.04-.536-2.592-1.607-3.783-2.61-.301-.254-.337-.416-.137-.7.107-.163.306-.458.745-1.104.637-.936.717-1.054.788-1.164.204-.314.535-.341.862-.083l.06.047a137.697 137.697 0 01.415.323c3.14 2.469 6.798 3.892 10.49 4.035 5.138-.07 8.833-2.39 9.494-5.95.728-3.918-2.336-7.302-8.332-9.189-1.875-.59-6.614-2.494-7.488-3.009-4.104-2.417-6.023-5.582-5.75-9.492.418-5.42 5.43-9.463 11.765-9.49 2.833-.006 5.66.585 8.375 1.734.961.406 2.678 1.344 3.27 1.788.342.252.41.545.214.862-.11.183-.29.474-.67 1.08l-.005.007c-.501.798-.517.823-.632 1.01-.199.304-.432.332-.79.104-2.906-1.96-6.128-2.945-9.67-3.016-4.41.087-7.717 2.722-7.934 6.311-.058 3.242 2.365 5.609 7.597 7.413 10.62 3.426 14.685 7.442 13.92 13.775M35.79 4.736c6.914 0 12.55 6.586 12.815 14.831h-25.63c.264-8.245 5.9-14.831 12.815-14.831m35.786 16.381c0-.856-.687-1.55-1.534-1.55H53.429C53.02 8.681 45.279 0 35.789 0s-17.232 8.68-17.64 19.567H1.513a1.543 1.543 0 00-1.501 1.67H0L2.371 73.71a6.224 6.224 0 00.025.541l.005.11.006.007c.36 3.65 3 6.592 6.59 6.727l.008.009H62.038l.002-.003c3.653-.1 6.611-3.082 6.924-6.778l.001-.002.003-.05a8.095 8.095 0 00.02-.394l2.587-52.679h-.002c.002-.026.002-.053.002-.08m175.924 34.198c1.016-3.329 4.09-5.548 7.678-5.548 3.424 0 6.685 2.334 7.811 5.542l.077.22h-15.632l.066-.214zm19.045 4.823l.053.001.062-.001c.749-.035 1.341-.675 1.341-1.454 0-.038-.001-.07-.004-.123v-.09c0-7.352-5.742-13.31-12.823-13.31-7.082 0-12.824 5.958-12.824 13.31 0 .548.032 1.095.096 1.638l.004.029.02.143a12.997 12.997 0 003.253 7.038l.01.011c1.97 2.175 4.643 3.658 7.608 4.212l.039.007v-.003l.192.032.343.055c3.903.471 7.365-.094 10.297-1.575a12.74 12.74 0 001.933-1.194c.18-.137.344-.27.484-.393.073-.064.13-.118.161-.15.662-.683.703-.926.304-1.55-.44-.702-.827-1.3-1.16-1.795a31.63 31.63 0 00-.302-.443l-.076-.11-.02-.027-.004-.006c-.361-.451-.609-.493-1.01-.137-.043.038-.186.149-.211.176-2.82 2.514-6.672 3.322-10.517 2.515a11.61 11.61 0 01-2.003-.735c-2.41-1.212-4.116-3.373-4.609-5.874l-.039-.197h19.402zm-49.56-4.823c1.017-3.329 4.091-5.548 7.678-5.548 3.425 0 6.685 2.334 7.812 5.542l.077.22h-15.633l.066-.214zm19.046 4.823l.052.001.062-.001c.749-.035 1.341-.675 1.341-1.454 0-.038-.001-.07-.004-.123v-.09c0-7.352-5.741-13.31-12.823-13.31-7.081 0-12.824 5.958-12.824 13.31 0 .548.033 1.095.096 1.638l.005.029.02.143a12.997 12.997 0 003.252 7.038l.01.011c1.97 2.175 4.643 3.658 7.608 4.212l.039.007v-.003l.192.032.344.055c3.903.471 7.365-.094 10.296-1.575a12.74 12.74 0 001.933-1.194c.18-.137.344-.27.485-.393.072-.064.13-.118.16-.15.662-.683.703-.926.304-1.55a67.94 67.94 0 00-1.159-1.795 34.737 34.737 0 00-.302-.443l-.077-.11c-.011-.017-.011-.017-.02-.027l-.003-.006c-.361-.451-.609-.493-1.01-.137-.042.038-.185.149-.211.176-2.82 2.514-6.671 3.322-10.517 2.515a11.61 11.61 0 01-2.003-.735c-2.409-1.212-4.116-3.373-4.608-5.874l-.04-.197h19.402zm-42.334 7.33c-4.77 0-8.67-3.795-8.79-8.552v-.448c.118-4.748 4.02-8.545 8.79-8.545 4.855 0 8.792 3.928 8.792 8.773s-3.937 8.772-8.792 8.772m.002-22.198c-3.128 0-6.117 1.07-8.52 3.03l-.272.223V46.07c0-.655-.14-.8-.8-.8h-3.07c-.67 0-.801.134-.801.8V85.2c0 .643.15.799.8.799h3.07c.654 0 .8-.153.8-.799v-16.32l.274.223a13.424 13.424 0 008.52 3.032c7.435 0 13.462-6.015 13.462-13.433 0-7.419-6.027-13.433-13.463-13.433m-31.617 21.898c-4.866 0-8.81-3.893-8.81-8.696 0-4.804 3.944-8.697 8.81-8.697 4.864 0 8.809 3.893 8.809 8.697 0 4.803-3.944 8.696-8.81 8.696m.003-22.007c-7.45 0-13.488 5.963-13.488 13.317 0 7.355 6.038 13.317 13.488 13.317 7.45 0 13.488-5.962 13.488-13.317 0-7.354-6.037-13.317-13.488-13.317m-30.069.296c-2.72 0-5.351.878-7.534 2.5l-.266.197V29.98c0-.602-.197-.799-.797-.799h-3.213c-.65 0-.798.156-.798.8V71.44c0 .627.16.8.798.8h3.213c.596 0 .797-.207.797-.8V57.898c.034-4.263 3.517-7.704 7.8-7.704 4.295 0 7.782 3.457 7.8 7.734V71.44c0 .685.114.8.797.8h3.206c.68 0 .797-.118.797-.8V57.889c-.025-6.836-5.704-12.432-12.6-12.432M87.236 64.72l-.008.011c-.458.697-.65.99-.757 1.158-.361.54-.316.78.235 1.249 1.288 1.041 2.943 2.135 4.059 2.683 3.106 1.525 6.462 2.33 10.017 2.404 2.297.116 5.182-.432 7.33-1.394 3.889-1.741 6.366-5.135 6.8-9.315.703-6.773-3.688-11.007-14.997-14.42h-.003c-5.27-1.706-7.744-3.974-7.745-7.14.155-3.5 3.387-6.113 7.748-6.276 3.513.008 6.619.945 9.67 2.916.644.392.94.32 1.373-.244.05-.083.188-.285.766-1.119l.002-.002c.54-.779.718-1.039.763-1.116.364-.688.312-.954-.346-1.422-.648-.466-2.473-1.42-3.517-1.838-2.904-1.162-5.905-1.727-8.893-1.669-6.798.149-12.1 4.587-12.45 10.409-.221 4.205 1.905 7.587 6.348 10.087 1.245.66 5.8 2.387 7.925 3.012 6.044 1.777 9.195 5.045 8.543 8.9-.59 3.504-4.248 5.834-9.38 5.993-3.72-.078-7.47-1.447-10.725-3.902a63.62 63.62 0 01-.251-.188l-.246-.184c-.664-.46-1.054-.421-1.46.185-.048.075-.552.844-.801 1.222"/></svg>