<svg xmlns="http://www.w3.org/2000/svg" width="568" height="159" viewBox="0 0 568 159"><g fill="none" fill-rule="evenodd"><path fill="#CAC9C9" d="M52.995 148.869c29.003 0 52.515 2.228 52.515 4.975 0 2.748-23.512 4.976-52.515 4.976S.48 156.592.48 153.844c0-2.747 23.512-4.975 52.515-4.975"/><path fill="#921D26" d="M50.116 1.388l99.422 42.2c2.86 1.216 4.207 4.549 2.993 7.41l-42.202 99.42c-1.214 2.862-4.548 4.208-7.408 2.994L3.5 111.21c-2.86-1.214-4.207-4.547-2.992-7.408L42.708 4.38c1.215-2.86 4.548-4.207 7.408-2.993"/><path fill="#70161E" d="M147.057 48.9a2.192 2.192 0 01-.012 1.683L106.22 146.76a2.206 2.206 0 01-2.885 1.165L7.158 107.1a2.191 2.191 0 01-1.178-1.202l141.077-57"/><path fill="#D5232B" d="M50.195 10.14l92.993 39.473c.565.24.831.898.591 1.463l-39.473 92.993c-.24.565-.898.83-1.463.59L9.85 105.188a1.119 1.119 0 01-.59-1.463L48.731 10.73a1.118 1.118 0 011.463-.591"/><path fill="#A11F24" d="M143.785 50.223c.107.265.114.57-.006.853l-39.473 92.993c-.24.565-.898.83-1.463.59L9.85 105.188a1.114 1.114 0 01-.597-.61l134.533-54.354"/><path fill="#FFF" d="M126.706 52.997l-57.707 29.09-5.732-25.78 63.439-3.31"/><path fill="#E6E6E6" d="M27.767 102.872l57.706-29.09 5.733 25.78-63.439 3.31"/><path fill="#B3B3B3" d="M69 82.087l16.473-8.305 1.214 5.459-17.688 2.846H69"/><path fill="#D5232B" d="M513.708 136.766l-2.937 17.088 18.55-.08.572-3.338-14.805.064 1.804-10.489 14.805-.064.573-3.338-11.37.049-7.192.108M515.625 125.611l-.574 3.338 3.744-.016 3.765-.016 11.04-.048.574-3.338-18.549.08M398.85 154.337l-4.859.021-8.976-12.528-3.315 3.009-1.645 9.579-3.742.016 4.853-28.243 3.742-.016-2.533 14.738 16.203-14.797 4.539-.02-14.855 13.332 10.588 14.909M432.635 146.135c-.19 1.1-.63 2.189-1.328 3.266a10.098 10.098 0 01-2.612 2.742 14.266 14.266 0 01-3.854 1.912c-1.42.459-3.077.694-4.968.702-2.029.009-3.82-.172-5.374-.543a23.818 23.818 0 01-4.656-1.668l.808-4.704.266-.001c1.22 1.183 2.706 2.092 4.461 2.729 1.756.635 3.452.95 5.092.944 2.32-.011 4.2-.456 5.641-1.332 1.443-.88 2.287-2.043 2.538-3.5.215-1.251.068-2.172-.44-2.763-.51-.593-1.36-1.05-2.552-1.374a25.222 25.222 0 00-2.964-.613 57.044 57.044 0 01-3.4-.61c-2.406-.522-4.099-1.42-5.08-2.7-.984-1.277-1.3-2.946-.946-5.008.407-2.364 1.736-4.306 3.988-5.826 2.25-1.52 4.907-2.286 7.972-2.3 1.98-.008 3.76.174 5.347.548 1.584.37 2.966.833 4.145 1.383l-.762 4.44-.266.002c-.915-.91-2.193-1.657-3.838-2.251a15.082 15.082 0 00-5.204-.878c-2.004.009-3.685.433-5.045 1.274-1.362.839-2.155 1.917-2.382 3.23-.2 1.179-.057 2.099.433 2.767.491.668 1.47 1.176 2.932 1.523.777.174 1.887.382 3.331.628 1.443.249 2.658.503 3.646.764 1.998.546 3.428 1.38 4.295 2.502.864 1.12 1.123 2.693.776 4.715m30.263-11.674c.167-.972.143-1.82-.075-2.538a3.314 3.314 0 00-1.246-1.757c-.537-.391-1.18-.67-1.925-.835-.745-.17-1.713-.25-2.897-.245l-3.705.016-1.94 11.287 3.155-.013c1.514-.007 2.767-.15 3.76-.424.99-.276 1.832-.713 2.53-1.311.696-.608 1.224-1.248 1.586-1.92a7.384 7.384 0 00.757-2.26zm3.91-.11a10.418 10.418 0 01-1.25 3.483 10.7 10.7 0 01-2.303 2.786 11.726 11.726 0 01-3.817 2.206c-1.408.494-3.119.744-5.136.752l-3.744.017-1.808 10.526-3.745.017 4.854-28.243 7.64-.034c1.688-.006 3.094.13 4.22.408 1.121.28 2.085.72 2.89 1.324.946.716 1.62 1.61 2.021 2.683.401 1.07.462 2.43.178 4.075zm27.322-.706c.138-.81.121-1.525-.054-2.15-.179-.624-.555-1.152-1.138-1.578-.479-.365-1.077-.618-1.795-.761-.72-.142-1.583-.211-2.592-.207l-4.404.019-1.833 10.66 3.781-.015c1.185-.005 2.237-.114 3.156-.326a6.054 6.054 0 002.451-1.178 6.405 6.405 0 001.57-1.834c.388-.69.674-1.566.858-2.63zm5.266 20.258l-4.858.02-7.486-11.188-5.276.023-1.929 11.23-3.745.015 4.854-28.243 7.885-.034c1.701-.007 3.1.098 4.197.314s2.05.607 2.86 1.173c.91.638 1.567 1.448 1.972 2.426.406.978.478 2.218.22 3.722-.35 2.039-1.154 3.743-2.41 5.119-1.259 1.378-2.842 2.417-4.75 3.12l8.466 12.303zm65.448-8.34c-.19 1.103-.63 2.19-1.328 3.268a10.084 10.084 0 01-2.613 2.74 14.194 14.194 0 01-3.854 1.913c-1.42.46-3.077.694-4.967.703-2.029.008-3.82-.172-5.374-.544a23.748 23.748 0 01-4.656-1.667l.808-4.704.265-.001c1.22 1.182 2.706 2.092 4.462 2.729 1.756.635 3.452.95 5.091.943 2.32-.01 4.2-.455 5.642-1.332 1.442-.88 2.287-2.043 2.538-3.5.215-1.25.068-2.172-.44-2.763-.51-.592-1.36-1.05-2.552-1.374a25.23 25.23 0 00-2.964-.612 56.937 56.937 0 01-3.4-.611c-2.406-.521-4.099-1.42-5.082-2.698-.983-1.278-1.299-2.947-.945-5.01.408-2.363 1.737-4.305 3.988-5.825 2.251-1.52 4.908-2.286 7.973-2.3 1.98-.008 3.76.174 5.346.547 1.585.37 2.967.833 4.146 1.383l-.763 4.44-.265.002c-.915-.908-2.194-1.657-3.838-2.251a15.06 15.06 0 00-5.205-.877c-2.003.009-3.684.433-5.044 1.274-1.362.839-2.155 1.917-2.382 3.23-.202 1.179-.057 2.099.433 2.766.49.669 1.47 1.177 2.931 1.524.778.174 1.888.382 3.331.628 1.444.248 2.66.503 3.647.763 1.998.547 3.428 1.38 4.294 2.503.864 1.12 1.123 2.693.777 4.714M346.924 137.485l-2.937 17.089 18.549-.081.573-3.338-14.805.064 1.804-10.489 14.805-.064.573-3.338-11.37.049-7.192.108M348.841 126.331l-.574 3.338 3.744-.016 3.765-.017 11.04-.047.574-3.339-18.549.081M174.445 92.082c1.443.46 2.955.82 4.53 1.079 1.312.329 2.806.586 4.48.779a42.63 42.63 0 005.065.279c3.017-.013 4.521-1.151 4.511-3.417-.003-.864-.467-1.746-1.388-2.641-.924-.895-2.09-1.888-3.506-2.98a191.876 191.876 0 01-4.54-3.628 32.87 32.87 0 01-4.544-4.574c-1.42-1.725-2.59-3.67-3.517-5.83-.929-2.158-1.397-4.638-1.41-7.434-.013-3.13.532-5.896 1.637-8.3 1.103-2.401 2.636-4.405 4.596-6.012 1.962-1.606 4.268-2.83 6.92-3.674 2.653-.845 5.486-1.274 8.504-1.287 1.573-.006 3.15.07 4.722.229l4.233.432c1.442.194 2.853.387 4.231.58l.08 18.679c-.526-.061-1.115-.127-1.769-.192a90.555 90.555 0 00-1.772-.19 20.77 20.77 0 00-2.066-.092c-.394.002-.887.02-1.476.056a9 9 0 00-1.67.256 3.428 3.428 0 00-1.375.707c-.393.336-.586.8-.584 1.4.002.535.447 1.196 1.337 1.992.887.795 1.974 1.724 3.256 2.784a134.17 134.17 0 014.247 3.676 29.755 29.755 0 014.251 4.777c1.286 1.793 2.377 3.82 3.271 6.078.896 2.262 1.348 4.79 1.362 7.587.011 2.93-.435 5.68-1.343 8.247a17.528 17.528 0 01-4.249 6.71c-1.927 1.907-4.397 3.415-7.409 4.527-3.01 1.11-6.58 1.677-10.713 1.695-2.494.01-4.806-.097-6.936-.321-2.133-.223-4.02-.498-5.66-.825a47.006 47.006 0 01-5.22-1.175l-.086-19.977M222.735 44.326l22.232-.096.302 70.137-22.232.096-.302-70.137M252.985 79.265c-.023-5.327.874-10.143 2.692-14.445 1.817-4.305 4.295-7.993 7.43-11.07 3.135-3.076 6.796-5.44 10.987-7.091 4.188-1.648 8.646-2.484 13.367-2.505 3.738-.015 7.067.337 9.99 1.057 2.92.72 5.432 1.54 7.535 2.463 2.431 1.056 4.535 2.214 6.311 3.47l-10.249 18.525a34.671 34.671 0 00-3.453-2.284c-1.117-.527-2.449-1.04-3.99-1.531-1.543-.492-3.299-.734-5.266-.726-2.035.009-3.9.384-5.603 1.123a14.373 14.373 0 00-4.462 3.015 13.733 13.733 0 00-2.98 4.458c-.717 1.702-1.068 3.518-1.06 5.449.01 1.932.392 3.744 1.154 5.438a14.032 14.032 0 003.117 4.433c1.317 1.258 2.863 2.252 4.637 2.976 1.774.726 3.71 1.083 5.81 1.074 2.097-.01 3.964-.283 5.603-.824 1.636-.54 3.011-1.143 4.123-1.816a15.183 15.183 0 003.432-2.61l10.408 18.433c-1.764 1.474-3.857 2.782-6.279 3.924-2.095.94-4.614 1.817-7.563 2.628-2.947.813-6.324 1.227-10.126 1.244-5.117.02-9.84-.807-14.176-2.487-4.337-1.68-8.085-4.043-11.246-7.093-3.16-3.048-5.637-6.718-7.424-11.006-1.789-4.287-2.696-9.03-2.72-14.222M317.17 44.265l38.659-.166.079 18.254-17.707.076.033 7.72 17.412-.075.075 17.314-17.412.075.034 8.032 18.396-.079.079 18.254-39.348.17-.3-69.575M387.61 78.173l.93-.004c2.89-.012 4.964-.703 6.232-2.071 1.268-1.365 1.896-3.271 1.885-5.717-.01-2.444-.654-4.346-1.934-5.703-1.28-1.357-3.36-2.027-6.25-2.014l-.93.004.067 15.505zm31.543-7.89c.02 4.822-.788 8.928-2.424 12.323-1.637 3.396-3.879 6.146-6.722 8.254-2.848 2.107-6.176 3.66-9.99 4.654-3.814.995-7.923 1.5-12.326 1.519l.072 16.66-21.978.095-.302-69.888 21.98-.096c4.402-.018 8.515.456 12.336 1.417 3.823.96 7.165 2.482 10.03 4.567 2.862 2.083 5.127 4.816 6.794 8.195 1.665 3.382 2.508 7.48 2.53 12.3zM491.358 61.485l-12.1.052-.079-18.411 45.84-.198.079 18.411-12.1.053.224 51.76-21.641.094-.223-51.761M449.507 40.926l-12.601 21.575 20.364-9.295-7.763-12.28M466.244 93.061l-29.783 16.721 52.497-.227-26.272-44.671-9.694 9.133 6.666 9.512 6.586 9.532M432.645 72.95l-19.729 36.934 11.567-.051 18.392-22.651-10.23-14.232"/><path fill="#A12931" d="M453.231 74.038L441.759 88.99l14.236-10.997-2.764-3.955"/></g></svg>