<svg xmlns="http://www.w3.org/2000/svg" width="277" height="62" viewBox="0 0 277 62"><path fill="#41AC47" fill-rule="evenodd" d="M148.128 43.024c-3.008 3.05-6.608 4.586-10.78 4.586-3.373 0-6.242-.69-9.168-2.387v-6.994c2.355 1.594 5.31 3.114 8.23 3.114 6.084 0 9.708-4.184 9.708-10.114 0-5.935-3.75-10.244-9.835-10.244-2.722 0-4.923.977-6.646 2.933-1.847 2.122-2.8 5.153-2.8 9.16v27.617h-.459a6.07 6.07 0 01-6.072-6.066V32.043c0-9.584 5.866-17.323 15.948-17.323 4.975 0 9.019 1.7 12.084 5.115 2.882 3.19 4.311 7.237 4.311 12.102 0 4.332-1.506 8.034-4.52 11.087zm70.714-.232c-2.998 3.214-6.855 4.818-11.535 4.818-4.934 0-8.959-1.702-12.02-5.117-2.879-3.23-4.311-7.278-4.311-12.102 0-8.538 6.599-15.67 15.275-15.67 3.35 0 6.258.703 9.196 2.314v7.064c-2.357-1.594-5.314-3.114-8.23-3.114-6.084 0-9.709 4.183-9.709 10.114 0 5.855 3.834 10.244 9.833 10.244 2.716 0 4.955-1.02 6.745-3.066 1.777-2.037 2.702-5.028 2.702-9.047V7.25a6.07 6.07 0 016.075-6.067h.456V30.26c0 5.122-1.482 9.313-4.477 12.531zm18.442-31.177c-.686.767-1.668 1.12-2.869 1.12-2.24 0-3.843-1.653-3.843-3.873 0-2.275 1.575-3.81 3.843-3.81 2.187 0 3.848 1.618 3.848 3.81 0 1.084-.317 2.012-.979 2.753zm33.184 17.615c0-2.57-.974-4.606-2.934-6.15-1.762-1.388-3.967-2.095-6.642-2.095-5.91 0-9.704 4.616-9.704 10.307 0 5.48 4.019 10.05 9.644 10.05 3.907 0 6-2.283 8.23-5.123v8.196c-1.137.85-2.444 1.776-3.779 2.32-1.407.588-3.085.875-5.027.875-9.4 0-15.6-7.78-15.6-16.768 0-4.615 1.435-8.43 4.323-11.406 3.068-3.152 7.087-4.716 12.01-4.716 9.334 0 16.011 5.353 16.011 15.025v17.22h-.46a6.07 6.07 0 01-6.072-6.066V29.23zm-89.403-1.846c-.828-2.551-1.86-3.805-4.243-5.132-5.657-3.16-11.227-.472-13.819 5.106l18.062.026zm-4.983 20.13c-4.173.883-8.266.202-12.259-2.026-3.894-2.175-6.506-5.409-7.812-9.677-2.643-8.638 2.773-18.263 11.481-20.595 4.317-1.155 8.459-.631 12.391 1.565 6.534 3.647 8.914 9.29 8.5 16.56l-26.313-.054c.386 2.966 2.228 5.287 4.813 6.73 2.622 1.465 5.035 1.814 7.273 1.12 2.483-.779 4.497-2.803 6.137-4.689l5.363 3.903c-2.189 3.91-5.167 6.224-9.574 7.162zm55.07-32.15h6.529v31.6h-.457a6.07 6.07 0 01-6.073-6.065V15.364zM9.556 46.654C3.17 46.653 0 42.271 0 36.153V12.94c0-3.382 2.718-6.124 6.074-6.124h.457v7.938h11.035v6.327H6.531v15.804c0 2.689 1.19 3.444 3.736 3.444h7.3v6.324h-8.01zM47.49 42.62c-3.23 3.121-7.107 4.685-11.612 4.685-4.463 0-8.32-1.565-11.545-4.685-3.238-3.13-4.853-7.114-4.853-11.916 0-9.368 7.096-16.6 16.398-16.6 4.466 0 8.331 1.577 11.579 4.716 3.258 3.151 4.884 7.124 4.884 11.884 0 4.802-1.615 8.786-4.85 11.916zm30.534-20.19c-.958 1.62-1.7 2.783-2.223 3.484-.577.763-1.145 1.373-1.708 1.793 4.539 1.48 6.23 4.651 6.23 9.375v9.571h-.46c-3.355 0-6.074-2.741-6.074-6.123v-2.8c0-3.056-1.358-5.133-4.573-5.133h-5.932v14.056h-.458c-3.354 0-6.074-2.741-6.074-6.123V6.563c0-3.381 2.72-6.124 6.074-6.124h.458v25.767h1.93c2.12 0 3.517-.73 4.315-2.114l5.488-9.336 7.442-.007-4.435 7.68zm33.715 20.19c-3.226 3.121-7.105 4.685-11.61 4.685-4.463 0-8.32-1.565-11.547-4.685-3.236-3.13-4.85-7.114-4.85-11.916 0-9.368 7.094-16.6 16.396-16.6 4.467 0 8.333 1.577 11.58 4.716 3.257 3.151 4.884 7.124 4.884 11.884 0 4.802-1.615 8.786-4.853 11.916zm-4.713-19.338c-1.8-1.9-4.09-2.853-6.898-2.853-6.01 0-9.608 4.42-9.608 10.275 0 5.775 3.684 10.274 9.608 10.274 5.929 0 9.608-4.499 9.608-10.274 0-3.066-.912-5.526-2.71-7.422zm-64.252 0c-1.8-1.9-4.086-2.853-6.896-2.853-6.011 0-9.608 4.42-9.608 10.275 0 5.775 3.684 10.274 9.608 10.274 5.926 0 9.61-4.499 9.61-10.274 0-3.066-.913-5.526-2.714-7.422z"/></svg>