<svg xmlns="http://www.w3.org/2000/svg" fill="none" viewBox="0 0 156 70"><path fill="#F87171" d="M26.47 39.08a28.6 28.6 0 01-14.85-16.04c-.48-1.6-.14-2.62 1.03-3.05 1.18-.43 2.1.13 2.78 1.67a24.8 24.8 0 0031.8 14.53 2.01 2.01 0 111.37 3.78 28.93 28.93 0 01-22.13-.9zM5.74 27.88a1.97 1.97 0 002.5-1.35l3.02-10.43 9 6.03a1.97 1.97 0 003.09-1.58 2.1 2.1 0 00-.92-1.83l-11.25-7.54a1.98 1.98 0 00-3 1.1L4.37 25.3a2.1 2.1 0 001.36 2.57zm78.92 3.09l-.15.01-.14.04c-.4.08-.77.24-1.08.48-.32.23-.6.51-.84.84a5.4 5.4 0 00-.6 1.05 12.74 12.74 0 00-.66 2.15c-.06.32-.1.6-.11.81a60.61 60.61 0 003.26-3.14c.4-.4.68-.74.8-1.04.13-.3.17-.55.13-.74a.5.5 0 00-.24-.35.62.62 0 00-.37-.11zm.1-2.33c.89-.19 1.6-.12 2.12.22.53.33.87.88 1.03 1.64.1.45.07.94-.06 1.48a5.08 5.08 0 01-.9 1.76c-.46.63-1.12 1.3-1.98 2.05-.84.73-1.93 1.5-3.27 2.35.12.3.34.51.65.63.32.11.7.12 1.16.02.49-.1 1-.28 1.52-.54a13.5 13.5 0 001.54-.9 25.17 25.17 0 003.63-2.96 7.37 7.37 0 01.73-.6l.22-.07a.53.53 0 01.34.03c.1.04.18.09.26.16a.6.6 0 01.18.23c.04.08.06.16.08.22l.04.36c0 .13-.04.3-.15.5a19.43 19.43 0 01-1.44 1.63 20.03 20.03 0 01-3.26 2.79c-.64.44-1.32.84-2.05 1.2-.72.36-1.45.62-2.2.78a3.9 3.9 0 01-1.78 0 4.02 4.02 0 01-2.56-2 4.92 4.92 0 01-.68-3.22c.07-.6.21-1.2.44-1.83a10.37 10.37 0 012.28-3.65 8.9 8.9 0 011.82-1.4c.69-.41 1.46-.7 2.3-.88z"/><path fill="#F87171" d="M97.54 37.54c-.1-.52-.1-1.06 0-1.65.13-.58.3-1.2.53-1.83.24-.64.5-1.3.8-1.96.28-.67.55-1.36.8-2.04.06-.2.12-.38.15-.54a1.4 1.4 0 000-.5.61.61 0 00-.24-.39c-.12-.1-.27-.12-.45-.08-.44.09-.84.27-1.2.55-.37.27-.7.6-1.01.99-.3.38-.6.8-.85 1.27a18.34 18.34 0 00-1.23 2.85l-.46 1.29c-.12.39-.21.81-.29 1.26-.07.45-.16.87-.28 1.27-.1.39-.25.73-.44 1.01-.18.3-.44.48-.8.55a1.2 1.2 0 01-.98-.17c-.28-.2-.45-.47-.52-.81-.04-.2-.04-.5.02-.94a30.86 30.86 0 01.61-3.41 246.86 246.86 0 00.84-3.83l.32-1.49c.1-.5.27-.9.54-1.18.27-.3.56-.47.87-.54.26-.06.52 0 .76.16.25.14.42.4.5.78.06.27.06.6 0 .95l.74-1.06c.27-.38.56-.74.9-1.08a4.88 4.88 0 012.73-1.53c.29-.06.58-.09.86-.07.28.02.54.09.77.2.25.12.47.3.65.52.19.23.33.52.43.88a11.02 11.02 0 011.44-1.74 4.67 4.67 0 013.3-1.25c.33 0 .64.07.92.2.3.11.54.3.74.54.2.25.35.58.43.98.14.64.12 1.28-.06 1.92-.16.64-.4 1.24-.68 1.8-.1.2-.22.43-.39.72-.16.3-.3.6-.45.92-.14.32-.26.64-.35.98-.08.32-.1.6-.05.86.05.23.15.37.3.4.17.04.37.03.6-.02.45-.1.9-.33 1.37-.71.46-.38.9-.8 1.31-1.28a17.81 17.81 0 001.95-2.75.56.56 0 01.2-.2.68.68 0 01.81.05c.19.13.32.34.38.61.04.22.03.47-.05.75-.07.28-.24.58-.5.9-.45.67-.93 1.33-1.43 1.97-.49.63-1 1.2-1.53 1.73-.53.51-1.07.95-1.64 1.32-.56.36-1.14.6-1.74.74-.79.17-1.47.11-2.04-.16-.55-.27-.92-.8-1.09-1.62a3.86 3.86 0 01-.01-1.57c.1-.51.26-1.01.46-1.5.2-.5.43-1 .68-1.47a10.8 10.8 0 00.76-1.93c.03-.18.02-.35-.01-.5a.61.61 0 00-.23-.4.527.527 0 00-.45-.08c-.44.1-.84.28-1.2.56-.37.26-.7.6-1.01.98-.31.38-.6.8-.85 1.27a18.6 18.6 0 00-1.23 2.85l-.46 1.29c-.12.4-.22.81-.29 1.27-.07.45-.16.87-.28 1.26-.1.4-.25.73-.44 1.01-.18.3-.45.48-.8.56-.12.03-.27.03-.43 0a1.5 1.5 0 01-.45-.1 1.4 1.4 0 01-.37-.24.84.84 0 01-.2-.35z"/><path fill="#F87171" d="M119.3 24.34c-.5.11-.97.34-1.38.7-.41.35-.76.78-1.03 1.27-.27.5-.46 1.03-.56 1.6-.11.55-.1 1.1 0 1.61.05.22.1.44.18.67.08.22.18.41.32.58.14.18.3.3.5.4.2.09.46.1.76.04.23-.05.48-.2.75-.48.27-.28.54-.61.8-1a14.15 14.15 0 001.8-3.77c.09-.33.12-.56.1-.7a.83.83 0 00-.33-.5 1.86 1.86 0 00-.6-.33 2.37 2.37 0 00-.7-.11c-.24-.02-.45-.01-.62.02zm11.92 1.79c-.16.22-.36.52-.61.91s-.55.82-.88 1.28a30 30 0 01-1.07 1.41c-.38.47-.78.92-1.2 1.33-.42.41-.84.76-1.26 1.05-.43.3-.85.5-1.26.59-.38.08-.71.07-1.01-.04-.3-.1-.57-.26-.8-.48a2.94 2.94 0 01-.57-.78 4.12 4.12 0 01-.4-2.31c-.24.52-.52 1.06-.84 1.63-.32.56-.68 1.09-1.08 1.59-.4.49-.84.9-1.32 1.27-.47.36-.97.6-1.51.72-.28.06-.62.07-1.01.03a3.2 3.2 0 01-2.2-1.14c-.3-.36-.52-.83-.64-1.42-.1-.44-.14-.97-.14-1.6a12.35 12.35 0 01.83-4.2c.3-.73.67-1.41 1.14-2.03a7.22 7.22 0 011.7-1.65 6.23 6.23 0 012.36-1c.46-.1.88-.13 1.26-.1.38.05.7.12.98.2.3.11.6.25.85.4a9.61 9.61 0 01.95-.68 1.47 1.47 0 011.5-.07c.3.17.49.39.54.66.02.07.03.13.02.18a31.89 31.89 0 00-.6 5.68c0 .36.03.66.08.9.06.32.17.58.33.77.14.18.35.24.6.19.16-.03.34-.12.53-.26a11.03 11.03 0 001.29-1.31 26.03 26.03 0 002.17-3.08c.14-.17.29-.28.45-.31.21-.05.41.02.6.2.19.18.3.4.36.65.06.3.02.57-.14.82z"/><path fill="#F87171" d="M134.71 20.9c-.23.85-.44 1.68-.64 2.5l-.56 2.22c-.07.29-.14.61-.2.98-.04.36-.04.66.02.92a.6.6 0 00.17.33c.09.07.22.09.37.05.23-.04.5-.17.8-.37.32-.2.65-.46 1-.76a31.15 31.15 0 004.04-4.4c.14-.16.29-.25.44-.28.18-.04.34 0 .5.14.14.14.25.33.3.57.05.25.05.51-.02.8-.06.27-.22.57-.48.88-.56.78-1.13 1.53-1.72 2.24-.59.72-1.18 1.37-1.8 1.96-.6.57-1.2 1.06-1.84 1.46-.62.4-1.25.67-1.9.8-.42.1-.79.11-1.1.05-.3-.04-.57-.14-.8-.3a1.9 1.9 0 01-.5-.6 3.2 3.2 0 01-.3-.83 5.68 5.68 0 01-.08-1.72c.06-.62.16-1.18.28-1.69l.53-2.17.53-2.07-.69.15c-.6.13-1.02.12-1.29-.03a.87.87 0 01-.47-.58c-.02-.11-.02-.24.01-.4.04-.18.12-.35.22-.5.1-.17.25-.33.42-.46.17-.14.38-.23.62-.29l1.72-.36 1.95-7.43c.13-.45.33-.8.6-1.03.28-.25.6-.4.93-.48.32-.07.63-.05.94.07.3.11.49.37.57.76.05.2.04.42 0 .66l-.2.8a73.85 73.85 0 01-.8 2.6 1165.34 1165.34 0 01-.98 3.4l5.2-1.1c.26-.05.5-.09.72-.1.22-.02.4 0 .57.05.18.04.33.12.44.24.11.12.2.3.25.53.02.12.02.24 0 .37 0 .12-.05.24-.13.36s-.2.23-.37.33c-.15.1-.37.2-.64.27l-6.63 1.46z"/><path fill="#F87171" d="M84.66 30.97v.25-.25zm-.3.05l.06.24-.05-.24zm-1.91 1.32l.2.15-.2-.15zm-.6 1.05l-.23-.1.23.1zm-.4 1.12l.24.08-.24-.08zm-.26 1.03l-.25-.05.25.05zm-.11.81l-.25-.02-.06.6.46-.39-.15-.19zm1-.9l-.17-.18.18.18zm1.77-1.75l-.18-.17.18.17zm.48-.49l.17.19-.17-.19zm.81-1.04l.23.1-.23-.1zm.13-.74l-.24.05.24-.05zm-.24-.35l-.14.2.01.01.13-.21zm1.93 2.66l.2.15-.2-.15zm-1.99 2.05l.17.19-.17-.2zm-3.27 2.35l-.13-.21-.18.11.08.2.23-.1zm.65.63l-.09.24.1-.24zm1.16.02l.05.25-.05-.25zm1.52-.54l.1.23h.01l-.11-.23zm1.54-.9l-.14-.22.14.21zm1.46-1.07l.15.2-.15-.2zm1.24-1.05l-.16-.2.16.2zm.93-.84l-.17-.18.17.18zm.5-.44l.15.2h.02l.01-.02-.18-.18zm.23-.16l-.08-.24.08.24zm.22-.07l.06.25-.06-.25zm.34.03l-.1.23h.02l.08-.23zm.26.16l-.19.18.02.01.01.01.16-.2zm.18.23l-.23.1v.01l.23-.1zm.08.22l.24-.05-.24.05zm.04.36l.25-.01-.25.01zm-.15.5l.21.14.01-.02-.22-.12zm-.45.55l-.19-.17.2.17zM89 38.23l.17.19-.17-.2zm-1.8 1.4l-.14-.2.14.2zm-2.05 1.2l-.1-.22.1.23zm-2.2.8l.06.24-.06-.25zm-1.78-.01l-.06.24.06-.24zm-1.47-.73l-.16.2.16-.2zm-1.76-4.5l.24.04-.24-.03zm.43-1.82l.23.08-.23-.08zm.9-1.89l-.21-.13.2.13zm3.2-3.17l-.13-.21.13.21zm15.07 8.03l-.24.05v.02l.24-.07zm0-1.65l-.24-.05.24.05zm1.32-3.79l.23.1-.23-.1zm.8-2.04l-.23-.09.23.09zm.16-.54l.24.05-.24-.05zm0-.5l-.25.05.24-.05zm-.24-.39l-.16.2h.01l.15-.2zm-.45-.08l-.05-.25.05.25zm-1.2.55l.15.2-.15-.2zm-1.01.99l.2.16-.2-.16zm-.85 1.27l-.22-.13.22.13zm-.68 1.43l-.23-.1.23.1zm-1.01 2.7l-.24-.08v.02l.24.07zm-.29 1.27l.25.04-.25-.04zm-.28 1.27l-.24-.07.24.07zm-.44 1.01l-.2-.14.2.14zm-.8.55l.06.25-.05-.25zm-1.5-.98l.24-.05-.24.05zm.24-2.46l-.24-.05.24.05zm.82-3.87l-.24-.06.24.06zm.41-1.85l-.24-.05.24.05zm.32-1.49l.25.05-.25-.05zm.54-1.18l-.19-.17.19.17zm.87-.54l.05.25-.05-.25zm.76.16l-.14.2.02.01.12-.21zm.5.78l.24-.05-.24.05zm0 .95l-.25-.04.46.18-.2-.14zm1.63-2.14l.18.18-.18-.18zm2.73-1.53l.05.24-.05-.24zm1.64.14l-.1.22.1-.22zm.65.51l-.2.16.2-.16zm.43.88l-.24.07.15.53.3-.46-.2-.14zm.65-.9l.2.17-.2-.16zm.78-.84l-.16-.2v.01l.17.19zm2.28-1.16l.05.25-.05-.25zm1.95.1l-.1.23h.01l.1-.22zm.74.55l-.2.16.2-.16zm.43.98l.25-.05-.25.05zm-.06 1.92l-.24-.06.24.06zm-.68 1.8l-.23-.11.23.11zm-1.19 2.62l.24.06-.24-.06zm-.05.86l-.24.05.24-.05zm.3.4l-.05.25.06-.25zm.6-.02l.05.24-.05-.24zm1.37-.71l-.16-.2.16.2zm1.31-1.28l.19.16-.19-.16zm1.14-1.48l.2.14-.2-.14zm.81-1.27l.22.13-.21-.13zm.44-.3l.05.24-.05-.25zm.56.14l-.15.2h.01l.14-.2zm.39.62l.24-.05-.25.05zm-.54 1.64l-.2-.16v.01l-.01.01.2.14zm-1.44 1.98l.2.15-.2-.15zm-1.53 1.73l.17.18-.17-.18zm-1.64 1.32l-.14-.21.14.2zm-1.74.74l-.05-.25.05.25zm-2.04-.16l-.1.23.1-.23zm-1.09-1.62l-.24.05.24-.05zm.45-3.07l.23.1v-.01l-.23-.1zm1.28-2.87l-.23-.09.23.09zm.16-.54l.24.05-.24-.04zm-.01-.5l-.24.06.24-.06zm-.23-.38l-.16.2h.01l.15-.2zm-.45-.09l-.06-.24.06.24zm-1.2.56l.14.2h.01l-.15-.2zm-1.01.98l.2.16-.2-.16zM102.5 30l-.22-.12.22.12zm-.68 1.43l-.23-.1.23.1zm-1.01 2.71l-.24-.09v.01l.24.08zm-.57 2.53l-.24-.07.24.07zm-.44 1.01l-.2-.13.2.13zm-.8.56l-.05-.25.05.25zm-.43 0l.04-.24h-.02l-.02.25zm-.45-.1l-.1.23.1-.23zm-.37-.24l-.18.18h.01l.17-.18zm18.58-9.99l.24.05-.24-.05zm0 1.62l-.24.06.24-.06zm.18.67l-.24.07v.02l.24-.09zm.82.98l-.1.23.1-.23zm.76.04l-.05-.24.05.24zm.75-.48l.18.18-.18-.18zm.8-1l.21.13-.2-.14zm.77-1.29l.22.12-.22-.12zm1.12-3.18l.25-.05-.25.05zm-.32-.5l-.16.2h.01l.15-.2zm-1.3-.44l-.03.25h.02v-.25zm11.3 1.8l.21.15-.2-.14zm-1.48 2.2l-.2-.15.2.15zm-1.07 1.41l.2.16-.2-.16zm-1.2 1.33l-.18-.18.18.18zm-1.26 1.05l-.14-.2.14.2zm-3.07.07l-.18.18.18-.18zm-.57-.78l-.22.1.22-.1zm-.34-.98l.25-.06-.25.05zm-.09-.67l.25-.02-.25.02zm.03-.66l.25.04-.48-.14.23.1zm-.84 1.63l-.22-.12.22.12zm-1.08 1.59l.2.16-.2-.16zm-1.32 1.27l-.15-.2.15.2zm-1.51.72l-.05-.24.05.24zm-1.01.03l.02-.25-.02.25zm-2.84-2.56l-.25.05.25-.05zm-.14-1.6l-.25-.01h.25zm.2-2.03l-.24-.04.25.04zm.63-2.17l-.23-.1.23.1zm1.14-2.03l.2.15-.2-.15zm1.7-1.65l.14.2-.14-.2zm2.36-1l-.06-.25.06.24zm2.24.1l.08-.23-.08.23zm.85.4l-.13.22.15.1.14-.12-.16-.2zm.5-.38l.14.2-.14-.2zm.45-.3l.13.22-.13-.22zm.45-.2l.05.25-.05-.25zm1.6.79l-.25.05.24-.05zm.01.18h.25-.25zm-.09.82l-.25-.04.25.04zm-.15 1.12l.25.03-.25-.03zm-.18 1.27l-.24-.03.24.03zm-.18 2.47h.25-.25zm.08.9l.24-.05-.24.05zm.33.77l-.2.16.2-.16zm.6.19l.05.24-.05-.24zm.53-.26l.15.2-.15-.2zm1.29-1.32l.2.16-.2-.16zm.66-.84l.2.15-.2-.15zm1.5-2.23l-.19-.15-.01.02.2.13zm.46-.31l-.05-.24.05.24zm.6.2l-.18.18v.01l.17-.18zm.36.65l.25-.05-.25.05zm3.35-4.41l-.05-.24-.15.03-.04.14.24.07zm-.64 2.5l.25.05-.25-.06zm-.56 2.22l-.24-.06.24.06zm-.2.98l-.24-.04.25.04zm.02.92l.24-.05-.24.05zm.17.33l-.17.19.02.01.15-.2zm.37.05l-.05-.24.05.24zm.8-.37l.14.21-.13-.2zm1-.76l.16.2v-.01l-.16-.19zm1.08-1.02l.18.18-.18-.18zm1.1-1.15l.18.17-.19-.17zm1.01-1.17l.2.16-.2-.16zm.85-1.07l-.19-.17v.01l-.01.01.2.15zm.44-.27l-.06-.25.06.25zm.3 2.4l-.2-.17v.02l.2.14zm-1.72 2.23l-.2-.16.2.16zm-1.8 1.96l.18.18-.17-.18zm-3.73 2.26l.05.25-.05-.25zm-1.1.05l.04-.24h-.01l-.04.24zm-.8-.3l-.16.2.01.01.15-.2zm-.52-.6l-.22.11.22-.12zm-.29-.83l.25-.05-.25.05zm.2-3.4l.24.05-.24-.06zm.53-2.18l-.25-.06.25.06zm.53-2.07l.24.07.1-.4-.4.09.06.24zm-.69.15l.05.24-.05-.24zm-1.76-.61l-.25.05.25-.05zm.01-.4l-.24-.06.24.05zm.22-.5l-.21-.14.2.14zm1.04-.75l.05.25-.05-.25zm1.72-.36l.05.24.16-.03.03-.15-.24-.06zm1.95-7.43l-.24-.07.24.07zm.6-1.03l.17.2v-.01l-.17-.19zm.93-.48l.06.24-.06-.24zm1.51.83l.25-.05-.25.05zm0 .66l-.25-.05.24.05zm-.2.8l-.25-.08.24.07zm-.22.72l.24.08-.24-.08zm-.28.9l-.24-.07.24.07zm-.3.98l-.23-.07.24.07zm-.28 1l-.24-.07.24.07zm-.7 2.4l-.23-.06-.12.4.4-.09-.04-.24zm5.2-1.1l-.04-.24.05.24zm.72-.1l.01.25h.02l-.03-.25zm.57.05l-.07.23h.02l.05-.23zm.69.77l-.25.05.25-.05zm0 .37l-.24-.04v.02l.25.02zm-.13.36l-.2-.15-.01.02.2.13zm-.37.33l-.13-.21.13.21zm-.64.27l.05.24h.02l-.07-.24zM84.65 30.72a1 1 0 00-.2.02l.11.49.1-.01v-.5zm-.2.02l-.13.03.1.49.14-.03-.1-.49zm-.13.03a3 3 0 00-1.18.53l.3.4c.28-.22.6-.36.98-.44l-.1-.49zm-1.18.53c-.34.25-.64.55-.9.9l.4.3c.24-.32.5-.58.8-.8l-.3-.4zm-.9.9c-.24.33-.45.7-.62 1.1l.46.19c.16-.36.35-.7.57-1l-.4-.3zm-.62 1.1a13 13 0 00-.4 1.14l.47.14c.11-.36.24-.72.4-1.1l-.47-.18zm-.4 1.14c-.12.36-.21.71-.28 1.05l.5.1c.06-.32.14-.65.25-1l-.47-.15zm-.28 1.06c-.05.33-.1.6-.11.83l.5.04c.01-.2.05-.47.1-.79l-.49-.08zm.3 1.04c.33-.27.67-.58 1.02-.91l-.35-.36c-.34.32-.67.62-1 .89l.32.38zm1.02-.9l.98-.96-.35-.35-.98.94.35.36zm.98-.96l.8-.8-.37-.35c-.22.23-.47.5-.78.8l.35.35zm.8-.8l.46-.48-.34-.37-.49.5.36.34zm.46-.49c.43-.4.73-.78.87-1.12l-.46-.2c-.1.25-.34.57-.75.96l.34.36zm.88-1.12c.13-.33.2-.63.13-.9l-.48.1c.02.13 0 .32-.12.6l.47.2zm.13-.9a.75.75 0 00-.35-.51l-.26.43c.06.03.1.09.13.19l.48-.1zm-.34-.5a.87.87 0 00-.52-.15l.02.5c.08 0 .15.02.22.06l.28-.41zm-.35-1.99c.85-.18 1.47-.1 1.92.19l.27-.42c-.6-.39-1.38-.45-2.3-.26l.1.5zm1.92.19c.46.29.77.77.92 1.48l.5-.1a2.67 2.67 0 00-1.15-1.8l-.27.42zm.92 1.48c.09.4.07.86-.05 1.37l.49.12c.13-.57.16-1.1.05-1.6l-.49.1zm-.05 1.37c-.12.5-.4 1.06-.85 1.68l.4.3c.48-.66.8-1.28.94-1.86l-.49-.12zm-.85 1.67c-.45.6-1.1 1.28-1.95 2.01l.33.38c.86-.75 1.54-1.44 2.02-2.09l-.4-.3zm-1.95 2c-.83.73-1.91 1.5-3.24 2.34l.27.42a28.38 28.38 0 003.3-2.37l-.33-.38zm-3.34 2.64c.15.37.42.63.8.78l.17-.47a.84.84 0 01-.5-.5l-.47.2zm.8.78c.37.13.8.13 1.29.03l-.1-.49c-.43.1-.77.08-1.02-.01l-.17.47zm1.29.03c.51-.11 1.04-.3 1.58-.56l-.22-.45c-.51.25-1 .42-1.46.52l.1.49zm1.58-.56a16.6 16.6 0 001.57-.93l-.28-.42c-.49.34-1 .64-1.52.9l.23.45zm1.57-.93c.5-.35 1-.7 1.47-1.08l-.3-.39c-.47.36-.95.72-1.45 1.05l.28.42zm1.47-1.08c.47-.38.89-.73 1.26-1.06l-.33-.37c-.37.32-.78.67-1.24 1.04l.31.4zm1.26-1.05l.93-.84-.35-.37c-.23.23-.54.5-.91.83l.33.38zm.93-.84c.25-.24.4-.37.48-.43l-.3-.4c-.1.07-.27.23-.52.46l.34.37zm.51-.45c.07-.07.12-.1.14-.11l-.17-.47a.9.9 0 00-.33.23l.36.35zm.14-.1l.19-.06-.1-.5a2.1 2.1 0 00-.26.08l.17.47zm.19-.06c.08-.02.14-.01.18 0l.21-.45a.78.78 0 00-.5-.04l.1.49zm.2.02a.4.4 0 01.15.1l.37-.35a.9.9 0 00-.35-.22l-.17.47zm.18.12c.05.04.08.08.1.14l.46-.21a.84.84 0 00-.25-.32l-.3.4zm.11.14c.04.07.05.12.06.16l.5-.1a1.21 1.21 0 00-.1-.28l-.46.22zm.06.16l.04.32.5-.02-.05-.4-.49.1zm.04.32c0 .07-.02.2-.12.38l.45.22c.1-.21.18-.42.17-.62l-.5.02zm-.1.35c-.04.05-.17.22-.44.52l.38.33.47-.57-.42-.28zm-.44.53c-.24.29-.57.64-.98 1.06l.36.35c.42-.42.75-.79 1-1.1l-.38-.31zm-.98 1.06c-.4.42-.88.88-1.44 1.37l.33.38c.57-.5 1.06-.97 1.47-1.4l-.36-.35zm-1.44 1.37c-.55.48-1.14.94-1.78 1.39l.28.4c.66-.45 1.27-.92 1.83-1.41l-.33-.38zm-1.78 1.39c-.63.44-1.3.83-2.01 1.18l.21.45c.74-.36 1.43-.77 2.08-1.22l-.28-.41zm-2.02 1.18c-.7.36-1.42.61-2.14.77l.1.49a9.27 9.27 0 002.27-.81l-.23-.45zm-2.14.77c-.6.13-1.16.12-1.67 0l-.12.48c.6.15 1.23.15 1.9 0l-.1-.48zm-1.67 0c-.5-.14-.96-.36-1.38-.69l-.3.4c.46.36.98.62 1.56.77l.12-.48zm-1.37-.68c-.4-.33-.75-.73-1.03-1.2l-.43.24c.3.53.69.98 1.14 1.35l.32-.4zm-1.03-1.2c-.28-.5-.48-1.02-.6-1.59l-.5.1c.14.63.36 1.2.67 1.73l.43-.25zm-.6-1.59c-.1-.43-.11-.92-.05-1.48l-.5-.06c-.06.6-.05 1.15.06 1.64l.49-.1zm-.05-1.49c.07-.57.2-1.16.42-1.77l-.47-.17a8.27 8.27 0 00-.44 1.9l.5.04zm.42-1.77c.22-.61.51-1.22.88-1.84l-.42-.25c-.4.64-.7 1.28-.93 1.92l.47.17zm.88-1.84c.38-.62.83-1.2 1.34-1.72l-.35-.35a9.72 9.72 0 00-1.41 1.82l.42.25zm1.34-1.72c.52-.52 1.1-.97 1.77-1.36l-.25-.43c-.7.4-1.32.89-1.87 1.44l.35.36zm1.77-1.36c.67-.4 1.41-.67 2.23-.85l-.1-.49c-.87.19-1.66.49-2.38.9l.25.44zm15.2 7.75a3.9 3.9 0 010-1.54l-.5-.1a4.39 4.39 0 000 1.75l.5-.1zm0-1.53c.12-.58.3-1.18.52-1.8l-.47-.18c-.24.65-.42 1.28-.54 1.87l.49.1zm.52-1.8c.23-.64.49-1.29.78-1.95l-.46-.2c-.3.67-.56 1.33-.8 1.97l.48.17zm.78-1.95c.3-.68.56-1.37.8-2.06l-.46-.17a33 33 0 01-.8 2.03l.46.2zm.8-2.06c.08-.2.14-.4.17-.57l-.49-.1c-.03.15-.07.32-.14.5l.47.17zm.17-.58c.04-.2.04-.4 0-.6l-.5.11c.03.13.04.26.01.4l.5.1zm0-.6a.87.87 0 00-.33-.53l-.3.4c.06.05.11.12.14.24l.49-.1zm-.32-.52a.76.76 0 00-.66-.14l.1.5c.12-.03.2-.01.24.03l.32-.39zm-.66-.14c-.48.1-.91.3-1.3.6l.3.4c.34-.25.7-.42 1.1-.5l-.1-.5zm-1.3.6c-.38.28-.74.63-1.06 1.03l.4.31c.29-.37.61-.68.96-.94l-.3-.4zm-1.05 1.03c-.32.39-.61.83-.88 1.3l.44.25c.25-.46.52-.87.82-1.23l-.38-.32zm-.88 1.3c-.25.48-.48.96-.69 1.46l.46.2c.2-.49.43-.96.67-1.42l-.44-.23zm-.7 1.46c-.2.48-.38.96-.55 1.44l.48.16c.16-.46.34-.93.54-1.4l-.46-.2zm-.55 1.44l-.46 1.28.47.17.47-1.29-.48-.16zm-.46 1.3c-.12.4-.22.83-.3 1.3l.5.07c.07-.44.16-.85.28-1.23l-.48-.14zm-.3 1.3c-.06.43-.15.84-.27 1.23l.48.14c.12-.4.22-.84.3-1.3l-.5-.08zm-.27 1.23c-.1.37-.24.68-.4.94l.41.28c.2-.31.36-.68.47-1.09l-.48-.13zm-.4.95a.94.94 0 01-.65.44l.1.49c.42-.09.75-.31.97-.67l-.43-.26zm-.65.44a.94.94 0 01-.79-.13l-.29.4c.34.25.75.31 1.19.22l-.1-.49zm-.79-.13a1.04 1.04 0 01-.42-.66l-.49.1c.09.4.3.73.62.96l.3-.4zm-.42-.66c-.03-.15-.03-.43.02-.86l-.5-.06c-.05.44-.06.79 0 1.02l.48-.1zm.02-.86c.06-.43.13-.93.23-1.51l-.5-.08c-.1.58-.17 1.09-.22 1.53l.5.06zm.23-1.5c.1-.6.24-1.22.38-1.89l-.48-.1c-.15.66-.28 1.3-.4 1.9l.5.08zm.38-1.89l.44-1.98-.5-.1-.42 1.97.48.11zm.44-1.98l.4-1.85-.48-.1-.41 1.84.49.11zm.4-1.84l.33-1.5-.5-.1c-.07.4-.18.9-.31 1.49l.49.1zm.33-1.5c.09-.47.25-.82.47-1.07l-.37-.33c-.3.33-.5.77-.6 1.3l.5.1zm.47-1.06c.24-.27.5-.41.74-.46l-.1-.5c-.38.09-.71.3-1 .62l.36.34zm.74-.46c.2-.05.38-.01.58.12l.27-.42c-.3-.2-.62-.26-.96-.2l.1.5zm.59.12c.17.1.3.3.38.62l.48-.1a1.36 1.36 0 00-.61-.95l-.25.43zm.38.62c.05.24.05.53 0 .86l.49.08c.06-.38.06-.73 0-1.04l-.5.1zm.45 1.04l.74-1.06-.41-.28-.74 1.06.4.28zm.74-1.06c.26-.37.54-.71.86-1.04l-.36-.35c-.33.35-.64.72-.91 1.1l.4.3zm.86-1.04c.33-.34.7-.64 1.12-.9l-.26-.42c-.46.28-.86.6-1.22.97l.36.35zm1.12-.9c.42-.25.91-.44 1.48-.57l-.1-.48c-.62.13-1.17.34-1.64.63l.26.42zm1.48-.57c.28-.05.55-.07.8-.06l.04-.5c-.31-.02-.62 0-.94.08l.1.48zm.8-.06c.25.02.48.08.68.18l.23-.45c-.27-.13-.56-.2-.88-.23l-.03.5zm.69.18c.2.1.4.25.55.45l.4-.31c-.21-.26-.45-.46-.74-.6l-.21.46zm.56.45c.16.2.3.45.38.79l.48-.14a2.5 2.5 0 00-.48-.97l-.38.32zm.83.86c.19-.3.4-.58.63-.87l-.39-.32c-.24.3-.46.6-.66.91l.42.28zm.64-.88c.22-.3.48-.57.75-.82l-.33-.37c-.3.27-.57.57-.82.89l.4.3zm.75-.82c.29-.25.6-.47.96-.66l-.24-.44a5.7 5.7 0 00-1.05.73l.33.37zm.96-.66c.34-.2.74-.33 1.2-.43l-.1-.5c-.5.11-.95.27-1.34.49l.24.44zm1.2-.43c.33-.07.66-.1.97-.1l.01-.5c-.35 0-.71.03-1.08.1l.1.5zm.97-.1c.3 0 .58.07.83.18l.2-.45a2.57 2.57 0 00-1.02-.23v.5zm.84.19c.25.1.46.25.63.47l.4-.31a2 2 0 00-.84-.63l-.19.47zm.63.48c.18.2.31.49.4.86l.48-.1c-.1-.43-.25-.8-.5-1.09l-.38.33zm.4.86c.12.6.1 1.2-.07 1.8l.48.14c.2-.68.21-1.36.07-2.04l-.49.1zm-.07 1.8a7.91 7.91 0 01-.67 1.76l.45.23c.3-.58.54-1.2.7-1.86l-.48-.12zm-.67 1.76l-.37.71.43.24.4-.72-.46-.23zm-.37.71c-.17.3-.32.61-.47.94l.46.2c.14-.31.29-.61.44-.9l-.43-.24zm-.47.94c-.15.33-.27.67-.36 1.01l.49.13c.08-.32.19-.63.33-.94l-.46-.2zm-.36 1c-.1.36-.12.69-.05 1l.49-.11c-.05-.21-.03-.46.05-.75l-.49-.13zm-.05 1c.06.26.2.52.49.59l.11-.49c-.01 0-.03 0-.04-.03a.47.47 0 01-.07-.18l-.5.1zm.5.59c.2.04.44.03.7-.03l-.11-.49c-.22.05-.38.05-.5.03l-.1.49zm.7-.03c.49-.1.98-.36 1.47-.76l-.32-.39c-.44.37-.86.58-1.26.66l.1.5zm1.47-.76c.47-.38.92-.82 1.34-1.31l-.38-.33a10 10 0 01-1.28 1.25l.32.4zm1.34-1.31c.42-.5.8-1 1.15-1.5l-.4-.29c-.34.5-.72.98-1.13 1.46l.38.33zm1.15-1.5c.35-.51.63-.94.83-1.28l-.43-.25c-.2.32-.46.74-.8 1.24l.4.29zm.83-1.29c.03-.05.07-.09.1-.11l-.26-.42a.8.8 0 00-.27.3l.43.23zm.1-.11c.06-.04.12-.06.17-.07l-.1-.49a.98.98 0 00-.33.14l.27.42zm.17-.07c.1-.02.22 0 .36.1l.3-.4a.92.92 0 00-.76-.19l.1.49zm.37.1c.14.1.23.25.28.48l.49-.1c-.07-.33-.23-.6-.48-.78l-.29.4zm.28.48c.04.16.03.37-.04.63l.48.12c.08-.3.1-.6.05-.86l-.49.1zm-.04.63c-.06.23-.2.5-.45.8l.39.31c.27-.33.46-.66.54-.99l-.48-.12zm-.46.81c-.45.67-.93 1.33-1.42 1.97l.4.3c.5-.64.97-1.3 1.43-1.99l-.41-.28zm-1.42 1.97c-.49.62-1 1.18-1.52 1.7l.36.36c.54-.54 1.06-1.12 1.55-1.76l-.4-.3zm-1.52 1.7c-.51.5-1.04.93-1.6 1.29l.28.42a10.7 10.7 0 001.67-1.35l-.35-.36zm-1.6 1.29c-.53.35-1.08.58-1.66.7l.1.5c.65-.14 1.26-.4 1.84-.78l-.28-.42zm-1.66.7c-.74.16-1.36.1-1.87-.13l-.21.45c.63.3 1.36.35 2.19.17l-.1-.49zm-1.87-.13c-.46-.23-.8-.69-.95-1.45l-.5.1c.19.86.59 1.48 1.23 1.8l.22-.45zm-.95-1.45c-.11-.5-.11-1-.02-1.47l-.49-.1c-.1.55-.1 1.1.02 1.67l.49-.1zm-.02-1.47c.1-.5.25-.98.45-1.46l-.46-.2c-.21.51-.37 1.03-.48 1.56l.5.1zm.45-1.46c.2-.5.43-.98.67-1.45l-.44-.22c-.25.48-.48.97-.69 1.48l.46.19zm.67-1.45c.25-.48.46-.96.62-1.43l-.47-.16c-.16.44-.36.9-.6 1.37l.45.22zm.62-1.42c.07-.2.13-.4.16-.58l-.49-.1c-.03.15-.08.32-.14.5l.47.18zm.16-.58c.04-.2.04-.4 0-.6l-.5.1c.03.13.04.27.01.41l.5.09zm0-.6a.86.86 0 00-.33-.53l-.3.4c.06.04.11.11.14.24l.48-.1zm-.32-.53a.76.76 0 00-.67-.13l.1.48c.13-.02.2 0 .25.04l.32-.39zm-.67-.13c-.47.1-.9.3-1.3.6l.31.4c.33-.26.7-.43 1.1-.52l-.1-.48zm-1.29.6c-.38.28-.74.62-1.06 1.03l.4.3c.29-.37.6-.68.95-.93l-.29-.4zm-1.05 1.02c-.32.4-.62.83-.88 1.3l.44.25c.25-.46.52-.87.82-1.23l-.39-.32zm-.88 1.31c-.25.47-.48.96-.7 1.45l.47.2c.2-.48.43-.96.67-1.41l-.44-.24zm-.7 1.46c-.2.48-.38.96-.55 1.43l.47.17c.17-.47.35-.94.55-1.41l-.46-.2zm-.55 1.43l-.46 1.28.47.18.46-1.3-.47-.16zm-.46 1.3a10 10 0 00-.3 1.3l.5.07c.07-.44.16-.85.28-1.23l-.48-.14zm-.3 1.3c-.06.44-.16.85-.27 1.23l.48.14a10 10 0 00.29-1.3l-.5-.07zm-.27 1.23c-.1.38-.24.69-.4.95l.41.27c.2-.31.36-.67.47-1.08l-.48-.14zm-.4.95a.94.94 0 01-.65.44l.1.5c.42-.1.75-.32.97-.68l-.43-.26zm-.65.44c-.1.02-.2.03-.34 0l-.07.5c.18.03.35.03.52 0l-.1-.5zm-.36 0c-.13 0-.26-.03-.38-.08l-.19.46c.17.07.35.11.53.13l.04-.5zm-.37-.08a1.15 1.15 0 01-.3-.2l-.34.38c.13.11.28.2.43.28l.2-.46zm-.3-.18a.6.6 0 01-.14-.25l-.48.14c.05.17.14.33.27.46l.36-.35zm21.32-13.62a3.3 3.3 0 00-1.48.75l.32.38c.39-.33.8-.54 1.26-.64l-.1-.49zm-1.48.75c-.44.37-.8.82-1.09 1.34l.44.24c.26-.47.58-.87.97-1.2l-.32-.38zm-1.09 1.34a5.36 5.36 0 00-.6 1.67l.5.09c.1-.54.28-1.05.54-1.52l-.44-.24zm-.6 1.67c-.1.59-.1 1.16.02 1.72l.49-.1c-.1-.5-.1-1 0-1.53l-.5-.1zm.02 1.72c.05.22.1.45.18.68l.48-.14a7.95 7.95 0 01-.17-.65l-.5.1zm.18.7c.09.24.21.46.37.65l.39-.31a1.85 1.85 0 01-.29-.52l-.47.18zm.37.65c.16.2.35.36.58.47l.22-.46c-.16-.07-.3-.18-.41-.32l-.4.31zm.6.47c.26.12.57.12.9.05l-.1-.48a1 1 0 01-.61-.03l-.2.46zm.9.05c.3-.06.6-.26.88-.54l-.36-.35c-.25.25-.46.37-.62.4l.1.5zm.88-.54c.28-.3.56-.65.83-1.05l-.41-.27c-.26.38-.52.7-.78.97l.36.35zm.83-1.05c.28-.4.54-.84.78-1.3l-.45-.23c-.23.44-.48.86-.75 1.26l.42.27zm.78-1.3c.24-.47.45-.92.63-1.36l-.47-.19c-.17.42-.37.86-.6 1.32l.44.23zm.63-1.36c.17-.43.31-.82.41-1.17l-.48-.14c-.1.33-.22.7-.4 1.12l.46.2zm.41-1.17c.05-.17.09-.32.1-.46a.73.73 0 000-.36l-.48.1v.2c-.02.1-.05.23-.1.38l.48.14zm.1-.82c-.05-.27-.19-.49-.4-.65l-.31.4c.13.1.2.2.23.35l.49-.1zm-.4-.65c-.2-.16-.43-.28-.68-.36l-.16.47c.2.07.38.16.52.28l.32-.39zm-.68-.36a2.62 2.62 0 00-.78-.13l-.01.5c.22 0 .43.03.63.1l.16-.47zm-.77-.13a2.49 2.49 0 00-.68.03l.1.49c.14-.03.32-.04.54-.03l.04-.5zm11.1 1.91l-.62.93.42.27.6-.91-.4-.29zm-.62.93c-.25.38-.54.8-.87 1.26l.4.3c.34-.47.64-.9.89-1.3l-.42-.26zm-.88 1.26c-.32.46-.67.93-1.05 1.4l.39.32c.39-.49.74-.96 1.07-1.43l-.4-.29zm-1.05 1.4c-.38.47-.77.9-1.19 1.31l.35.36c.43-.42.84-.87 1.23-1.35l-.4-.31zm-1.19 1.31c-.4.4-.81.75-1.22 1.03l.28.41c.44-.3.87-.66 1.3-1.08l-.36-.36zm-1.23 1.03c-.4.29-.8.46-1.17.54l.1.5c.46-.1.91-.32 1.36-.63l-.29-.41zm-1.17.54c-.33.08-.62.06-.87-.02l-.16.47c.35.12.73.13 1.14.04l-.1-.49zm-.87-.02a2 2 0 01-.71-.43l-.34.36c.26.24.55.42.89.54l.16-.47zm-.7-.43a2.7 2.7 0 01-.53-.72l-.44.23c.16.32.37.6.61.85l.35-.36zm-.52-.71c-.15-.3-.26-.6-.32-.93l-.5.1c.08.37.2.72.37 1.05l.45-.22zm-.32-.93a4.35 4.35 0 01-.09-.63l-.5.03c.02.24.05.47.1.7l.49-.1zm-.09-.63c-.01-.21 0-.41.03-.6l-.5-.08c-.03.23-.05.47-.03.71l.5-.03zm-.45-.74c-.23.5-.5 1.05-.83 1.61l.44.25c.32-.58.6-1.13.85-1.66l-.46-.2zm-.83 1.61c-.3.55-.66 1.06-1.06 1.55l.4.32c.4-.51.78-1.05 1.1-1.62l-.44-.25zm-1.06 1.55c-.38.47-.8.88-1.27 1.23l.3.4c.5-.37.95-.81 1.36-1.31l-.39-.32zm-1.27 1.23c-.44.34-.91.57-1.41.67l.1.5a3.91 3.91 0 001.62-.78l-.31-.39zm-1.41.67c-.25.06-.56.07-.94.03l-.05.5c.42.04.78.03 1.09-.04l-.1-.48zm-.94.03c-.35-.03-.7-.12-1.07-.3l-.21.45c.4.2.82.32 1.24.35l.04-.5zm-1.07-.3a3 3 0 01-.95-.75l-.38.32c.33.38.7.68 1.12.88l.21-.45zm-.95-.75a2.86 2.86 0 01-.6-1.31l-.49.1c.13.62.36 1.14.7 1.53l.39-.32zm-.6-1.31a7.75 7.75 0 01-.13-1.56h-.5c0 .65.05 1.2.14 1.66l.5-.1zm-.13-1.55c0-.63.08-1.29.2-1.98l-.49-.1c-.13.73-.2 1.41-.21 2.07h.5zm.2-1.98c.13-.7.34-1.42.61-2.13l-.46-.18c-.29.74-.5 1.48-.64 2.22l.5.09zm.61-2.13c.28-.71.65-1.37 1.1-1.97l-.4-.3a8.98 8.98 0 00-1.16 2.09l.46.18zm1.11-1.98c.45-.6 1-1.14 1.64-1.59l-.28-.4a7.43 7.43 0 00-1.76 1.7l.4.3zm1.65-1.6a5.97 5.97 0 012.26-.95l-.1-.5c-.94.2-1.76.55-2.46 1.05l.3.4zm2.26-.95c.45-.1.84-.12 1.18-.08l.06-.5a4.2 4.2 0 00-1.35.09l.1.49zm1.18-.08c.37.04.67.1.93.18l.15-.48c-.3-.09-.63-.16-1.02-.2l-.06.5zm.92.18c.3.1.57.23.8.38l.27-.43a4.79 4.79 0 00-.9-.42l-.17.47zm1.1.36l.48-.38-.29-.4a9.5 9.5 0 00-.51.4l.32.38zm.49-.38c.13-.1.28-.2.42-.28l-.24-.44c-.17.1-.33.2-.48.32l.3.4zm.43-.29c.16-.1.28-.14.37-.16l-.1-.49a1.7 1.7 0 00-.53.23l.26.42zm.37-.16c.35-.08.64-.04.88.1l.25-.44c-.37-.2-.79-.25-1.24-.15l.1.49zm.88.1c.26.14.38.31.42.49l.49-.1a1.24 1.24 0 00-.66-.83l-.25.44zm.42.49c.01.06.02.1.01.12l.5.01c0-.07 0-.15-.02-.24l-.5.1zm.01.11c0 .2-.03.47-.09.8l.5.08.1-.85-.5-.03zm-.09.8l-.14 1.12.5.07.14-1.12-.5-.06zm-.14 1.12l-.18 1.28.49.07.18-1.28-.5-.07zm-.18 1.28c-.06.44-.1.87-.14 1.3l.5.04.13-1.28-.5-.06zm-.14 1.3c-.03.42-.05.82-.05 1.2h.5c0-.36.02-.75.05-1.16l-.5-.04zm-.05 1.2c0 .37.02.69.08.96l.5-.1a4.1 4.1 0 01-.08-.86h-.5zm.08.96c.08.34.2.64.38.87l.4-.32a1.57 1.57 0 01-.29-.66l-.49.1zm.38.87c.1.12.23.21.38.26.15.05.31.05.47.01l-.1-.49a.42.42 0 01-.22 0 .3.3 0 01-.14-.1l-.39.32zm.85.27c.21-.04.42-.15.63-.3l-.3-.4c-.17.12-.32.2-.43.21l.1.5zm.63-.3c.21-.17.43-.37.66-.6l-.36-.35c-.21.22-.41.4-.6.55l.3.4zm.66-.6c.22-.23.45-.48.67-.76l-.38-.31c-.22.26-.44.5-.65.72l.36.35zm.67-.76c.24-.28.46-.57.66-.85l-.4-.3c-.2.28-.42.56-.64.84l.38.31zm.67-.85c.48-.67 1-1.41 1.52-2.24l-.42-.27c-.53.82-1.03 1.56-1.5 2.22l.4.29zm1.5-2.22c.12-.15.23-.2.31-.23l-.1-.48c-.24.05-.43.2-.6.4l.4.31zm.31-.23c.11-.02.23 0 .37.14l.35-.35c-.23-.23-.51-.34-.82-.27l.1.48zm.38.16c.15.13.24.3.29.5l.49-.1a1.4 1.4 0 00-.45-.78l-.33.38zm.29.5a.8.8 0 01-.11.63l.42.27c.2-.3.25-.64.18-1l-.5.1zm3.35-4.53l-.64 2.5.49.12c.2-.8.4-1.63.64-2.49l-.49-.13zm-.64 2.5l-.56 2.23.48.13.57-2.24-.49-.12zm-.56 2.23c-.08.3-.15.63-.2 1l.5.08c.05-.36.11-.68.18-.95l-.48-.13zm-.2 1c-.05.38-.05.72.01 1.01l.5-.1c-.06-.22-.06-.5-.02-.84l-.5-.06zm.01 1.01c.04.18.11.35.25.47l.33-.38c-.03-.02-.06-.07-.09-.2l-.49.11zm.27.48a.7.7 0 00.58.1l-.1-.49c-.13.03-.17 0-.18 0l-.3.4zm.58.1c.26-.06.56-.2.88-.4l-.27-.43c-.3.2-.54.3-.72.34l.1.49zm.89-.41c.32-.22.66-.48 1.01-.78l-.32-.38c-.35.3-.67.54-.97.75l.28.41zm1.01-.78c.35-.31.72-.66 1.1-1.03l-.35-.36c-.38.37-.74.7-1.08 1.01l.33.38zm1.1-1.03c.38-.38.75-.77 1.1-1.16l-.37-.34c-.35.39-.71.77-1.08 1.15l.35.35zm1.1-1.16l1.03-1.18-.39-.32c-.31.38-.65.77-1.01 1.16l.37.34zm1.03-1.18l.84-1.07-.4-.3-.83 1.05.39.32zm.83-1.05a.64.64 0 01.3-.2l-.1-.5c-.2.05-.4.18-.57.35l.37.35zm.3-.2c.1-.03.19-.01.29.08l.33-.37a.8.8 0 00-.72-.2l.1.48zm.29.08c.1.09.18.23.22.44l.5-.1a1.28 1.28 0 00-.39-.71l-.33.37zm.22.44c.05.2.04.43-.01.68l.49.1c.06-.3.07-.6.01-.89l-.49.1zm-.01.68c-.05.23-.19.5-.43.78l.39.32c.27-.33.45-.66.53-1l-.5-.1zm-.44.8c-.56.77-1.13 1.51-1.72 2.22l.39.32c.6-.72 1.17-1.47 1.74-2.25l-.41-.3zm-1.72 2.23c-.58.7-1.16 1.35-1.77 1.93l.35.36c.62-.6 1.22-1.26 1.8-1.98l-.38-.31zm-1.77 1.93c-.59.56-1.19 1.04-1.8 1.43l.27.42c.64-.41 1.27-.9 1.88-1.5l-.35-.35zm-1.8 1.43c-.6.38-1.2.64-1.81.77l.1.49a6 6 0 001.98-.84l-.27-.42zm-1.81.77c-.4.08-.74.1-1.01.05l-.1.49c.36.06.76.04 1.21-.05l-.1-.5zm-1.02.05a1.6 1.6 0 01-.7-.26l-.28.41c.26.18.56.3.9.34l.08-.5zm-.68-.25a1.66 1.66 0 01-.45-.53l-.44.23c.15.27.34.5.58.7l.31-.4zm-.44-.53c-.12-.23-.21-.48-.27-.76l-.5.1c.08.32.18.62.32.89l.44-.23zm-.27-.76c-.1-.5-.14-1.06-.08-1.65l-.5-.05c-.06.64-.03 1.24.09 1.8l.49-.1zm-.08-1.65c.06-.6.15-1.15.27-1.65l-.48-.12c-.13.52-.23 1.1-.29 1.72l.5.05zm.27-1.65l.53-2.17-.49-.11-.52 2.16.48.12zm.53-2.16l.53-2.07-.49-.13-.53 2.07.49.13zm.23-2.38l-.68.14.1.5.69-.15-.1-.5zm-.68.14c-.59.13-.94.1-1.12 0l-.24.44c.35.2.86.18 1.46.05l-.1-.49zm-1.12 0c-.21-.11-.31-.25-.35-.41l-.49.1c.07.33.29.58.6.75l.24-.44zm-.35-.41a.79.79 0 01.02-.3l-.5-.1a1.3 1.3 0 000 .5l.48-.1zm.02-.3c.03-.15.09-.29.18-.42l-.42-.27c-.12.18-.2.37-.25.58l.49.1zm.18-.42c.09-.14.21-.28.36-.4l-.31-.39c-.2.15-.35.33-.47.52l.42.27zm.36-.4c.14-.1.3-.19.52-.23l-.1-.49c-.28.06-.53.17-.73.33l.31.4zm.52-.23l1.72-.37-.1-.49-1.72.37.1.49zm1.91-.55l1.96-7.42-.49-.13-1.95 7.42.48.13zm1.95-7.42c.12-.42.3-.71.53-.9l-.33-.39c-.32.28-.54.67-.68 1.15l.48.14zm.53-.91c.25-.22.52-.36.82-.43l-.1-.49c-.4.09-.74.27-1.05.54l.33.38zm.82-.43c.27-.05.53-.03.79.06l.17-.46c-.34-.14-.7-.16-1.07-.09l.1.5zm.79.06c.2.08.35.25.42.58l.49-.1c-.1-.45-.33-.8-.74-.94l-.17.46zm.42.58c.03.17.03.35-.01.56l.48.1c.06-.26.07-.52.02-.76l-.5.1zm-.01.56c-.04.21-.1.47-.2.77l.48.14c.1-.31.16-.58.2-.81l-.48-.1zm-.2.78l-.21.72.48.15.21-.74-.48-.13zm-.2.72l-.29.9.48.14.28-.89-.48-.15zm-.29.9l-.29.98.48.15.3-.99-.49-.14zm-.3.99l-.28.99.48.14.29-1-.48-.13zm-.28 1l-.7 2.4.49.14.69-2.41-.48-.14zm-.4 2.71l5.2-1.1-.1-.5-5.2 1.11.1.5zm5.2-1.1c.24-.06.47-.09.67-.1l-.03-.5a5.1 5.1 0 00-.74.1l.1.5zm.69-.1c.19-.02.34 0 .47.03l.15-.47c-.2-.07-.43-.08-.68-.06l.06.5zm.49.04a.6.6 0 01.3.17l.37-.34a1.1 1.1 0 00-.56-.32l-.11.49zm.3.17c.08.08.15.2.2.41l.48-.1a1.33 1.33 0 00-.3-.65l-.37.34zm.2.41c0 .09.01.18 0 .28l.5.07c.01-.15.01-.3-.02-.45l-.49.1zm0 .3a.4.4 0 01-.1.24l.4.29c.12-.15.19-.32.2-.5l-.5-.03zm-.1.25a.9.9 0 01-.29.25l.26.42c.19-.11.34-.24.45-.4l-.42-.27zm-.3.25c-.12.08-.31.16-.57.24l.14.48c.28-.08.52-.18.7-.3l-.26-.42zm-.55.24l-6.63 1.46.1.48 6.63-1.46-.1-.48zM80.6 63.09c.52-1.44 1.78-3.1 3.75-4.99a38.24 38.24 0 003.33-3.46 5.12 5.12 0 001.15-3.08c0-.84-.21-1.5-.66-1.95-.44-.46-1.07-.6-1.9-.43-1.13.24-1.9.85-2.31 1.82-.24.56-.38 1.4-.41 2.51l-3.62.77c.06-1.7.35-3.12.87-4.26a7.04 7.04 0 015.28-4.09c2-.42 3.6-.18 4.78.73 1.19.9 1.78 2.31 1.77 4.22 0 1.47-.4 2.86-1.24 4.17-.55.87-1.45 1.9-2.71 3.1l-1.48 1.42c-.93.89-1.57 1.52-1.92 1.9-.34.39-.63.8-.86 1.27l8.26-1.76v3.42l-12.95 2.76c.03-1.43.32-2.79.86-4.07zm18.64-5.37c.15.81.43 1.4.84 1.78.43.37 1.04.46 1.84.3.92-.2 1.62-.69 2.1-1.46a5.1 5.1 0 00.72-2.72c0-1-.22-1.81-.67-2.4-.45-.61-1.15-.81-2.11-.6a3.23 3.23 0 00-2.5 1.92l-3.34.54 1.34-11.2 10.42-2.22v3.3l-7.74 1.64-.68 4.47c.58-.51 1.02-.87 1.35-1.06a6.4 6.4 0 011.97-.74 4.9 4.9 0 014.1.78c1.16.86 1.74 2.33 1.74 4.43 0 1.83-.56 3.58-1.68 5.26a7.71 7.71 0 01-5.04 3.22c-1.8.39-3.28.2-4.44-.57-1.15-.76-1.8-2.06-1.93-3.88l3.71-.8zm19.07-13.37c0-.6-.2-1.07-.6-1.4-.4-.34-.9-.45-1.47-.33s-1.06.44-1.47.95c-.4.5-.6 1.06-.6 1.66 0 .6.2 1.07.6 1.41.4.34.9.44 1.47.32a2.51 2.51 0 001.46-.94c.41-.52.61-1.07.61-1.67zm-2.07 5.51a3.85 3.85 0 01-3.43-.75 4.03 4.03 0 01-1.42-3.29c0-1.4.47-2.7 1.42-3.89a5.88 5.88 0 013.43-2.21 3.85 3.85 0 013.43.75 4.03 4.03 0 011.42 3.29c0 1.4-.47 2.7-1.42 3.89a5.84 5.84 0 01-3.43 2.21zm12.68 0c-.57.12-1.06.43-1.47.95-.4.5-.6 1.05-.6 1.65 0 .6.2 1.07.6 1.41.42.34.9.44 1.48.32a2.51 2.51 0 001.47-.94c.4-.51.6-1.07.6-1.67 0-.6-.2-1.06-.62-1.4-.4-.34-.88-.45-1.46-.33zm0 7.24a3.85 3.85 0 01-3.43-.76 4.08 4.08 0 01-1.42-3.29c0-1.4.47-2.7 1.42-3.89a5.88 5.88 0 013.43-2.21 3.85 3.85 0 013.43.76 4.03 4.03 0 011.42 3.28c.01 1.4-.46 2.7-1.42 3.89a5.88 5.88 0 01-3.43 2.22zm-2.07-19.74l1.99-.42-10.56 22.54-2.02.43 10.6-22.55z"/><path fill="#F87171" fill-rule="evenodd" d="M86.14 46.21a6.76 6.76 0 00-5.08 3.92 10.61 10.61 0 00-.83 3.8l3.04-.65c.05-1.02.18-1.83.42-2.4a3.3 3.3 0 012.52-1.98c.89-.19 1.64-.04 2.17.51.5.53.74 1.26.74 2.15a5.4 5.4 0 01-1.22 3.25 38.4 38.4 0 01-3.36 3.5c-1.96 1.88-3.17 3.5-3.68 4.88a10.7 10.7 0 00-.84 3.61l12.38-2.63v-2.84l-8.5 1.8.26-.52c.25-.48.55-.92.91-1.33.36-.39 1-1.03 1.93-1.92l1.48-1.42a17.27 17.27 0 002.67-3.04c.8-1.27 1.2-2.6 1.2-4.02 0-1.85-.57-3.16-1.66-3.99-1.1-.84-2.6-1.1-4.55-.68zm-5.6 3.69a7.32 7.32 0 015.49-4.24c2.05-.44 3.73-.2 5 .78 1.28.97 1.9 2.47 1.89 4.44 0 1.52-.43 2.97-1.29 4.32-.57.9-1.5 1.95-2.75 3.15l-1.49 1.42a43.1 43.1 0 00-1.9 1.9c-.18.2-.35.42-.5.66l7.97-1.7v4l-13.53 2.88.01-.36c.03-1.46.33-2.85.89-4.17.55-1.49 1.84-3.19 3.82-5.08a38.11 38.11 0 003.3-3.43c.74-1 1.1-1.96 1.1-2.91 0-.8-.2-1.36-.58-1.75-.35-.37-.88-.51-1.64-.35a2.74 2.74 0 00-2.11 1.65c-.22.5-.35 1.3-.39 2.41v.22l-4.2.9.02-.37c.06-1.72.35-3.18.9-4.37zm46.12-12.79l2.68-.57-10.86 23.19-2.72.58 10.9-23.2zm.4.5l-10.3 21.9 1.33-.28 10.25-21.9-1.29.28zM116.3 40a5.59 5.59 0 00-3.27 2.12 5.86 5.86 0 00-1.36 3.71c0 1.33.44 2.34 1.32 3.07.87.72 1.93.96 3.2.7a5.56 5.56 0 003.26-2.12 5.85 5.85 0 001.36-3.71c0-1.33-.44-2.34-1.32-3.07a3.56 3.56 0 00-3.2-.7zm-3.71 1.76a6.16 6.16 0 013.59-2.31 4.13 4.13 0 013.67.81 4.31 4.31 0 011.53 3.5c0 1.48-.5 2.84-1.49 4.07a6.12 6.12 0 01-3.59 2.32c-1.41.3-2.65.04-3.68-.82a4.31 4.31 0 01-1.52-3.5c0-1.47.5-2.83 1.49-4.07zm-15.4 1.89l10.98-2.34-.01 3.89-7.77 1.65-.53 3.51c.31-.26.58-.45.8-.59a6.7 6.7 0 012.06-.77 5.18 5.18 0 014.32.83c1.27.93 1.86 2.52 1.86 4.66a9.5 9.5 0 01-1.73 5.41 8 8 0 01-5.22 3.35c-1.84.4-3.4.2-4.64-.61-1.25-.83-1.92-2.22-2.06-4.1l-.02-.25 4.24-.9.05.29c.14.78.4 1.3.75 1.62.33.28.84.39 1.59.23a2.85 2.85 0 001.92-1.33c.45-.74.68-1.59.68-2.57 0-.97-.22-1.7-.62-2.23a1.3 1.3 0 00-.72-.5 2.3 2.3 0 00-1.1 0c-.43.1-.8.22-1.1.4-.52.3-.92.76-1.2 1.36l-.06.14-3.87.63 1.4-11.78zm.52.47l-1.27 10.63 2.83-.46c.32-.64.78-1.14 1.37-1.49.36-.2.78-.36 1.26-.46.51-.1.97-.11 1.38 0 .41.12.75.36 1.01.71.5.66.74 1.53.73 2.58 0 1.07-.24 2.03-.75 2.87a3.42 3.42 0 01-2.3 1.58c-.84.18-1.56.1-2.07-.35-.43-.39-.72-.95-.88-1.66l-3.18.67c.17 1.64.77 2.76 1.78 3.42 1.07.71 2.46.9 4.22.53a7.43 7.43 0 004.86-3.1 8.94 8.94 0 001.63-5.1c0-2.05-.57-3.42-1.63-4.2a4.61 4.61 0 00-3.86-.73c-.75.16-1.38.4-1.89.7-.3.18-.73.52-1.3 1.03l-.59.53.82-5.45 7.71-1.63V42l-9.88 2.1zm16.84-.71c.44-.56.99-.92 1.63-1.06a1.9 1.9 0 011.7.4c.49.39.72.94.72 1.6 0 .68-.23 1.3-.68 1.86-.44.55-.98.9-1.62 1.04-.65.13-1.23.02-1.72-.38-.47-.4-.7-.96-.7-1.63 0-.67.23-1.28.67-1.83zm1.75-.5c-.5.1-.94.38-1.31.85-.36.46-.54.95-.54 1.48s.17.91.5 1.2c.33.26.73.36 1.23.25.5-.1.93-.38 1.3-.84.37-.47.55-.96.55-1.5 0-.52-.18-.9-.5-1.17h-.01a1.33 1.33 0 00-1.22-.27zm12.68 4.33a5.6 5.6 0 00-3.27 2.11 5.8 5.8 0 00-1.36 3.71 3.8 3.8 0 001.32 3.07c.87.73 1.93.97 3.2.7a5.6 5.6 0 003.26-2.12 5.77 5.77 0 001.36-3.7V51c0-1.33-.44-2.34-1.32-3.07a3.56 3.56 0 00-3.2-.7zM125.27 49a6.16 6.16 0 013.59-2.32 4.13 4.13 0 013.67.82 4.31 4.31 0 011.53 3.5c0 1.47-.5 2.83-1.49 4.07l-.22-.18.22.18a6.16 6.16 0 01-3.59 2.31c-1.41.3-2.65.04-3.67-.81a4.37 4.37 0 01-1.53-3.5c0-1.48.5-2.84 1.49-4.07zm0 0l.22.17-.22-.17zm1.95 1.64c.45-.56 1-.92 1.64-1.06a1.9 1.9 0 011.7.4c.49.39.72.94.72 1.61 0 .67-.22 1.29-.66 1.85-.44.55-.99.9-1.63 1.04-.65.13-1.23.02-1.71-.38-.49-.4-.72-.95-.72-1.63 0-.67.23-1.28.66-1.83zm0 0zm1.76-.5c-.5.1-.94.39-1.3.85a2.3 2.3 0 00-.55 1.48c0 .53.18.92.51 1.2.33.26.73.36 1.23.25.5-.1.94-.38 1.3-.84.37-.46.54-.96.54-1.49s-.18-.9-.5-1.18h-.01a1.33 1.33 0 00-1.22-.27z" clip-rule="evenodd"/><path fill="#F87171" stroke="#F87171" d="M73.57 41.3a242.48 242.48 0 00-.29.08l-.71 4.38c-.2 1.26-.37 2.17-.5 2.74a5.53 5.53 0 01-1.12 2.26c-.24.28-.5.5-.79.67-.26.17-.52.29-.78.34-.37.08-.7.04-1-.12-.3-.15-.5-.44-.59-.86-.07-.36-.07-.81.02-1.34l1.26-6.96a483.8 483.8 0 01-7.25 1.8 42.45 42.45 0 01-1.03 4.2c-.4 1.31-.87 2.48-1.41 3.52a10.15 10.15 0 01-1.83 2.56 4.49 4.49 0 01-2.28 1.3c-.66.13-1.3.07-1.94-.2-.19-.05-.4-.18-.66-.37a4.41 4.41 0 01-.72-.7c-.24-.29-.46-.6-.66-.96a4.24 4.24 0 01-.4-1.12 3.1 3.1 0 01.16-1.66l.17-.43c.07-.17.15-.34.25-.51.1-.18.22-.34.34-.47.14-.13.3-.21.48-.25a.61.61 0 01.22 0c.08 0 .15.01.23.06.13.05.29.22.46.49l.57.84c.21.28.43.52.65.74.23.22.45.3.68.25.33-.07.62-.28.9-.63.27-.36.52-.83.75-1.4.25-.6.47-1.3.67-2.08.2-.79.38-1.64.56-2.55-.42-.06-.73-.2-.94-.42a1.62 1.62 0 01-.41-.76.94.94 0 01.05-.54c.08-.2.2-.37.36-.54a2.94 2.94 0 011.43-.85c.18-1.33.33-2.7.45-4.1a294.9 294.9 0 00.54-8.02 424.71 424.71 0 00.25-6.92c0-.45.12-.8.34-1.05.24-.26.51-.42.83-.49.47-.1.86 0 1.18.32.33.3.6.91.79 1.85l.08.36.06.38c.05.37.1.88.13 1.53a63.92 63.92 0 01.06 5.03 98.14 98.14 0 01-.8 10.23 6120.06 6120.06 0 002.74-.56 231.63 231.63 0 014.43-.81h.04c.52-2.82 1.01-5.47 1.49-7.95.47-2.5.92-4.69 1.36-6.56.43-1.9.85-3.4 1.26-4.53.4-1.12.81-1.72 1.2-1.81.43-.09.77-.04 1.03.16.26.17.44.46.52.85.04.21.06.4.05.58 0 .16-.03.35-.06.56l-.5 3.51a1362 1362 0 01-.7 4.51l-.8 5.02-.78 5c.38.02.7.07.96.18.27.09.43.25.48.49.07.3 0 .63-.23.97-.22.32-.65.57-1.3.76z"/></svg>