<svg xmlns="http://www.w3.org/2000/svg" width="27" height="27"><path fill="#fff" d="M0 0h27v27H0z"/><path d="M1 1h1v1H1zM2 1h1v1H2zM3 1h1v1H3zM4 1h1v1H4zM5 1h1v1H5zM6 1h1v1H6zM7 1h1v1H7zM9 1h1v1H9zM10 1h1v1h-1zM11 1h1v1h-1zM12 1h1v1h-1zM15 1h1v1h-1zM17 1h1v1h-1zM19 1h1v1h-1zM20 1h1v1h-1zM21 1h1v1h-1zM22 1h1v1h-1zM23 1h1v1h-1zM24 1h1v1h-1zM25 1h1v1h-1zM1 2h1v1H1zM7 2h1v1H7zM12 2h1v1h-1zM13 2h1v1h-1zM17 2h1v1h-1zM19 2h1v1h-1zM25 2h1v1h-1zM1 3h1v1H1zM3 3h1v1H3zM4 3h1v1H4zM5 3h1v1H5zM7 3h1v1H7zM10 3h1v1h-1zM12 3h1v1h-1zM14 3h1v1h-1zM15 3h1v1h-1zM19 3h1v1h-1zM21 3h1v1h-1zM22 3h1v1h-1zM23 3h1v1h-1zM25 3h1v1h-1zM1 4h1v1H1zM3 4h1v1H3zM4 4h1v1H4zM5 4h1v1H5zM7 4h1v1H7zM11 4h1v1h-1zM12 4h1v1h-1zM14 4h1v1h-1zM16 4h1v1h-1zM17 4h1v1h-1zM19 4h1v1h-1zM21 4h1v1h-1zM22 4h1v1h-1zM23 4h1v1h-1zM25 4h1v1h-1zM1 5h1v1H1zM3 5h1v1H3zM4 5h1v1H4zM5 5h1v1H5zM7 5h1v1H7zM11 5h1v1h-1zM12 5h1v1h-1zM13 5h1v1h-1zM15 5h1v1h-1zM17 5h1v1h-1zM19 5h1v1h-1zM21 5h1v1h-1zM22 5h1v1h-1zM23 5h1v1h-1zM25 5h1v1h-1zM1 6h1v1H1zM7 6h1v1H7zM10 6h1v1h-1zM12 6h1v1h-1zM15 6h1v1h-1zM17 6h1v1h-1zM19 6h1v1h-1zM25 6h1v1h-1zM1 7h1v1H1zM2 7h1v1H2zM3 7h1v1H3zM4 7h1v1H4zM5 7h1v1H5zM6 7h1v1H6zM7 7h1v1H7zM9 7h1v1H9zM11 7h1v1h-1zM13 7h1v1h-1zM15 7h1v1h-1zM17 7h1v1h-1zM19 7h1v1h-1zM20 7h1v1h-1zM21 7h1v1h-1zM22 7h1v1h-1zM23 7h1v1h-1zM24 7h1v1h-1zM25 7h1v1h-1zM9 8h1v1H9zM10 8h1v1h-1zM13 8h1v1h-1zM14 8h1v1h-1zM15 8h1v1h-1zM17 8h1v1h-1zM1 9h1v1H1zM2 9h1v1H2zM4 9h1v1H4zM5 9h1v1H5zM7 9h1v1H7zM10 9h1v1h-1zM13 9h1v1h-1zM15 9h1v1h-1zM16 9h1v1h-1zM19 9h1v1h-1zM25 9h1v1h-1zM2 10h1v1H2zM6 10h1v1H6zM8 10h1v1H8zM11 10h1v1h-1zM16 10h1v1h-1zM20 10h1v1h-1zM21 10h1v1h-1zM22 10h1v1h-1zM23 10h1v1h-1zM24 10h1v1h-1zM3 11h1v1H3zM7 11h1v1H7zM9 11h1v1H9zM10 11h1v1h-1zM13 11h1v1h-1zM15 11h1v1h-1zM16 11h1v1h-1zM19 11h1v1h-1zM22 11h1v1h-1zM25 11h1v1h-1zM3 12h1v1H3zM6 12h1v1H6zM8 12h1v1H8zM16 12h1v1h-1zM19 12h1v1h-1zM20 12h1v1h-1zM21 12h1v1h-1zM22 12h1v1h-1zM23 12h1v1h-1zM24 12h1v1h-1zM25 12h1v1h-1zM2 13h1v1H2zM3 13h1v1H3zM4 13h1v1H4zM5 13h1v1H5zM6 13h1v1H6zM7 13h1v1H7zM8 13h1v1H8zM9 13h1v1H9zM10 13h1v1h-1zM11 13h1v1h-1zM15 13h1v1h-1zM17 13h1v1h-1zM19 13h1v1h-1zM20 13h1v1h-1zM25 13h1v1h-1zM1 14h1v1H1zM2 14h1v1H2zM3 14h1v1H3zM8 14h1v1H8zM11 14h1v1h-1zM13 14h1v1h-1zM14 14h1v1h-1zM16 14h1v1h-1zM21 14h1v1h-1zM24 14h1v1h-1zM1 15h1v1H1zM2 15h1v1H2zM3 15h1v1H3zM4 15h1v1H4zM5 15h1v1H5zM7 15h1v1H7zM9 15h1v1H9zM16 15h1v1h-1zM18 15h1v1h-1zM21 15h1v1h-1zM22 15h1v1h-1zM23 15h1v1h-1zM24 15h1v1h-1zM25 15h1v1h-1zM1 16h1v1H1zM4 16h1v1H4zM8 16h1v1H8zM9 16h1v1H9zM10 16h1v1h-1zM11 16h1v1h-1zM13 16h1v1h-1zM15 16h1v1h-1zM16 16h1v1h-1zM17 16h1v1h-1zM19 16h1v1h-1zM20 16h1v1h-1zM23 16h1v1h-1zM25 16h1v1h-1zM1 17h1v1H1zM3 17h1v1H3zM6 17h1v1H6zM7 17h1v1H7zM11 17h1v1h-1zM12 17h1v1h-1zM13 17h1v1h-1zM14 17h1v1h-1zM17 17h1v1h-1zM18 17h1v1h-1zM19 17h1v1h-1zM20 17h1v1h-1zM21 17h1v1h-1zM23 17h1v1h-1zM24 17h1v1h-1zM9 18h1v1H9zM10 18h1v1h-1zM12 18h1v1h-1zM14 18h1v1h-1zM17 18h1v1h-1zM21 18h1v1h-1zM24 18h1v1h-1zM1 19h1v1H1zM2 19h1v1H2zM3 19h1v1H3zM4 19h1v1H4zM5 19h1v1H5zM6 19h1v1H6zM7 19h1v1H7zM13 19h1v1h-1zM14 19h1v1h-1zM17 19h1v1h-1zM19 19h1v1h-1zM21 19h1v1h-1zM22 19h1v1h-1zM25 19h1v1h-1zM1 20h1v1H1zM7 20h1v1H7zM12 20h1v1h-1zM14 20h1v1h-1zM16 20h1v1h-1zM17 20h1v1h-1zM21 20h1v1h-1zM25 20h1v1h-1zM1 21h1v1H1zM3 21h1v1H3zM4 21h1v1H4zM5 21h1v1H5zM7 21h1v1H7zM9 21h1v1H9zM12 21h1v1h-1zM13 21h1v1h-1zM15 21h1v1h-1zM16 21h1v1h-1zM17 21h1v1h-1zM18 21h1v1h-1zM19 21h1v1h-1zM20 21h1v1h-1zM21 21h1v1h-1zM22 21h1v1h-1zM1 22h1v1H1zM3 22h1v1H3zM4 22h1v1H4zM5 22h1v1H5zM7 22h1v1H7zM9 22h1v1H9zM10 22h1v1h-1zM11 22h1v1h-1zM13 22h1v1h-1zM14 22h1v1h-1zM15 22h1v1h-1zM18 22h1v1h-1zM19 22h1v1h-1zM22 22h1v1h-1zM24 22h1v1h-1zM25 22h1v1h-1zM1 23h1v1H1zM3 23h1v1H3zM4 23h1v1H4zM5 23h1v1H5zM7 23h1v1H7zM10 23h1v1h-1zM12 23h1v1h-1zM17 23h1v1h-1zM18 23h1v1h-1zM20 23h1v1h-1zM21 23h1v1h-1zM23 23h1v1h-1zM24 23h1v1h-1zM25 23h1v1h-1zM1 24h1v1H1zM7 24h1v1H7zM9 24h1v1H9zM12 24h1v1h-1zM15 24h1v1h-1zM18 24h1v1h-1zM20 24h1v1h-1zM21 24h1v1h-1zM23 24h1v1h-1zM24 24h1v1h-1zM25 24h1v1h-1zM1 25h1v1H1zM2 25h1v1H2zM3 25h1v1H3zM4 25h1v1H4zM5 25h1v1H5zM6 25h1v1H6zM7 25h1v1H7zM9 25h1v1H9zM11 25h1v1h-1zM12 25h1v1h-1zM17 25h1v1h-1zM19 25h1v1h-1zM22 25h1v1h-1zM25 25h1v1h-1z"/></svg>