<svg xmlns="http://www.w3.org/2000/svg" width="248.1" height="278" fill-rule="evenodd" clip-rule="evenodd" image-rendering="optimizeQuality" shape-rendering="geometricPrecision" text-rendering="geometricPrecision" viewBox="0 0 198.9 222.9"><defs><style>.str0,.str1{stroke:#15c;stroke-linecap:round;stroke-linejoin:round;stroke-miterlimit:2.61313;stroke-width:1.07}.str1{stroke-width:.53}.fil4{fill:none}.fil3{fill:#15c}.fil2{fill:#e9f3fe}</style></defs><g id="Layer_x0020_1"><path fill="#fff" d="M122 35.4s-18.3-4.1-30.2 3.4a38.2 38.2 0 00-15.5 18.9l-.7 20.2s-7.2-5.3-9-4c-2 1.4-2.6 5-1.7 8 .9 3 2.7 9.4 5.5 11.1 2.8 1.8 7 .6 7 .6l-.8 17.9c-.3 3.3-1 13.7-3.5 16.2-2.4 2.5-28.7 13.7-33.5 17.5-4.7 3.8-15.9 8.3-21.7 17a98.7 98.7 0 00-14.4 30.3c-1.6 8.7-3.7 24.2-3 29.1H182s-2.8-18.9-2.2-29.1c.6-10.3 0-26.7-7-34.3-7-7.6-20-15.3-26.8-18.1-6.9-2.9-17.7-8.4-17.7-8.4l-4.6-3.8s.7-6.9 2.4-10.9 3-6.1 3-6.1 5.3-6.5 6.2-13.3c1-6.7 1.2-6.6 1.2-6.6s4.2.5 3.4-2.1c-.8-2.6-1.1-4-.7-7.5.3-3.5 1-4.9.4-6.8-.6-2-1.5-2.6-2.8-2.6 0 0-.8-16.8-3.2-24.2-2.3-7.4-7.7-12.2-11.5-12.5z"/><path fill="#fcd957" d="M100.5 0A98.5 98.5 0 01178 159c-4-10.7-42.8-28.5-42.8-28.5-3.8-2-6.4-3.7-6.4-3.7-1-12.6 10-17.6 10.8-30.5 7.5-1 1.3-13.8 3.5-19.3 2.3-5.5-2.2-8.2-2.2-8.2s-.2-10 .5-16.8c.7-6.8-2.3-11.2-2.3-11.2s1-1.2.4-3.7c-.7-2.5-5.8-3.9-5.8-3.9a17 17 0 00-1.1-13.2c-2.7-5-7.5-2.8-7.5-2.8-2.8-3-10.2-3.7-10.2-3.7-25.5-2.2-45.4 19.9-51.4 32.8-6 13-.6 25.2-.6 25.2-5.1 3.5-3.6 9.9.6 19.5 2.8 6.3 6.4 7.6 8.6 7.7.2 5.2 0 20.7-2.7 25-8.9 3.9-50 28.8-51.6 28.5A98.5 98.5 0 01100.4 0z"/><path d="M136.5 72.9l-1.3 18c6.7 2.5 3.5-4.8 3.5-6.1 0-2.1 1.5-9.8.7-11.2-.8-1.4-2.8-2-2.9-.7zm14.3 69.7s13.6 4.6 12.3 40.4c-1.3 35.8 4.1 38 4.1 38s3.5-18.3 7.1-26.4c3.7-8 4.6-23.4-.5-34.7 0 0-3.4-8.3-23-17.3zm-17.4-8.4c1 7-2.5 12.3-8.3 15.8-3.3 1.3-12.2 3.2-29.8-2.5a51.2 51.2 0 01-22.4-15l.4-2 1.4-6.1S87 138 99.2 143.2c19.3 8.1 35-3 27.6-12l6.6 3zM6.5 182.8s6.5-11.9 17.6-8.4c11.1 3.5 16.6 14.4 18.2 36.5 0 0 4.4-35.6-20.3-53.3 0 0-11 11.2-15.5 25.2zm68.8-94.3s-1-15.3-4.7-15.6c-3.8-.2-5 3.2-5.5 6.7-.4 3.4 1.4 8.2 3.8 12 2.5 4 6.8 1.7 6.8 1.7l-.4-4.8zM98.9 110s5.6 5 17.2 3.1c11.6-2 10-6 10-6s-.1 9.3-10 11.6c-9.8 2.4-13.8-.3-17.2-8.8z" class="fil2"/><path d="M84.3 103.8s13.3 28.6 39.5 24.1c0 0 1.4-11.6 4.6-17 0 0-5.9 8.1-17.4 8.4-11.6.2-18.6-4.3-26.7-15.5zm-8-44.7s12.1-18.3 35.7-17c23.6 1.1 22 12.9 22 12.9s-1.5-22-14.3-24.3c-12.8-2.5-40.5 8.2-43.4 28.4z" class="fil2"/><path d="M66.6 72.3C56 49.7 86.4 16 111.1 16.8c24 .7 17.9 20.7 17.9 20.7s6.2.4 8.6 7c2.4 6.7-.8 30.6-.8 30.6l-1-10.1c-.2-1.3-1-14-2.6-16.1-1.6-2.1-2.9-8.8-9.2-13 0 0-15.9-5-30.3 2.3a35.1 35.1 0 00-17.1 19.2s-1.2 17.9.5 27.2C72 76 65.7 74.5 66.6 72.3z" class="fil3"/><path d="M82.7 183l.6-.3.5-.3c1.3-.7 1.2-.6 2.8 0l5.8 2.7c1.4.7 1.2 1.6 1.5 3.3l.4 2.2.3 2 .3 2.1c0 1.2-1 1.4-1.8 2l-2.3 1.3-.6.3-.6.4c-1 .5-1.4.8-2.7.2l-.6-.2-.6-.3-.6-3.2-.6-3.3c-.4-1.3-2-1.4-2-.1 0 .3.1 1.5.4 2.8l.6 3c-1.3-.7-3.2-1-3.8-2.3l-.8-3.7-.8-4.4c-.2-.9-.1-1.1.2-1.6.3-.4 1.1-.7 1.6-1 .3-.2.3-.3.7-.1l5.5 2.4 2.8 1.2.3 2c.3 1.4 2.1 1.2 2 0l-.6-3c0-.4-.5-.7-.7-.9-2.4-1-4.8-2-7.2-3.2zm-6.7 3.6l.8 4.2.8 4.1a5 5 0 002.6 3.4l3.7 1.6 1.5.6c1.5.6 2.6 1.2 4 .8a299.4 299.4 0 015.5-3.1c.5-.3.6-.3 1-.8.6-.6 1-1.8.9-3l-.7-4-.6-4a4.6 4.6 0 00-1.3-2.3l-.6-.5c-1.1-.9-2.8-1.5-4.1-2.1l-1.5-.7c-1.5-.7-2-1-3.5-1-1 0-2 .6-2.8 1l-1.2.7c-1.1.6-2.8 1.4-3.6 2.2-.3.3-.6.8-.7 1.2-.2.4-.3 1.2-.2 1.7zm34 5h-.2c-1.6 0-2.2-3.2-.4-3.3 1.7-.1 2.2 3.3.6 3.3zm-3.2-1.7c.2 1.4.8 2.5 1.9 3 .8.5 1.7.5 2.3-.1l.3-.4c0 1 .2 2-.7 2.3-.9.2-1.7-.3-2-1.2a9 9 0 00-1.2.5c.1.7.7 1.4 1 1.7a3 3 0 003.2.3c.7-.3 1-1 1.2-2v-1.6l-.4-2.8-.4-2.9h-1.5l.1.8-.6-.6c-.6-.4-1.7-.3-2.2 0-.5.4-.8 1-1 1.7v1.3zm18.7.1c-.1-1.1.1-2 1-2 .7-.1 1.4.6 1.4 1.5.1.6.2 1.1-.1 1.6-.7 1-2.2.4-2.3-1.1zm2.2-3c-.2-.1 0-.1-.2-.3l-.3-.2c-.7-.3-1.6-.2-2 .2-.8.4-1.3 1.6-1.2 2.8.1 1 .2 1.5.7 2.4l1 1c.7.4 1.6.5 2.2 0l.4-.6.1.7h1.4l-.5-3.6c0-1.4-.2-2.9-.3-3.8l-.2-1.8c0-.7.2-.5-1.3-.5-.2 0 0 .5 0 .8l.2 3zm5 .7c.6 0 1.2.1 1.3 1.2h-2.2v-.5l.2-.3.1-.2.6-.2zm-2.2 1.8c0 1.5.6 2.7 1.7 3.3 1.2.6 2.8.2 3.2-1.4l.1-.5-1.2-.3c-.2 1.4-2.3 1.2-2.4-.4l3.4-.1c.2 0 .1-.1.1-.3v-.4c-.1-.8-.1-1.3-.7-2-.8-1.4-2.6-1.6-3.5-.6-.5.7-.9 1.5-.8 2.7zm-13.8 2.4c-.4 0-.8 0-1.2-.5-.8-1-.8-3.2.6-3.3.8 0 1.5.8 1.6 1.7 0 .7 0 1-.2 1.5-.1.3-.5.6-.8.6zm-3.2-2.1c.1 1.2.3 2 1.1 2.8 1.1 1.2 2.8 1.3 3.8.3.9-1 1-2.6.5-4-.4-1.3-1.5-2.5-3-2.5-.9 0-1.5.5-1.9 1-.4.7-.7 1.4-.5 2.4zm-11.8-2.1l-.2-.8H100l.5 3.5.6 3.4h1.5l-.5-3.6c-.1-.8-.1-1.6.6-1.7.6-.2 1.3.3 1.4 1.1l.6 4.1h1.5l-.7-4.6c-.1-1-.8-2-1.6-2.3-1-.4-1.8 0-2.2 1zm19.7-.2l-.1-1h-1.4l.4 3.4.3 3.3h1.5l-.3-2.8V189c.3-.5.8-.6 1.3-.6.3 0 .3.4 0-1.7 0-.2-.1-.1-.4-.1-.4 0-.6.1-.9.3-.1.1-.2.1-.2.3l-.1.3h-.1zm16.2-.3v-.9h-1.4l.3 3.3.2 3.2h1.4c0-1-.4-3.4-.1-4 .3-1 1-.8 1.4-.8v-1.7h-.5c-.5 0-.9.2-1.1.7l-.1.2z" class="fil3" id="_2691523450368"/><path d="M72.4 128.3s2.3-1 3.4-9.2c1.2-8.3 1.5-25.5 1.5-25.5s-6.3 2.4-8.9-3c-2.5-5.5-4.3-8.9-3.6-12.9.7-4 3.8-6.9 8.4-3.2.7-29.7 22.7-45.1 50.5-38.9 0 0 9 6.5 10.6 18 .5 3.3 2.5 18.5 2.6 24.2m-7.9 32.6s-7.2 12.4-5.4 26.5" class="fil4 str0"/><path d="M136.4 72s3.2-.4 3.3 3.4c.1 3.8-2 10-.4 11.9 1.6 2-.6 5.3-3.2 3.6M67.6 78s4.6.6 5.4 5.8m-2.3-4.3S68.5 81 69 84.7" class="fil4 str0"/><path d="M83.7 97.9c1.3 13.1 21.9 26.4 35.8 19.8C138 109 135.7 92 136.8 77.8" class="fil4 str0"/><path d="M109 104.1s.7 3 4.8 4 5.3-4.8 5.3-4.8-4.3 3.1-10.1.8z" class="fil2"/><path d="M123.8 128s8.8 6.5 2.3 13.6c-11.5 12.6-44.6-3.5-51.3-17.6m2.5-30l-.8-7.1M129 37.5s6.2-12.8-1-17.3m1 17.3s4.1-1.4 7.5.8m-40.8-.9s-10.2 4-14 20.4m25.5 27s1.6-1.3 3.4-.3c1.8 1 2.5 2 4.2.7 1.7-1.2 3-1.5 4.3-.7m-13.8-3.8s-1.6 2.4-1.3 4.1c.3 1.8 1.7 2.2 2.9 1.6m13.4-6.3s2.4 2.6 1.6 4.9c-.8 2.3-3 1-3 1m-14.8-17.6s-3-3-7-2.9c-4 0-6.3 2.8-6.3 2.8" class="fil4 str0"/><circle cx="96.6" cy="67.7" r="2.2" class="fil3 str0"/><circle cx="123.6" cy="67.5" r="2.2" class="fil3 str0"/><path d="M104.1 68.4c-2.3-6.7-12.4-5-13.8-1.3" class="fil4 str1"/><path d="M117.8 67.9s2.2-2.6 6-2.8a8.7 8.7 0 016 2.5" class="fil4 str0"/><path d="M118.3 67.4s1.3-2.8 4.5-3.5c3.2-.7 6.1.6 7.2 2" class="fil4 str1"/><path d="M104.2 57.9S89.7 53.4 86 61.6c0 0 6.3-2.5 12.5-.9 6.1 1.6 5.8 2 6.8 1.6 1-.5 1.1-4.7 1.1-4.7L105 61l.7-3-1.4-.1zm13.2 3.8s12.4-4.6 15.7 0c0 0-.5-4.4-4-5-3.7-.6-11 .9-11 .9l-.2 1.7-.3-2.3s-.7.1-.9 1.6c-.1 1.5.7 3 .7 3z" class="fil3"/><path d="M99.9 93s6.2.9 11.2 1c5 .2 13.1-2.5 13.1-2.5" class="fil4 str0"/><path d="M101.2 93.2c1.8 4.5 9 7.2 13.2 6.5 5.7-1 8.4-7 8.6-7.8" class="fil4 str0"/><path d="M108.7 104s4.7 2.8 10.4-.7m5.1-19.5s4 2.7 4.6 6m-28-5.6s-4.4 2.5-5.3 6.6" class="fil4" stroke="#15c" stroke-width=".8" stroke-linecap="round" stroke-linejoin="round" stroke-miterlimit="2.613"/><path d="M109 119.4s-7.7 0-10.1-8.8m19.5 7.6s5-1.2 7.4-10.4" class="fil4 str0"/><path d="M125.8 35.6s1.9-17.1-14.3-15.4C95.2 22 82.8 34 72.8 46.2m52.9-15.1c-3.8-16-36.4 4-44 9m47.6-1s7.8 4.7 7.8 13m-5.9-11.6s4.2 6.2 4.7 14.7" class="fil4" stroke="#1e67e6" stroke-width="1.07" stroke-linecap="round" stroke-linejoin="round" stroke-miterlimit="2.613"/><path d="M98.7 36.3s-9 2.3-10.2 12m38.3 82.8s38.4 16.6 45.2 26c6.7 9.6 8.4 19.5 7.7 35.4-.7 15.8 2.2 29.9 2.2 29.9M72.4 128.3s-32 15.3-44.4 24c-12.3 8.9-20.4 25.1-24 38.2C.4 203.6.5 221.6.5 221.6" class="fil4 str0"/><path d="M22 157.6s17.6 13.5 19.2 32c1.6 18.3 1 32 1 32m-.2-22.4s3.5-12 1.9-19m125.6-4.9s6.2 14 1.9 28.3c-4.4 14.3-4.2 17.4-4.2 17.4m4.8-20.2s5.3-12 4.2-18.8m-42.8-47.2s1.2 7.8-5.1 13.3c-8 7-35.5 4.2-53.5-14.1" class="fil4 str0"/></g></svg>