<svg xmlns="http://www.w3.org/2000/svg" width="260.8" height="277.6" fill-rule="evenodd" clip-rule="evenodd" image-rendering="optimizeQuality" shape-rendering="geometricPrecision" text-rendering="geometricPrecision" viewBox="0 0 176.3 187.6"><defs><style>.str0,.str1,.str2,.str7{stroke:#15c;stroke-miterlimit:2.61313}.str7{stroke-width:.45}.str0,.str1,.str2{stroke-linecap:round}.str2{stroke-width:.68}.str0,.str1{stroke-width:.9}.fil3{fill:none}.fil6{fill:#15c}.fil5{fill:#1a1a1a}.fil2{fill:#e9f3fe}.fil0{fill:#fff}</style></defs><g id="Layer_x0020_1"><path d="M89.3 34.1s-8.4-.7-13.7 3c-5.2 3.8-7.1 11.5-8.5 18.4-1.3 6.9-1.9 11.6-1.9 11.6s-1.9-4.7-4.8-2c-2.8 2.7-.7 7.7-.2 8.7l3.6 8.5c.5 1.2 1 4.3 3.7 3 0 0 1.6 9.4 4.2 12.1l-.6 12c0 1.6-.7 4.2-5.3 6.8 0 0-12.1 4.7-18.3 6.3-6.2 1.6-24 7-31 15.4 0 0-9.5 9.3-12 23.2-2.6 13.9-4 25.5-4 25.5h175.3l-2.9-11s-8-30.8-14.1-38.8A49.1 49.1 0 00136 123l-23.2-7.3-.4-12.8s4.8-6 6.3-12.2l1.4-6.1s3.7.9 3.8-4c0-4.8.2-7 1.7-9.3 1.5-2.3 1.7-5.9-.3-7.9s-5.2-.6-5.2-.6-5.4-24.5-9.5-27c-4-2.6-21.4-1.7-21.4-1.7z" class="fil0"/><path fill="#fcd957" d="M90.4 0a83 83 0 0167.4 131.1 33.2 33.2 0 00-8-5.2c-3.6-1.8-9.6-4.9-16-7.2l-17.8-6-.4-8.7c3.6-2.6 6.4-14 7-16.8.3-.1.5-.4.7-.6 1-.3 3.3-1.2 3.4-4 .1-4 .9-7.9 1.4-9.4a16 16 0 001-7.5c-.3-2.4-2.2-4-3.3-4.8.3-.8 1.1-3.4 2.5-6 1.7-3.4-2.5-11.5-2.5-11.5 1.4-1-2.3-5.8-2.3-5.8s-1 .8 1.4-3.2-3-7.3-3-7.3c-8.1-13.2-31.3-10.7-46.3-5A30 30 0 0055 46.5c-1.6 8.3 3 16.9 3 16.9-3 3.3-2.2 9.3-.8 12.3 1.4 3 4.7 8.6 5.1 11.1.5 2.6 2.8 1.9 2.8 1.9l3.1 9.4-.9 12c-1.7 3.3-16.3 8-26.9 10.4-10.5 2.5-19 8.2-19.1 8.3A83 83 0 0190.4 0z"/><path d="M71.1 42.5c2.3-4.2 6-7.6 12.3-8 12.8-1 24.6-.4 28 3.2 3 3.1 3.7 7.5 5 14.2-4-17.4-39.2-13.9-45.3-9.4zm45.8 11.9l.2 1.2-.2-1.2zm-7.6 42.9c-2.1 9-25.7 11.1-28.7 1.4 0 0 2.5 10.9 10 11.2 7.4.3 14.2-.5 15.8-3.5 1.7-3.1 3-9 3-9zm.4 8c8.8-5.8 3.4-16.4 5.8-21.8 2.4-5.4 5.2-18.2 5.2-18.2 2.3 10.7-1.2 33.9-11 40z" class="fil2"/><path d="M89.2 109.9l-2.9-1c-13.1-4.8-17.8-18.1-19-23.4a53.2 53.2 0 01-1.4-18c0 .1 2.2 13.7 7.2 23 5 9.1 5.4 16.1 15 19 .5 0 .8.2 1.1.4z" class="fil2"/><path d="M71 105.8s26.1 15.8 41.2-2.1c0 0-16.2 16.6-39.9-6.8l-1.2 9z" class="fil2"/><path d="M171.6 167.4s-56 36.3-170 5.7c0 0 2.8-25.3 13.6-33.9a65 65 0 0129.6-16 69.5 69.5 0 0023-8.3c3.8-2.6 44 .3 44 .3s30.8 8.6 38.6 14.4c7.8 5.8 13.8 11.7 16 21 2.3 9.3 5.2 16.8 5.2 16.8z" class="fil0"/><path d="M135.4 122.8s24.8 14.3 15.6 47.6c0 0 7.6-6.5 9.4-31.8 0 0-4.1-9.5-25-15.7zM17.3 137s4.8-6.6 22.9-6.3c18 .4 24.9-6 24.9-6s17.7 17.7 44.2 11c0 0 12.8-3.4 12.3-17.6l-10-2.8v1.4c4.5-.2 3.7 5.4 3.7 5.4-1.8 10.5-15.3 12-28.5 8.9-13.2-3.2-21.3-14.7-21.3-14.7-1.8.8-6.5 3-9.9 4-4.2 1.2-14.6 3.2-20.4 5.8-5.8 2.6-13.6 6-18 11zM6.7 153s19.3-.8 28.6 18.2c0 0-4-19.8-19-32.9 0 0-6 5.2-9.6 14.7z" class="fil2"/><path d="M65.5 116.3s27.1 19.7 45.8 5.6l.4-5.2s3-.4 3.6 4c.6 4.3-4.4 12.3-19.2 11.8a39 39 0 01-30.6-16.2z" class="fil2"/><path d="M71.7 97.4l-.6 12.8c-.2 3.5-5.6 6.1-5.6 6.1s9 13.7 27.3 16c18.4 2.2 23-7.5 22.5-11.6-.7-4.2-2.3-4.4-2.3-4.4l-.4-13.4S92 122.2 71.7 97.4z" class="fil3 str0"/><path d="M118.2 93.1c-2.5 9-8.2 11.7-10.2 13-2 1.4-10.5 8-24 1.1-13.4-6.8-14.4-12.8-16.4-21.6a95 95 0 01-.4-30c1.1-6.9 3.4-20.2 16.2-21.2 12.8-1 24.6-.3 28 3.2 3.3 3.6 3.9 8.7 5.5 16.8 3 15.3 5.9 22.8 1.3 38.7z" class="fil3 str0"/><path d="M91.3 96.1s4.3.9 9-.1c0 0-.9 2.5-3 3.5-2.3 1-5.5-1.7-6-3.4z" class="fil2"/><path d="M65.1 65.5s-3.7-3.6-5.6 1.2c-1.8 4.9 2 8.5 3.7 13.8 1.7 5.2 2 5.6 4.3 4.8 0 0-1.3-5.7-2.4-19.8z" class="fil0 str0"/><path d="M120.3 63.6s3.5-2.9 6 .8c2.3 3.6-2.4 9-2.2 11.6.2 2.7.4 9.6-3.9 8.6 0 0 2.1-10.5 0-21z" class="fil0 str1"/><path fill="#15c" d="M118.8 39.3s7.7-9.1-4-15.1c-11.5-6-39-4-48.6 7.7-9.7 11.6-9.8 18.9-5.5 29.3 4.2 10.5 5.5 14.4 6 16.6 0 0 0-21.2 1-25.3 0 0-.1 1.8 1.6 3.3 0 0-1.1-8 2.2-14 3.4-6.1 8.7-7.3 14.6-7.5 6-.2 18-.7 21.7 1.4 3.6 2 5.9 3.1 7.1 9.2 1.3 6 4.6 28.9 5.4 27.5.8-1.5 2.9-13.6 4.8-16.9 2-3.2-3.1-14.8-6.3-16.2z"/><path d="M108.9 98.6s-.6 9-8 10.9M81.1 99c.2 5 3.5 9.3 8 10.4m23.9 6.3s32 8.5 42 17c10 8.4 16.7 40.4 20.8 54M66.2 116s-4.6 3-23.6 7.8c-18.9 4.7-31 16.2-35.4 27.9C2.6 163.4.4 187.2.4 187.2" class="fil3 str0"/><path d="M60.5 118.5c6.9 13.8 32.9 23.5 48.8 17.2m5.4-3c2.5-2 4.5-4.7 5.8-8M90.8 80.5s.9-.2 2.6 1c1.8 1.2 3.2 1.3 4.8-.3 1.6-1.5 2.8-.6 2.8-.6m-12.5-3.3a2.5 2.5 0 001.9 4.5m12.3-4.6c.7.7 1 1.7.8 2.6-.2 1-.9 1.7-1.8 2" class="fil3 str0"/><path d="M83.3 80.6s-3 2-4.3 6.3m28.3-6.9c2.5 2 3.3 3.7 3.9 6" class="fil3 str2"/><path d="M75.6 67.1a6.8 6.8 0 0111.1.3" class="fil3 str1"/><path d="M81.2 64.2a2 2 0 011.6 3.3l-1.5.1-1.6.1a2 2 0 011.5-3.5z" class="fil5"/><path d="M86.4 66.4c-2-3.4-7-5.7-11-1.4m25.8 1.5c1.2-3.9 7-6.7 11.2-2.2" class="fil3" stroke="#15c" stroke-width=".45" stroke-linecap="round" stroke-miterlimit="2.613"/><path d="M112.2 66.2a6.8 6.8 0 00-5.8-2.4c-2.3.2-4 1.1-5.1 3" class="fil3 str1"/><path d="M106 63.7a2 2 0 00-2 2.2c0 .4.2.8.4 1a44.7 44.7 0 013.3.1c.3-.4.5-.9.5-1.4-.1-1.1-1.1-2-2.2-2z" class="fil5"/><path d="M88.3 61.5s.8-1.3.5-2.9l-.4-.1-.8 1.6.3-1.7c-1.5-.5-4.6-1.2-8-1-5 .4-8.2 4.4-8.2 4.4s5.4-2 10.3-1.4c4.8.6 6.3 1 6.3 1zm11.5 0s-1-1.3-.7-2.8l.5-.2.7 1.5-.2-1.7c1.5-.5 4.5-1.3 8-1.2 4.8.1 8.3 4 8.3 4s-5.6-1.8-10.4-1c-4.9.8-6.2 1.4-6.2 1.4z" class="fil6"/><path d="M107.5 87c-.9.5-1.6.3-6.1.5-4.6.3-6 1.1-6 1.1s-1.7-.6-4.6-.6c-2.8-.1-6.7-.1-7.1-.3" class="fil3 str0"/><path class="fil3" stroke="#15c" stroke-miterlimit="2.6" stroke-width=".9" d="M85.3 88c2.3 3.1 6.2 5 10.3 4.8 4.1 0 7.9-2 10-5.3"/><path d="M64.8 74.4s-.6-2.6-3.6-4.6m1.5 1.5s-1.1 1.3-.5 3.3" class="fil3 str2"/><path d="M120.9 71.6s.6-2.6 3.6-4.5m-1.5 1.4s1.1 1.3.5 3.3" class="fil3" stroke="#15c" stroke-width=".68" stroke-linecap="round" stroke-miterlimit="2.613"/><path class="fil3" stroke="#15c" stroke-linecap="round" stroke-linejoin="round" stroke-miterlimit="2.6" stroke-width=".7" d="M90.8 95.5c3.1 1.6 6.7 1.6 9.9 0"/><circle cx="81.3" cy="66.4" r="2.1" class="fil6 str7"/><circle cx="106.2" cy="66" r="2.1" class="fil6 str7"/><path d="M112.8 112.2l-.1 9.8m-96.6 16.2s23.2 20 20.7 48.4m-2.3-20.7s1.5-12.5 0-17.5m125-1.2s-5.2 32.7-20.1 39.4m12.2-14s2.4-9-3.2-16" class="fil3 str0"/><path d="M71 158.2l.5-.2.5-.3c1.2-.4 1.1-.4 2.4.1l4.5 2c1 .5.8 1.1.8 2.4v4.7c-.2.9-1.1 1-1.9 1.4l-2.2 1-.6.2-.6.3c-.9.3-1.3.5-2.4 0-.1 0-.3 0-.4-.2-.2 0-.4 0-.5-.2v-4.8c-.1-1-1.4-1-1.7-.2v4.3c-1-.5-2.5-.8-2.8-1.7v-6c0-.6 0-.7.4-1 .3-.3 1-.6 1.5-.8h.5l4.3 1.8 2.1.9v1.4c.1 1 1.7 1 1.7 0v-2.2c0-.2-.3-.5-.5-.6l-5.6-2.3zm-6 2.5v6c0 1.2.6 2 1.5 2.5l2.9 1.3 1.2.5c1.1.5 2 1 3.2.7.6-.1 2.3-1 3-1.2l2.3-1c.5-.2.6-.2 1.1-.6a3 3 0 001.1-2.2v-6c0-.4-.2-1-.4-1.2l-.3-.5c-.2 0-.3-.2-.4-.3-.9-.7-2.3-1.1-3.3-1.6l-1.1-.5c-1.2-.5-1.6-.7-2.8-.7-.8 0-1.8.4-2.5.7l-1.1.5c-1 .4-2.5 1-3.3 1.5-.3.3-.6.6-.7.9-.2.2-.5.8-.5 1.2zm28.7 4.1h-.2c-1.4 0-1.5-2.5 0-2.6 1.7 0 1.7 2.6.2 2.6zm-2.7-1.4c0 1 .4 1.9 1.3 2.4.7.3 1.6.3 2.2-.2l.3-.2c0 .7 0 1.5-1 1.7-.8.1-1.5-.2-1.5-1l-1.3.4c0 .5.5 1 .8 1.3.8.6 2 .7 2.9.4.7-.3 1-.8 1.3-1.5l.2-1.3v-4.3h-1.4v.6l-.4-.5c-.6-.3-1.6-.2-2 0-.6.3-1 .8-1.2 1.3l-.2 1zm17.7.4c0-.9.3-1.5 1.2-1.6.7 0 1.3.6 1.3 1.3 0 .5 0 .8-.4 1.2-.8.9-2 .2-2-1zm2.5-2.3c-.2 0 0 0-.2-.2l-.3-.2c-.6-.2-1.5-.2-2 .1-.7.4-1.4 1.3-1.4 2.2 0 .8 0 1.1.4 1.9.2.3.6.6 1 .8.6.3 1.4.4 2 0l.5-.4v.5h1.4v-7.1c0-.5.2-.4-1.3-.4-.2 0-.1.4-.1.6v2.2zm4.8.5c.7 0 1.3.2 1.3 1h-2.2v-.3l.3-.3.1-.1.6-.2zm-2.3 1.5c0 1.2.4 2.1 1.4 2.6 1.1.6 2.9.3 3.4-1l.2-.4-1.2-.3c-.3 1.2-2.4 1-2.4-.4h3.5l.1-.2v-.3c0-.6 0-1-.5-1.6-.7-1-2.5-1.3-3.5-.5-.6.5-1 1.2-1 2.1zM100 165c-.4 0-.8 0-1-.3-.7-.7-.5-2.5.9-2.5.7 0 1.2.6 1.2 1.3 0 .5 0 .8-.3 1.2-.1.1-.5.4-.8.4zm-2.8-1.6c0 1 0 1.5.7 2.2 1 1 2.6 1 3.6.3 2-1.5 1.2-5-1.7-5-.8 0-1.4.4-1.8.8-.5.4-.8 1-.8 1.7zm-10.6-1.7v-.6h-1.3v5.1h1.4v-2.7c0-.5.1-1.1.7-1.2.7-.2 1.2.2 1.2.8v3.1H90v-3.4c0-.8-.5-1.5-1.3-1.8-.9-.2-1.5 0-2 .7zm18.4.1v-.7h-1.4v5.1h1.4v-2.1c0-.5 0-.9.3-1.2.3-.4.8-.4 1.3-.4.3 0 .2.3.2-1.3 0-.2-.1-.1-.5-.1-.3 0-.6 0-.8.2-.1 0-.2 0-.3.2l-.1.2-.1.1zm16.2 0v-.7h-1.4v5.1h1.4c0-.7-.1-2.7.2-3.2.4-.7 1-.5 1.6-.5v-1.4h-.5c-.5 0-1 .2-1.2.6l-.1.1z" class="fil6" id="_2691523453440"/><path class="fil3" stroke="#1e67e6" stroke-linecap="round" stroke-miterlimit="2.6" stroke-width=".9" d="M115.6 40s6.8-6.8-5.7-11.7c-12.5-4.9-41.5-6.9-45.7 18.9"/><path d="M117.1 37.6c3.8-15.2-28-17.9-36.4-13.7m36 14.7c1.2-11.3-42.3-17-47.8 4.5m46.5-2.8s5.1.9 8 11.3M117 41s4.6 5.6 4.2 15.6" class="fil3" stroke="#1e67e6" stroke-width=".9" stroke-linecap="round" stroke-miterlimit="2.613"/><path d="M87.3 34.2s-12.1-1.7-12.2 9.6M122.6 32c.1 5.3-3.8 7.3-3.8 7.3s3.6 0 4.7 2.6" class="fil3" stroke-width=".9" stroke-linejoin="round" stroke="#15c" stroke-linecap="round" stroke-miterlimit="2.613"/></g></svg>