<svg xmlns="http://www.w3.org/2000/svg" viewBox="0 0 131 146"><g fill="none" fill-rule="evenodd" transform="translate(.889 .453)"><path fill="#FFF" d="M58.01 32.85s-4.71 4.98-6.39 12.6c-1.68 7.62-4.61 25.63.94 32.23 0 0-13.14 5.61-17.12 7.56-3.98 1.94-16.87 7.88-20.9 15.07-4.04 7.19-4.99 21.77-5.11 26-.12 4.23-.5 18.41-.5 18.41h111.54s.26-16.9-.36-22.08c-.62-5.17-1.75-20.21-11.08-31.16-9.34-10.95-19.52-12.22-19.52-12.22L85.61 67S88 56.22 87.3 49.38c-.7-6.83-2.81-21.81-14.92-22.42-12.11-.62-14.36 5.89-14.36 5.89h-.01z"/><path fill="#FCD957" d="M65.04 0c35.92 0 65.04 29.12 65.04 65.04 0 14.2-4.55 27.33-12.27 38.02-.02-.13-.5-2.74-6.06-12.31-5.71-9.83-21.03-13.63-21.03-13.63l-2.54-10.36s1.69-8.67 3.07-16.7c1.37-8.03.11-16.49-3.7-25.47-3.8-8.98-13.21-12.89-24.1-12.15-10.89.74-21.98 6.66-26 22.41s-1.58 26.63-.1 32.76c1.48 6.13 5.23 11.63 5.23 11.63s-20.66 10.3-25.26 13.9c-4.52 3.54-6.34 7.87-6.39 8.01C4.03 90.82 0 78.41 0 65.05 0 29.13 29.12.01 65.04.01V0z"/><path fill="#E9F3FE" d="M85.8 112.47s-11.65 10.81-17 12.11c0 0 1.35 13.94-.68 19.9l15.55.22s3.99-7.94 3.14-19.45c-.85-11.51-1.02-12.79-1.02-12.79l.01.01zm5.06-6.97s6.09-7.02 6.34-15.21c0 0 15.18-.8 19.15 14.12 0 0-7.14-21.57-26.85-25.15 0 0 .38 21.89 1.36 26.24zm14.61 16.24s-.94 19.39-6.65 22.98h10.36s-.88-7.4-.83-10.75c.05-3.35-2.88-12.23-2.88-12.23z"/><path fill="#E9F3FE" d="M68.47 142.72s-2.17-33.33-17.07-41.89c0 0 14.82 7.1 16.47 19.1 1.65 12 2.66 16.1.6 22.79zm-59.41-3.2s2.66-30.85 11.27-22.2c8.6 8.65-8.34-10.06-8.34-10.06s-2.3 11.53-2.5 17.77c-.2 6.24-.43 14.49-.43 14.49z"/><path fill="#E9F3FE" d="M27.99 89.02s-5.39 9.39-3.54 15.83c1.85 6.44 11.39 27.07 10.05 32.98 0 0 2.12-7.4-7.24-12.95l-15.79-15.44s.3-13.99 16.52-20.41v-.01zm10.84-5.32s-3.21 7.32-.2 10.38c3.01 3.06 13.09 6.19 17.29 9.35 4.2 3.17 7.59 5.92 8.94 8.94 0 0-15.77-29.08-18.75-31.7l-7.27 3.03h-.01zm47.53-24.03c.23-2.62.66-3.05.68-6.68.02-3.64-2.63-17.97-5.71-21.35-3.09-3.38-10.99-7.31-19.46-1.87-2.68 1.72-4.79 3.77-6.44 6.27.12-.12 6.99-6.68 19.69-3.11 12.7 3.57 11.26 26.5 11.25 26.75l-.01-.01zM50.91 49.25s-.88 30.16 18.11 33.55c0 0-29.73 8.57-18.11-33.55z"/><path stroke="#15C" stroke-linecap="round" stroke-linejoin="round" stroke-width=".7" d="M66.96 115.38c-3.02-10.97-21.07-17.43-21.07-17.43s-9.24-3.01-7.66-8.12m43.18 26.03s10.69-7.27 15.27-23.16m-28.06 27.23s2.81 14.17-.54 24.56m17.72-32.02s3.8 24.79-2.37 32.02"/><path fill="#15C" d="M89.26 36.82S87.82 20.18 75.1 16.1C37.92 4.16 30.45 56.34 42.36 74.9c7.47 11.65 27.09 39.57 26.78 49.6 0 0 18.84-8.34 22.74-23.24 0 0 1.22-8.05-1.41-10.04 0 0 1.47-4.48-.15-9.44-1.63-4.96-4.61-15.12-4.61-15.12s2.73-7.66 3.63-16.24c.9-8.58-.07-13.6-.07-13.6h-.01zM50.05 59.68s-.06 13.73 3.82 17.31c3.88 3.58 11.06 5.73 15.16 5.81 4.09.08 11.25-6.09 14.57-11.22 3.32-5.13 3.43-13.38 3.45-18.6.02-5.21-2.63-17.97-5.71-21.35-3.09-3.38-10.99-7.31-19.46-1.87-8.47 5.44-11.29 14.21-11.82 29.91l-.01.01zm-.38 64.28c.12-.03.24-.09.35-.14.11-.05.22-.1.34-.15.82-.33.74-.31 1.59.03l3.07 1.32c.72.36.55.82.55 1.67 0 .39.03.69.03 1.08 0 .39-.03.68-.03 1.06 0 .34.05.79-.02 1.04-.15.6-.74.71-1.26.94l-1.53.66c-.14.06-.24.11-.38.16-.14.06-.27.12-.39.17-.62.25-.88.37-1.6.07-.11-.05-.22-.1-.32-.14-.1-.04-.23-.09-.32-.14v-3.27c-.07-.68-.98-.73-1.13-.11-.07.3-.03 2.48-.03 2.89-.65-.35-1.71-.54-1.9-1.16-.06-.2-.02-3.42-.02-4.01 0-.43.07-.52.29-.74.21-.2.7-.36 1.02-.5.17-.07.19-.12.37-.04.81.37 2.04.85 2.88 1.21l1.45.6c0 .31-.02.7 0 1 .05.67 1.11.62 1.11-.03v-1.46c0-.18-.2-.36-.33-.42l-3.76-1.6s-.01-.01-.02-.01l-.01.02zm-4.11 1.71v4.06c0 .82.5 1.38 1.07 1.72l1.97.85c.27.11.52.22.8.34.78.33 1.36.68 2.19.49.4-.09 1.57-.63 2.03-.82l1.58-.67c.35-.15.4-.14.74-.4.37-.28.76-.87.76-1.52v-4.06c0-.27-.17-.63-.28-.8-.1-.14-.12-.18-.24-.3-.1-.1-.17-.18-.28-.26-.59-.44-1.51-.74-2.21-1.04-.25-.11-.5-.2-.76-.32-.79-.34-1.08-.52-1.91-.52-.53 0-1.16.3-1.65.51-.25.11-.5.21-.76.32-.66.28-1.66.63-2.21 1.04-.19.14-.39.36-.52.56-.12.18-.29.54-.29.82h-.03z"/><path stroke="#498BED" stroke-linecap="round" stroke-linejoin="round" stroke-width=".7" d="M50.05 59.68s-.06 13.73 3.82 17.31c3.88 3.58 11.06 5.73 15.16 5.81 4.09.08 11.25-6.09 14.57-11.22 3.32-5.13 3.43-13.38 3.45-18.6.02-5.21-2.63-17.97-5.71-21.35-3.09-3.38-10.99-7.31-19.46-1.87-8.47 5.44-11.29 14.21-11.82 29.91l-.01.01z"/><path stroke="#498BED" stroke-linecap="round" stroke-linejoin="round" stroke-width=".7" d="M53.86 38.8s3.98-9.51 9.77-12.09c5.79-2.58 12.75-1.89 16.3 1.43m5.99 8.7s2.16 9.25 1.1 15.19"/><path stroke="#15C" stroke-linecap="round" stroke-linejoin="round" stroke-width=".7" d="M67.34 61.59s1.5-.26 2.49.84c.99 1.09 1.69 1.13 2.62.09.93-1.04 1.42-1.07 1.92-.98m.56-2.88c1.36 1.92 1.77 4.98-1.08 4.15m-7.83-4.11c-1.84 2.36-1.19 5.18 1.47 4M64.64 51s-3.31-5.11-8.14-1.69"/><circle cx="59.974" cy="49.705" r="1.445" fill="#15C" stroke="#15C" stroke-linecap="round" stroke-linejoin="round" stroke-width=".649" transform="rotate(.261 59.974 49.705)"/><circle cx="79.388" cy="50.187" r="1.445" fill="#15C" stroke="#15C" stroke-linecap="round" stroke-linejoin="round" stroke-width=".649" transform="rotate(.261 79.388 50.187)"/><path stroke="#15C" stroke-linecap="round" stroke-linejoin="round" stroke-width=".35" d="M64.13 50.36s-2.03-5.12-7.92-2.3"/><path stroke="#15C" stroke-linecap="round" stroke-linejoin="round" stroke-width=".7" d="M75.14 51.2s4.42-4.93 8.16-1.48"/><path stroke="#15C" stroke-linecap="round" stroke-linejoin="round" stroke-width=".35" d="M75.79 50.57s1.91-2.29 3.71-2.86c1.8-.57 3.61.73 3.61.73"/><path fill="#15C" d="M54.74 43.8s1.36-1.49 2.56-1.74 7.83 1.79 8.74 2.08c.9.29.21 1.92.21 1.92s.51-1.21.57-1.74c0 0 .08 1.29-.52 2.26 0 0-9.79-4.44-11.55-2.79l-.01.01zm31.46 1.78s-.44-1.83-1.6-2.21c-1.16-.38-7.99.87-8.92 1.06-.93.19-.43 1.88-.43 1.88s-.37-1.26-.37-1.79c0 0-.23 1.27.25 2.3 0 0 9.5-3.09 11.06-1.25l.01.01z"/><path stroke="#498BED" stroke-linecap="round" stroke-linejoin="round" stroke-width=".7" d="M55.63 78.38s-11.61-8.1-13.87-17.81m1.44-31.59s-2.51 12.69-.83 20.09m47.44 43.42s-5.94 14.69-17.5 16.95m5.4-2.09s6.8-7.89 6.77-16.67m-40-13.92s7.95 8.75 17.89 13.42m4.52 22.7s6.5 5.84 13.33-.2m2.68-40.09s2.67 19.4-14.99 27.17"/><path stroke="#15C" stroke-linecap="round" stroke-linejoin="round" stroke-width=".7" d="M61.78 67.2s2 .85 7.22 1.02c5.22.17 8.42-.54 8.42-.54"/><path stroke="#15C" stroke-linecap="round" stroke-linejoin="round" stroke-width=".7" d="M62.63 67.47s1.5 2.93 6.62 3.1c5.12.16 6.91-2 7.27-2.72"/><path stroke="#15C" stroke-linecap="round" stroke-linejoin="round" stroke-width=".53" d="M67.67 72.82s1.58.9 4.92.02"/><path stroke="#15C" stroke-linecap="round" stroke-linejoin="round" stroke-width=".7" d="M46.1 80.67S23.81 89.12 16.62 97.2c-7.19 8.07-7.28 32.23-7.28 32.23l-.41 15.3m80.4-65.51c29.24 7.15 32.06 40.11 31.13 65.51"/><path stroke="#15C" stroke-linecap="round" stroke-linejoin="round" stroke-width=".7" d="M25.87 110.29s4.91 11.16 7.57 19.22c2.66 8.06-.63 15.21-.63 15.21"/><path stroke="#15C" stroke-linecap="round" stroke-linejoin="round" stroke-width=".7" d="M20.33 117.32s6.61 7.2 9.86 9.69c3.25 2.5 3.99 5.41 3.99 5.41m74.7-18.8s2.23 4.38.33 11.43-.02 19.68-.02 19.68"/><path stroke="#15C" stroke-linecap="round" stroke-linejoin="round" stroke-width=".7" d="M108.37 131.33l-3.34-11.06-.57-1.87M96.67 92.71s1.61-5.95.21-6.7"/></g></svg>