<svg xmlns="http://www.w3.org/2000/svg" width="735" height="195" viewBox="0 0 735 195"><g fill="none"><path fill="#000" d="M266.506,92.2368138 L266.506,131.533907 L248,131.533907 L248,63.2152853 L265.949429,63.2152853 L265.949429,71.6856835 C270.123714,64.6038751 278.333143,61.4101184 285.707714,61.4101184 C302.683143,61.4101184 310.475143,73.4908504 310.475143,88.4876211 L310.475143,131.533907 L291.969143,131.533907 L291.969143,91.6813778 C291.969143,84.0441335 288.212286,78.073197 279.307143,78.073197 C271.236857,78.073197 266.506,84.3218515 266.506,92.2368138 Z M321.606571,135.2831 L338.303714,130.839612 C339.556,138.337998 345.539143,143.753498 354.305143,143.753498 C365.993143,143.753498 372.532857,137.921421 372.532857,124.729817 L372.532857,119.730893 C369.75,124.174381 363.349429,128.47901 353.470286,128.47901 C335.242571,128.47901 321.606571,114.454252 321.606571,95.2917115 C321.606571,77.2400431 334.686,61.9655544 353.470286,61.9655544 C364.323429,61.9655544 370.584857,66.68676 372.950286,71.2691066 L372.950286,63.2152853 L390.760571,63.2152853 L390.760571,124.174381 C390.760571,142.920344 380.603143,160 354.861714,160 C336.077429,160 323.554571,148.335845 321.606571,135.2831 Z M356.670571,112.649085 C366.132286,112.649085 372.811143,105.844995 372.811143,95.2917115 C372.811143,84.7384284 365.575714,78.073197 356.670571,78.073197 C347.487143,78.073197 340.251714,84.7384284 340.251714,95.2917115 C340.251714,105.983854 347.069714,112.649085 356.670571,112.649085 Z M437.512571,116.814855 C446.556857,116.814855 454.905429,110.288482 454.905429,97.3745963 C454.905429,84.4607104 446.556857,77.934338 437.512571,77.934338 C428.468286,77.934338 420.119714,84.4607104 420.119714,97.3745963 C420.119714,110.149623 428.468286,116.814855 437.512571,116.814855 Z M437.512571,61.1324004 C457.966571,61.1324004 473.411429,76.2680301 473.411429,97.3745963 C473.411429,118.342304 457.966571,133.616792 437.512571,133.616792 C417.058571,133.616792 401.613714,118.342304 401.613714,97.3745963 C401.613714,76.2680301 417.058571,61.1324004 437.512571,61.1324004 Z M526.981429,62.9375673 L526.981429,81.5446717 C524.894286,81.1280947 523.085429,80.9892357 521.415714,80.9892357 C511.954,80.9892357 503.744571,85.5715823 503.744571,100.290635 L503.744571,131.533907 L485.238571,131.533907 L485.238571,63.2152853 L503.188,63.2152853 L503.188,73.3519914 C507.362286,64.3261572 516.824,62.6598493 522.668,62.6598493 C524.198571,62.6598493 525.59,62.7987083 526.981429,62.9375673 Z M601.840286,31 L601.840286,119.175457 C601.840286,123.757804 602.118571,128.756728 602.396857,131.533907 L584.725714,131.533907 C584.447429,130.145318 584.03,126.812702 584.03,123.618945 C580.968857,129.034446 574.011714,133.200215 564.828286,133.200215 C545.348286,133.200215 531.434,117.925727 531.434,97.2357374 C531.434,77.2400431 544.930857,61.5489774 564.271714,61.5489774 C576.098857,61.5489774 581.664571,66.409042 583.612571,70.0193757 L583.612571,31 L601.840286,31 Z M550.079143,97.2357374 C550.079143,109.455328 557.314571,116.675996 567.054571,116.675996 C576.516286,116.675996 583.890857,109.455328 583.890857,97.0968784 C583.890857,84.8772874 576.516286,78.073197 567.054571,78.073197 C557.592857,78.073197 550.079143,85.0161464 550.079143,97.2357374 Z M632.590857,89.598493 L663.202286,89.598493 C662.924,82.7944026 658.471429,76.1291712 647.896571,76.1291712 C638.295714,76.1291712 633.008286,83.3498385 632.590857,89.598493 Z M665.011143,107.372443 L680.456,111.95479 C676.977429,123.757804 666.124286,133.616792 649.288,133.616792 C630.503714,133.616792 613.945714,120.14747 613.945714,97.0968784 C613.945714,75.2960172 630.086286,61.1324004 647.618286,61.1324004 C668.768,61.1324004 681.43,74.6017223 681.43,96.5414424 C681.43,99.1797632 681.151714,101.956943 681.151714,102.234661 L632.173429,102.234661 C632.590857,111.260495 640.243714,117.786868 649.427143,117.786868 C658.054,117.786868 662.784857,113.482239 665.011143,107.372443 Z M735,62.9375673 L735,81.5446717 C732.912857,81.1280947 731.104,80.9892357 729.434286,80.9892357 C719.972571,80.9892357 711.763143,85.5715823 711.763143,100.290635 L711.763143,131.533907 L693.257143,131.533907 L693.257143,63.2152853 L711.206571,63.2152853 L711.206571,73.3519914 C715.380857,64.3261572 724.842571,62.6598493 730.686571,62.6598493 C732.217143,62.6598493 733.608571,62.7987083 735,62.9375673 Z"/><path fill="#15C" d="M56.4589772,158.753965 L56.4589772,117.554576 C56.4589772,112.216274 60.7854563,107.888725 66.1224388,107.888725 C71.4594212,107.888725 75.7859003,112.216274 75.7859003,117.554576 L75.7859003,166.987838 L92.1691632,173.967619 C97.4917145,176.235192 103.508285,176.235192 108.830837,173.967619 L168.744298,148.442614 C176.584492,145.102447 181.673077,137.402256 181.673077,128.878422 L181.673077,65.4493897 C181.673077,56.9255558 176.584492,49.2253654 168.744298,45.8851983 L111.860232,21.6508099 C104.602207,18.5586648 96.3977925,18.5586648 89.139768,21.6508099 L71.9058816,28.9929836 L142.856129,59.0289407 C146.430686,60.5421874 148.753136,64.0478867 148.753136,67.9303717 L148.753136,90.7753829 C148.753136,96.1136848 144.426657,100.441233 139.089675,100.441233 C133.752692,100.441233 129.426213,96.1136848 129.426213,90.7753829 L129.426213,74.3353737 L47.1912784,39.5221762 L32.2557017,45.8851983 C24.4155083,49.2253654 19.3269231,56.9255558 19.3269231,65.4493897 L19.3269231,128.878422 C19.3269231,137.402256 24.4155083,145.102447 32.2557017,148.442614 L56.4589772,158.753965 Z M176.317786,28.0995697 C191.285428,34.4762525 201,49.1766158 201,65.4493897 L201,128.878422 C201,145.151196 191.285428,159.85156 176.317786,166.228242 L116.404325,191.753248 C106.24309,196.082251 94.7569095,196.082251 84.5956752,191.753248 L24.6822137,166.228242 C9.71457184,159.85156 0,145.151196 0,128.878422 L0,65.4493897 C0,49.1766158 9.71457184,34.4762525 24.6822137,28.0995697 L81.56628,3.86518133 C93.6629876,-1.28839378 107.337012,-1.28839378 119.43372,3.86518133 L176.317786,28.0995697 Z"/></g></svg>