<?xml version="1.0" standalone="no"?>
<!DOCTYPE svg PUBLIC "-//W3C//DTD SVG 20010904//EN"
 "http://www.w3.org/TR/2001/REC-SVG-20010904/DTD/svg10.dtd">
<svg version="1.0" xmlns="http://www.w3.org/2000/svg"
 width="500.000000pt" height="500.000000pt" viewBox="0 0 500.000000 500.000000"
 preserveAspectRatio="xMidYMid meet">
<metadata>
Created by potrace 1.14, written by Peter Selinger 2001-2017
</metadata>
<g transform="translate(0.000000,500.000000) scale(0.100000,-0.100000)"
fill="#000000" stroke="none">
<path d="M2379 4916 c-2 -2 -24 -6 -49 -9 -153 -19 -129 -10 -1100 -422 -107
-45 -283 -120 -390 -165 -242 -101 -331 -144 -396 -189 -223 -155 -368 -373
-424 -638 -18 -82 -19 -146 -16 -1008 1 -698 5 -930 14 -960 7 -22 20 -65 29
-95 24 -83 97 -227 153 -301 93 -125 221 -230 363 -301 49 -25 426 -187 587
-253 30 -12 269 -113 530 -225 283 -120 513 -212 570 -227 176 -47 426 -37
581 23 47 18 614 257 664 279 17 8 208 89 425 180 217 92 411 174 430 182 353
151 574 423 635 778 17 101 21 1730 5 1863 -20 155 -91 336 -181 459 -61 84
-174 191 -260 248 -74 49 -158 88 -529 245 -107 45 -208 88 -225 96 -16 7 -73
31 -125 52 -52 22 -244 103 -426 180 -347 147 -431 177 -564 199 -32 6 -296
13 -301 9z m322 -505 c53 -17 566 -229 714 -296 17 -7 118 -50 225 -95 107
-45 209 -88 225 -95 17 -7 110 -48 209 -89 98 -42 195 -89 215 -103 60 -44
137 -130 169 -191 63 -119 61 -93 62 -1022 0 -928 1 -909 -61 -1033 -38 -75
-147 -185 -218 -222 -28 -14 -200 -88 -383 -166 -409 -173 -531 -225 -585
-250 -24 -10 -45 -19 -48 -19 -3 0 -24 -9 -48 -19 -79 -37 -452 -193 -507
-213 -75 -27 -228 -33 -301 -12 -46 14 -246 95 -344 139 -16 8 -55 24 -85 37
l-55 23 0 630 c0 707 2 688 -74 762 -132 130 -354 67 -397 -112 -6 -23 -10
-258 -9 -558 0 -284 -1 -517 -2 -517 -3 0 -518 217 -558 235 -110 49 -137 67
-201 130 -82 80 -128 163 -149 264 -18 84 -21 1704 -4 1786 15 70 71 181 119
237 62 71 156 127 367 216 l193 82 52 -21 c49 -19 323 -133 393 -164 17 -7
289 -122 605 -255 316 -133 604 -255 640 -270 36 -15 131 -55 212 -89 l147
-62 3 -242 c3 -219 5 -245 22 -272 99 -153 283 -176 396 -48 58 66 62 98 58
468 -3 308 -4 322 -25 361 -27 50 -73 90 -133 116 -25 11 -58 26 -75 33 -16 8
-59 26 -95 40 -36 15 -80 33 -97 41 -18 8 -48 20 -65 28 -18 8 -222 94 -453
191 -231 97 -433 182 -450 190 -16 7 -137 57 -267 112 -131 54 -238 101 -238
104 0 3 30 19 68 34 37 15 85 36 107 45 190 85 308 130 373 144 95 20 268 14
353 -13z"/>
</g>
</svg>
